<svg xmlns="http://www.w3.org/2000/svg" xmlns:xlink="http://www.w3.org/1999/xlink" width="3.14in" height="3.19in" viewBox="0 0 226.36 229.43"><defs><style>.cls-1,.cls-10,.cls-11,.cls-15,.cls-17{fill:none;}.cls-2,.cls-4{fill:#fff;}.cls-3{clip-path:url(#clip-path);}.cls-4{stroke:#fff;isolation:isolate;opacity:0.7;}.cls-13,.cls-5{fill:#0e0e77;}.cls-5{stroke:#0e0e77;}.cls-10,.cls-11,.cls-15,.cls-17,.cls-5,.cls-6,.cls-7,.cls-8,.cls-9{stroke-linejoin:round;}.cls-12,.cls-6{fill:#0e7723;}.cls-6{stroke:#0e7723;}.cls-14,.cls-7{fill:#a15d11;}.cls-15,.cls-7{stroke:#a15d11;}.cls-10,.cls-8{stroke:#000;}.cls-16,.cls-9{fill:#626161;}.cls-17,.cls-9{stroke:#626161;}.cls-10{stroke-linecap:square;}.cls-11{stroke:blue;stroke-width:0.5px;stroke-dasharray:0.5 0.82;}</style><clipPath id="clip-path" transform="translate(0 0)"><rect class="cls-1" x="15.01" y="14.23" width="195.3" height="190.26"/></clipPath></defs><g id="Layer_1" data-name="Layer 1"><g id="patch_1" data-name="patch 1"><path class="cls-2" d="M0,229.43H226.36V0H0Z" transform="translate(0 0)"/></g><g id="patch_2" data-name="patch 2"><g class="cls-3"><path class="cls-4" d="M201.43,185.46,112.66,20.69,23.89,185.46Z" transform="translate(0 0)"/></g></g><g id="PathCollection_1" data-name="PathCollection 1"><g class="cls-3"><path id="m9cf4ad4c07" class="cls-5" d="M91.35,171.49a2.5,2.5,0,0,0,1.77-.74,2.5,2.5,0,0,0-3.53-3.53,2.51,2.51,0,0,0,1.76,4.27Z" transform="translate(0 0)"/><path id="m9cf4ad4c07-2" data-name="m9cf4ad4c07" class="cls-5" d="M118.87,163.25a2.49,2.49,0,0,0,2.5-2.5,2.5,2.5,0,0,0-5,0,2.51,2.51,0,0,0,2.5,2.5Z" transform="translate(0 0)"/></g></g><g id="PathCollection_2" data-name="PathCollection 2"><g class="cls-3"><path id="m93a0f3f52b" class="cls-6" d="M132.19,112.17a2.49,2.49,0,1,0-1.77-.73A2.51,2.51,0,0,0,132.19,112.17Z" transform="translate(0 0)"/><path id="m93a0f3f52b-2" data-name="m93a0f3f52b" class="cls-6" d="M142,140.18a2.5,2.5,0,1,0-1.76-4.27,2.49,2.49,0,0,0,0,3.54A2.47,2.47,0,0,0,142,140.18Z" transform="translate(0 0)"/></g></g><g id="PathCollection_3" data-name="PathCollection 3"><g class="cls-3"><path id="m759309a588" class="cls-7" d="M126,150.07a2.5,2.5,0,0,0,1.77-.74,2.5,2.5,0,0,0-3.53-3.53,2.51,2.51,0,0,0,1.76,4.27Z" transform="translate(0 0)"/></g></g><g class="cls-3"><path id="m94e6aa35d5" class="cls-8" d="M145.5,160a2.5,2.5,0,0,0,1.77-4.27,2.51,2.51,0,0,0-4.27,1.77,2.51,2.51,0,0,0,2.5,2.5Z" transform="translate(0 0)"/><path id="m94e6aa35d5-2" data-name="m94e6aa35d5" class="cls-9" d="M134.85,153.36a2.5,2.5,0,0,0,1.77-4.27,2.5,2.5,0,1,0-1.77,4.27Z" transform="translate(0 0)"/></g><g id="line2d_1" data-name="line2d 1"><g class="cls-3"><path class="cls-10" d="M23.89,185.46H201.43" transform="translate(0 0)"/></g></g><g id="line2d_2" data-name="line2d 2"><g class="cls-3"><path class="cls-10" d="M112.66,20.69,23.89,185.46" transform="translate(0 0)"/></g></g><g id="line2d_3" data-name="line2d 3"><g class="cls-3"><path class="cls-10" d="M112.66,20.69l88.77,164.77" transform="translate(0 0)"/></g></g><g id="line2d_4" data-name="line2d 4"><g class="cls-3"><path class="cls-11" d="M23.89,185.46H201.43" transform="translate(0 0)"/></g></g><g id="line2d_5" data-name="line2d 5"><g class="cls-3"><path class="cls-11" d="M32.76,169H192.55" transform="translate(0 0)"/></g></g><g id="line2d_6" data-name="line2d 6"><g class="cls-3"><path class="cls-11" d="M41.64,152.51h142" transform="translate(0 0)"/></g></g><g id="line2d_7" data-name="line2d 7"><g class="cls-3"><path class="cls-11" d="M50.52,136H174.8" transform="translate(0 0)"/></g></g><g id="line2d_8" data-name="line2d 8"><g class="cls-3"><path class="cls-11" d="M59.4,119.56H165.92" transform="translate(0 0)"/></g></g><g id="line2d_9" data-name="line2d 9"><g class="cls-3"><path class="cls-11" d="M68.27,103.08h88.78" transform="translate(0 0)"/></g></g><g id="line2d_10" data-name="line2d 10"><g class="cls-3"><path class="cls-11" d="M77.15,86.6h71" transform="translate(0 0)"/></g></g><g id="line2d_11" data-name="line2d 11"><g class="cls-3"><path class="cls-11" d="M86,70.12h53.26" transform="translate(0 0)"/></g></g><g id="line2d_12" data-name="line2d 12"><g class="cls-3"><path class="cls-11" d="M94.9,53.65h35.51" transform="translate(0 0)"/></g></g><g id="line2d_13" data-name="line2d 13"><g class="cls-3"><path class="cls-11" d="M103.78,37.17h17.76" transform="translate(0 0)"/></g></g><g id="line2d_14" data-name="line2d 14"><g class="cls-3"><path class="cls-11" d="M112.66,20.69,23.89,185.46" transform="translate(0 0)"/></g></g><g id="line2d_15" data-name="line2d 15"><g class="cls-3"><path class="cls-11" d="M112.66,20.69l88.77,164.77" transform="translate(0 0)"/></g></g><g id="line2d_16" data-name="line2d 16"><g class="cls-3"><path class="cls-11" d="M121.54,37.17,41.64,185.46" transform="translate(0 0)"/></g></g><g id="line2d_17" data-name="line2d 17"><g class="cls-3"><path class="cls-11" d="M103.78,37.17l79.9,148.29" transform="translate(0 0)"/></g></g><g id="line2d_18" data-name="line2d 18"><g class="cls-3"><path class="cls-11" d="M130.41,53.65l-71,131.81" transform="translate(0 0)"/></g></g><g id="line2d_19" data-name="line2d 19"><g class="cls-3"><path class="cls-11" d="M94.9,53.65l71,131.81" transform="translate(0 0)"/></g></g><g id="line2d_20" data-name="line2d 20"><g class="cls-3"><path class="cls-11" d="M139.29,70.12,77.15,185.46" transform="translate(0 0)"/></g></g><g id="line2d_21" data-name="line2d 21"><g class="cls-3"><path class="cls-11" d="M86,70.12l62.14,115.34" transform="translate(0 0)"/></g></g><g id="line2d_22" data-name="line2d 22"><g class="cls-3"><path class="cls-11" d="M148.17,86.6,94.9,185.46" transform="translate(0 0)"/></g></g><g id="line2d_23" data-name="line2d 23"><g class="cls-3"><path class="cls-11" d="M77.15,86.6l53.26,98.86" transform="translate(0 0)"/></g></g><g id="line2d_24" data-name="line2d 24"><g class="cls-3"><path class="cls-11" d="M157.05,103.08l-44.39,82.38" transform="translate(0 0)"/></g></g><g id="line2d_25" data-name="line2d 25"><g class="cls-3"><path class="cls-11" d="M68.27,103.08l44.39,82.38" transform="translate(0 0)"/></g></g><g id="line2d_26" data-name="line2d 26"><g class="cls-3"><path class="cls-11" d="M165.92,119.56l-35.51,65.9" transform="translate(0 0)"/></g></g><g id="line2d_27" data-name="line2d 27"><g class="cls-3"><path class="cls-11" d="M59.4,119.56l35.5,65.9" transform="translate(0 0)"/></g></g><g id="line2d_28" data-name="line2d 28"><g class="cls-3"><path class="cls-11" d="M174.8,136l-26.63,49.43" transform="translate(0 0)"/></g></g><g id="line2d_29" data-name="line2d 29"><g class="cls-3"><path class="cls-11" d="M50.52,136l26.63,49.43" transform="translate(0 0)"/></g></g><g id="line2d_30" data-name="line2d 30"><g class="cls-3"><path class="cls-11" d="M183.68,152.51l-17.76,33" transform="translate(0 0)"/></g></g><g id="line2d_31" data-name="line2d 31"><g class="cls-3"><path class="cls-11" d="M41.64,152.51l17.76,33" transform="translate(0 0)"/></g></g><g id="line2d_32" data-name="line2d 32"><g class="cls-3"><path class="cls-11" d="M192.55,169l-8.87,16.47" transform="translate(0 0)"/></g></g><g id="line2d_33" data-name="line2d 33"><g class="cls-3"><path class="cls-11" d="M32.76,169l8.88,16.47" transform="translate(0 0)"/></g></g><g id="line2d_34" data-name="line2d 34"><g class="cls-3"><path class="cls-11" d="M201.43,185.46h0" transform="translate(0 0)"/></g></g><g id="line2d_35" data-name="line2d 35"><g class="cls-3"><path class="cls-11" d="M23.89,185.46h0" transform="translate(0 0)"/></g></g><g id="line2d_36" data-name="line2d 36"><g class="cls-3"><path class="cls-10" d="M201.43,185.46h5.33" transform="translate(0 0)"/></g></g><g id="line2d_37" data-name="line2d 37"><g class="cls-3"><path class="cls-10" d="M192.55,169h5.33" transform="translate(0 0)"/></g></g><g id="line2d_38" data-name="line2d 38"><g class="cls-3"><path class="cls-10" d="M183.68,152.51H189" transform="translate(0 0)"/></g></g><g id="line2d_39" data-name="line2d 39"><g class="cls-3"><path class="cls-10" d="M174.8,136h5.33" transform="translate(0 0)"/></g></g><g id="line2d_40" data-name="line2d 40"><g class="cls-3"><path class="cls-10" d="M165.92,119.56h5.33" transform="translate(0 0)"/></g></g><g id="line2d_41" data-name="line2d 41"><g class="cls-3"><path class="cls-10" d="M157.05,103.08h5.32" transform="translate(0 0)"/></g></g><g id="line2d_42" data-name="line2d 42"><g class="cls-3"><path class="cls-10" d="M148.17,86.6h5.32" transform="translate(0 0)"/></g></g><g id="line2d_43" data-name="line2d 43"><g class="cls-3"><path class="cls-10" d="M139.29,70.12h5.33" transform="translate(0 0)"/></g></g><g id="line2d_44" data-name="line2d 44"><g class="cls-3"><path class="cls-10" d="M130.41,53.65h5.33" transform="translate(0 0)"/></g></g><g id="line2d_45" data-name="line2d 45"><g class="cls-3"><path class="cls-10" d="M121.54,37.17h5.32" transform="translate(0 0)"/></g></g><g id="line2d_46" data-name="line2d 46"><g class="cls-3"><path class="cls-10" d="M112.66,20.69H118" transform="translate(0 0)"/></g></g><g id="line2d_47" data-name="line2d 47"><g class="cls-3"><path class="cls-10" d="M23.89,185.46l-2.67-4.94" transform="translate(0 0)"/></g></g><g id="line2d_48" data-name="line2d 48"><g class="cls-3"><path class="cls-10" d="M32.76,169l-2.66-5" transform="translate(0 0)"/></g></g><g id="line2d_49" data-name="line2d 49"><g class="cls-3"><path class="cls-10" d="M41.64,152.51,39,147.57" transform="translate(0 0)"/></g></g><g id="line2d_50" data-name="line2d 50"><g class="cls-3"><path class="cls-10" d="M50.52,136l-2.67-4.94" transform="translate(0 0)"/></g></g><g id="line2d_51" data-name="line2d 51"><g class="cls-3"><path class="cls-10" d="M59.4,119.56l-2.67-5" transform="translate(0 0)"/></g></g><g id="line2d_52" data-name="line2d 52"><g class="cls-3"><path class="cls-10" d="M68.27,103.08l-2.66-4.94" transform="translate(0 0)"/></g></g><g id="line2d_53" data-name="line2d 53"><g class="cls-3"><path class="cls-10" d="M77.15,86.6l-2.66-4.94" transform="translate(0 0)"/></g></g><g id="line2d_54" data-name="line2d 54"><g class="cls-3"><path class="cls-10" d="M86,70.12l-2.67-4.94" transform="translate(0 0)"/></g></g><g id="line2d_55" data-name="line2d 55"><g class="cls-3"><path class="cls-10" d="M94.9,53.65,92.24,48.7" transform="translate(0 0)"/></g></g><g id="line2d_56" data-name="line2d 56"><g class="cls-3"><path class="cls-10" d="M103.78,37.17l-2.66-4.94" transform="translate(0 0)"/></g></g><g id="line2d_57" data-name="line2d 57"><g class="cls-3"><path class="cls-10" d="M112.66,20.69,110,15.75" transform="translate(0 0)"/></g></g><g id="line2d_58" data-name="line2d 58"><g class="cls-3"><path class="cls-10" d="M23.89,185.46l-2.67,4.95" transform="translate(0 0)"/></g></g><g id="line2d_59" data-name="line2d 59"><g class="cls-3"><path class="cls-10" d="M41.64,185.46,39,190.41" transform="translate(0 0)"/></g></g><g id="line2d_60" data-name="line2d 60"><g class="cls-3"><path class="cls-10" d="M59.4,185.46l-2.67,4.95" transform="translate(0 0)"/></g></g><g id="line2d_61" data-name="line2d 61"><g class="cls-3"><path class="cls-10" d="M77.15,185.46l-2.66,4.95" transform="translate(0 0)"/></g></g><g id="line2d_62" data-name="line2d 62"><g class="cls-3"><path class="cls-10" d="M94.9,185.46l-2.66,4.95" transform="translate(0 0)"/></g></g><g id="line2d_63" data-name="line2d 63"><g class="cls-3"><path class="cls-10" d="M112.66,185.46,110,190.41" transform="translate(0 0)"/></g></g><g id="line2d_64" data-name="line2d 64"><g class="cls-3"><path class="cls-10" d="M130.41,185.46l-2.66,4.95" transform="translate(0 0)"/></g></g><g id="line2d_65" data-name="line2d 65"><g class="cls-3"><path class="cls-10" d="M148.17,185.46l-2.67,4.95" transform="translate(0 0)"/></g></g><g id="line2d_66" data-name="line2d 66"><g class="cls-3"><path class="cls-10" d="M165.92,185.46l-2.66,4.95" transform="translate(0 0)"/></g></g><g id="line2d_67" data-name="line2d 67"><g class="cls-3"><path class="cls-10" d="M183.68,185.46,181,190.41" transform="translate(0 0)"/></g></g><g id="line2d_68" data-name="line2d 68"><g class="cls-3"><path class="cls-10" d="M201.43,185.46l-2.66,4.95" transform="translate(0 0)"/></g></g><g id="text_1" data-name="text 1"><path id="DejaVuSans-30" d="M216.61,182.62a1,1,0,0,0-.92.6,5.55,5.55,0,0,0,0,3.6,1,1,0,0,0,1.84,0,5.38,5.38,0,0,0,0-3.6A1,1,0,0,0,216.61,182.62Zm0-.62a1.71,1.71,0,0,1,1.5.77,4.11,4.11,0,0,1,.52,2.25,4.07,4.07,0,0,1-.52,2.25,1.83,1.83,0,0,1-3,0,4.07,4.07,0,0,1-.52-2.25,4.11,4.11,0,0,1,.52-2.25A1.71,1.71,0,0,1,216.61,182Z" transform="translate(0 0)"/></g><g id="text_2" data-name="text 2"><path id="DejaVuSans-31" d="M203.64,170.79h1.29v-4.45l-1.41.29v-.72l1.4-.28h.79v5.16H207v.67h-3.36Z" transform="translate(0 0)"/><path id="DejaVuSans-30-2" data-name="DejaVuSans-30" d="M210.28,166.15a1,1,0,0,0-.92.6,5.38,5.38,0,0,0,0,3.6,1,1,0,0,0,1.84,0,5.55,5.55,0,0,0,0-3.6A1,1,0,0,0,210.28,166.15Zm0-.63a1.7,1.7,0,0,1,1.5.78,4.07,4.07,0,0,1,.51,2.25,4.12,4.12,0,0,1-.51,2.25,1.71,1.71,0,0,1-1.5.77,1.69,1.69,0,0,1-1.5-.77,4,4,0,0,1-.52-2.25,4,4,0,0,1,.52-2.25A1.68,1.68,0,0,1,210.28,165.52Z" transform="translate(0 0)"/></g><g id="text_3" data-name="text 3"><path id="DejaVuSans-32" d="M195.3,154.32h2.76V155h-3.71v-.66l1.23-1.25c.51-.52.84-.86,1-1a3.59,3.59,0,0,0,.53-.72,1.28,1.28,0,0,0,.15-.58,1,1,0,0,0-.32-.76,1.25,1.25,0,0,0-.85-.29,2.56,2.56,0,0,0-.79.13,4.11,4.11,0,0,0-.88.39v-.8a7,7,0,0,1,.89-.29,3.7,3.7,0,0,1,.76-.1,2.14,2.14,0,0,1,1.45.46,1.48,1.48,0,0,1,.53,1.21,1.75,1.75,0,0,1-.13.68,3.26,3.26,0,0,1-.49.76l-.62.65Z" transform="translate(0 0)"/><path id="DejaVuSans-30-3" data-name="DejaVuSans-30" d="M201.4,149.67a1,1,0,0,0-.92.6,5.55,5.55,0,0,0,0,3.6,1,1,0,0,0,1.84,0,5.38,5.38,0,0,0,0-3.6A1,1,0,0,0,201.4,149.67Zm0-.63a1.7,1.7,0,0,1,1.5.78,5.13,5.13,0,0,1,0,4.5,1.85,1.85,0,0,1-3,0,5.13,5.13,0,0,1,0-4.5A1.7,1.7,0,0,1,201.4,149Z" transform="translate(0 0)"/></g><g id="text_4" data-name="text 4"><path id="DejaVuSans-33" d="M188.14,135.36a1.55,1.55,0,0,1,.88.5,1.45,1.45,0,0,1,.32.95,1.62,1.62,0,0,1-.6,1.34,2.65,2.65,0,0,1-1.68.47,5,5,0,0,1-.76-.07,6.9,6.9,0,0,1-.8-.22v-.76a3.29,3.29,0,0,0,.72.29,3.59,3.59,0,0,0,.81.09,1.8,1.8,0,0,0,1.13-.29,1.11,1.11,0,0,0,0-1.66,1.57,1.57,0,0,0-1-.29h-.68v-.65h.71a1.43,1.43,0,0,0,.89-.23.8.8,0,0,0,.31-.67.82.82,0,0,0-.32-.69,1.49,1.49,0,0,0-.91-.24,3.53,3.53,0,0,0-.7.07,6.79,6.79,0,0,0-.82.22v-.7a6.31,6.31,0,0,1,.85-.19,4.91,4.91,0,0,1,.74-.06,2.2,2.2,0,0,1,1.42.41,1.3,1.3,0,0,1,.52,1.1,1.24,1.24,0,0,1-.28.82A1.45,1.45,0,0,1,188.14,135.36Z" transform="translate(0 0)"/><path id="DejaVuSans-30-4" data-name="DejaVuSans-30" d="M192.52,133.19a1,1,0,0,0-.91.6,5.38,5.38,0,0,0,0,3.6,1,1,0,0,0,1.83,0,5.38,5.38,0,0,0,0-3.6A1,1,0,0,0,192.52,133.19Zm0-.62a1.69,1.69,0,0,1,1.5.77,4,4,0,0,1,.52,2.25,4,4,0,0,1-.52,2.25,1.68,1.68,0,0,1-1.5.78,1.7,1.7,0,0,1-1.5-.78,4.07,4.07,0,0,1-.51-2.25,4.12,4.12,0,0,1,.51-2.25A1.71,1.71,0,0,1,192.52,132.57Z" transform="translate(0 0)"/></g><g id="text_5" data-name="text 5"><path id="DejaVuSans-34" d="M179,116.88,177,120h2Zm-.21-.69h1V120h.83v.65h-.83V122H179v-1.38H176.4v-.76Z" transform="translate(0 0)"/><path id="DejaVuSans-30-5" data-name="DejaVuSans-30" d="M183.65,116.71a1,1,0,0,0-.92.6,5.41,5.41,0,0,0,0,3.61,1,1,0,0,0,.92.6,1,1,0,0,0,.92-.6,5.58,5.58,0,0,0,0-3.61A1,1,0,0,0,183.65,116.71Zm0-.62a1.67,1.67,0,0,1,1.49.78,4,4,0,0,1,.52,2.25,4,4,0,0,1-.52,2.25,1.84,1.84,0,0,1-3,0,4,4,0,0,1-.52-2.25,4,4,0,0,1,.52-2.25A1.68,1.68,0,0,1,183.65,116.09Z" transform="translate(0 0)"/></g><g id="text_6" data-name="text 6"><path id="DejaVuSans-35" d="M168,99.72h3.1v.66h-2.38v1.43l.34-.09a2.07,2.07,0,0,1,.35,0,2.17,2.17,0,0,1,1.55.54,1.9,1.9,0,0,1,.57,1.45,1.85,1.85,0,0,1-.59,1.46,2.38,2.38,0,0,1-1.65.52,4.74,4.74,0,0,1-.75-.06,5,5,0,0,1-.79-.19v-.79a3,3,0,0,0,.73.28,2.9,2.9,0,0,0,.79.1,1.52,1.52,0,0,0,1.07-.36,1.19,1.19,0,0,0,.4-1,1.22,1.22,0,0,0-.4-1,1.57,1.57,0,0,0-1.07-.35,2.7,2.7,0,0,0-.63.07,3.47,3.47,0,0,0-.64.22Z" transform="translate(0 0)"/><path id="DejaVuSans-30-6" data-name="DejaVuSans-30" d="M174.77,100.24a1,1,0,0,0-.92.6,5.55,5.55,0,0,0,0,3.6,1,1,0,0,0,1.84,0,5.38,5.38,0,0,0,0-3.6A1,1,0,0,0,174.77,100.24Zm0-.63a1.7,1.7,0,0,1,1.5.78,5.22,5.22,0,0,1,0,4.5,1.85,1.85,0,0,1-3,0,5.13,5.13,0,0,1,0-4.5A1.69,1.69,0,0,1,174.77,99.61Z" transform="translate(0 0)"/></g><g id="text_7" data-name="text 7"><path id="DejaVuSans-36" d="M160.9,85.84a1,1,0,0,0-.84.37,1.45,1.45,0,0,0-.31,1,1.5,1.5,0,0,0,.31,1,1,1,0,0,0,.84.36,1.06,1.06,0,0,0,.84-.36,1.5,1.5,0,0,0,.31-1,1.45,1.45,0,0,0-.31-1A1,1,0,0,0,160.9,85.84Zm1.57-2.47v.72a2.91,2.91,0,0,0-.6-.22,2.58,2.58,0,0,0-.6-.07,1.44,1.44,0,0,0-1.2.53,2.86,2.86,0,0,0-.47,1.59,1.6,1.6,0,0,1,.58-.52,1.65,1.65,0,0,1,.77-.18,1.84,1.84,0,0,1,1.38.53,2,2,0,0,1,.51,1.45,1.94,1.94,0,0,1-.53,1.44,1.85,1.85,0,0,1-1.41.55,1.76,1.76,0,0,1-1.55-.78,4,4,0,0,1-.53-2.25,3.47,3.47,0,0,1,.65-2.2,2.14,2.14,0,0,1,1.76-.82,4,4,0,0,1,.6,0A4.12,4.12,0,0,1,162.47,83.37Z" transform="translate(0 0)"/><path id="DejaVuSans-30-7" data-name="DejaVuSans-30" d="M165.89,83.76a1,1,0,0,0-.92.6,5.55,5.55,0,0,0,0,3.6,1,1,0,0,0,1.84,0,5.38,5.38,0,0,0,0-3.6A1,1,0,0,0,165.89,83.76Zm0-.62a1.69,1.69,0,0,1,1.5.77,5.13,5.13,0,0,1,0,4.5,1.83,1.83,0,0,1-3,0,5.22,5.22,0,0,1,0-4.5A1.69,1.69,0,0,1,165.89,83.14Z" transform="translate(0 0)"/></g><g id="text_8" data-name="text 8"><path id="DejaVuSans-37" d="M150,66.76h3.75v.34l-2.12,5.5h-.82l2-5.17H150Z" transform="translate(0 0)"/><path id="DejaVuSans-30-8" data-name="DejaVuSans-30" d="M157,67.28a1,1,0,0,0-.91.6,4,4,0,0,0-.31,1.81,4,4,0,0,0,.31,1.79,1,1,0,0,0,1.83,0,4,4,0,0,0,.31-1.79,4,4,0,0,0-.31-1.81A1,1,0,0,0,157,67.28Zm0-.62a1.69,1.69,0,0,1,1.5.77,4,4,0,0,1,.52,2.26,4,4,0,0,1-.52,2.24,1.82,1.82,0,0,1-3,0,4,4,0,0,1-.52-2.24,4,4,0,0,1,.52-2.26A1.69,1.69,0,0,1,157,66.66Z" transform="translate(0 0)"/></g><g id="text_9" data-name="text 9"><path id="DejaVuSans-38" d="M143.05,53.35a1.26,1.26,0,0,0-.89.3,1.24,1.24,0,0,0,0,1.66,1.26,1.26,0,0,0,.89.3,1.24,1.24,0,0,0,.88-.3,1.08,1.08,0,0,0,.33-.83,1.07,1.07,0,0,0-.33-.83A1.24,1.24,0,0,0,143.05,53.35Zm-.79-.34a1.41,1.41,0,0,1-.79-.47,1.29,1.29,0,0,1-.29-.85,1.35,1.35,0,0,1,.5-1.1,2.11,2.11,0,0,1,1.37-.41,2.08,2.08,0,0,1,1.36.41,1.35,1.35,0,0,1,.5,1.1,1.28,1.28,0,0,1-.28.85,1.41,1.41,0,0,1-.79.47,1.62,1.62,0,0,1,.89.52,1.47,1.47,0,0,1,.32.95,1.66,1.66,0,0,1-.52,1.3,2.68,2.68,0,0,1-3,0,1.65,1.65,0,0,1-.51-1.3,1.42,1.42,0,0,1,.32-.95A1.62,1.62,0,0,1,142.26,53ZM142,51.77a.88.88,0,0,0,.28.7,1.17,1.17,0,0,0,.8.26,1.14,1.14,0,0,0,.79-.26.89.89,0,0,0,.29-.7.91.91,0,0,0-.29-.71,1.14,1.14,0,0,0-.79-.25,1.16,1.16,0,0,0-.8.25A.91.91,0,0,0,142,51.77Z" transform="translate(0 0)"/><path id="DejaVuSans-30-9" data-name="DejaVuSans-30" d="M148.14,50.81a1,1,0,0,0-.92.6,5.38,5.38,0,0,0,0,3.6,1,1,0,0,0,1.84,0,5.55,5.55,0,0,0,0-3.6A1,1,0,0,0,148.14,50.81Zm0-.63a1.67,1.67,0,0,1,1.49.78,4,4,0,0,1,.52,2.25,4,4,0,0,1-.52,2.25,1.84,1.84,0,0,1-3,0,4,4,0,0,1-.52-2.25,4,4,0,0,1,.52-2.25A1.68,1.68,0,0,1,148.14,50.18Z" transform="translate(0 0)"/></g><g id="text_10" data-name="text 10"><path id="DejaVuSans-39" d="M132.51,39.52V38.8a2.54,2.54,0,0,0,.6.22,2.46,2.46,0,0,0,.6.07,1.42,1.42,0,0,0,1.19-.52,2.89,2.89,0,0,0,.47-1.6,1.53,1.53,0,0,1-.58.52,1.61,1.61,0,0,1-.76.18,1.85,1.85,0,0,1-1.39-.53,2,2,0,0,1-.51-1.45,2,2,0,0,1,.53-1.44,1.92,1.92,0,0,1,1.42-.55,1.75,1.75,0,0,1,1.54.78,3.94,3.94,0,0,1,.53,2.25,3.41,3.41,0,0,1-.65,2.2,2.14,2.14,0,0,1-1.76.83,3.05,3.05,0,0,1-.6-.06A4,4,0,0,1,132.51,39.52Zm1.57-2.47a1.06,1.06,0,0,0,.84-.36,1.77,1.77,0,0,0,0-2,1.17,1.17,0,0,0-1.69,0,1.77,1.77,0,0,0,0,2A1.07,1.07,0,0,0,134.08,37.05Z" transform="translate(0 0)"/><path id="DejaVuSans-30-10" data-name="DejaVuSans-30" d="M139.26,34.33a1,1,0,0,0-.92.6,4.18,4.18,0,0,0-.3,1.8,4.18,4.18,0,0,0,.3,1.8,1,1,0,0,0,1.84,0,4.16,4.16,0,0,0,.31-1.8,4.16,4.16,0,0,0-.31-1.8A1,1,0,0,0,139.26,34.33Zm0-.63a1.7,1.7,0,0,1,1.5.78,4.12,4.12,0,0,1,.51,2.25,4.12,4.12,0,0,1-.51,2.25,1.83,1.83,0,0,1-3,0,4.11,4.11,0,0,1-.52-2.25,4.11,4.11,0,0,1,.52-2.25A1.7,1.7,0,0,1,139.26,33.7Z" transform="translate(0 0)"/></g><g id="text_11" data-name="text 11"><path id="DejaVuSans-31-2" data-name="DejaVuSans-31" d="M121.2,22.5h1.29V18.05l-1.41.28v-.72l1.4-.28h.79V22.5h1.29v.66H121.2Z" transform="translate(0 0)"/><path id="DejaVuSans-30-11" data-name="DejaVuSans-30" d="M127.84,17.85a1,1,0,0,0-.92.6,4.16,4.16,0,0,0-.31,1.8,4.16,4.16,0,0,0,.31,1.8,1,1,0,0,0,1.84,0,4.18,4.18,0,0,0,.3-1.8,4.18,4.18,0,0,0-.3-1.8A1,1,0,0,0,127.84,17.85Zm0-.62a1.71,1.71,0,0,1,1.5.77,4.12,4.12,0,0,1,.51,2.25,4.07,4.07,0,0,1-.51,2.25,1.7,1.7,0,0,1-1.5.78,1.68,1.68,0,0,1-1.5-.78,4,4,0,0,1-.52-2.25,4,4,0,0,1,.52-2.25A1.69,1.69,0,0,1,127.84,17.23Z" transform="translate(0 0)"/><path id="DejaVuSans-30-12" data-name="DejaVuSans-30" d="M132.93,17.85a1,1,0,0,0-.92.6,4.16,4.16,0,0,0-.31,1.8,4.16,4.16,0,0,0,.31,1.8,1,1,0,0,0,1.84,0,4.18,4.18,0,0,0,.3-1.8,4.18,4.18,0,0,0-.3-1.8A1,1,0,0,0,132.93,17.85Zm0-.62a1.71,1.71,0,0,1,1.5.77,4.12,4.12,0,0,1,.51,2.25,4.07,4.07,0,0,1-.51,2.25,1.7,1.7,0,0,1-1.5.78,1.68,1.68,0,0,1-1.5-.78,4,4,0,0,1-.52-2.25,4,4,0,0,1,.52-2.25A1.69,1.69,0,0,1,132.93,17.23Z" transform="translate(0 0)"/></g><g id="text_12" data-name="text 12"><path id="DejaVuSans-31-3" data-name="DejaVuSans-31" d="M10.59,177.38h1.28v-4.45l-1.4.29v-.72l1.4-.28h.79v5.16h1.28v.67H10.59Z" transform="translate(0 0)"/><path id="DejaVuSans-30-13" data-name="DejaVuSans-30" d="M17.23,172.74a1,1,0,0,0-.92.6,5.38,5.38,0,0,0,0,3.6,1,1,0,0,0,.92.6,1,1,0,0,0,.92-.6,5.55,5.55,0,0,0,0-3.6A1,1,0,0,0,17.23,172.74Zm0-.63a1.67,1.67,0,0,1,1.49.78,4,4,0,0,1,.52,2.25,4,4,0,0,1-.52,2.25,1.84,1.84,0,0,1-3,0,4,4,0,0,1-.52-2.25,4,4,0,0,1,.52-2.25A1.68,1.68,0,0,1,17.23,172.11Z" transform="translate(0 0)"/><path id="DejaVuSans-30-14" data-name="DejaVuSans-30" d="M22.32,172.74a1,1,0,0,0-.92.6,5.38,5.38,0,0,0,0,3.6,1,1,0,0,0,.92.6,1,1,0,0,0,.92-.6,5.55,5.55,0,0,0,0-3.6A1,1,0,0,0,22.32,172.74Zm0-.63a1.67,1.67,0,0,1,1.49.78,4,4,0,0,1,.52,2.25,4,4,0,0,1-.52,2.25,1.84,1.84,0,0,1-3,0,4,4,0,0,1-.52-2.25,4,4,0,0,1,.52-2.25A1.68,1.68,0,0,1,22.32,172.11Z" transform="translate(0 0)"/></g><g id="text_13" data-name="text 13"><path id="DejaVuSans-39-2" data-name="DejaVuSans-39" d="M21.89,161.45v-.72a2.79,2.79,0,0,0,.61.22,2.44,2.44,0,0,0,.59.07,1.43,1.43,0,0,0,1.2-.52,2.89,2.89,0,0,0,.47-1.6,1.53,1.53,0,0,1-.58.52,1.62,1.62,0,0,1-.77.18,1.84,1.84,0,0,1-1.38-.53,2,2,0,0,1-.51-1.45,2,2,0,0,1,.53-1.44,1.9,1.9,0,0,1,1.41-.55,1.76,1.76,0,0,1,1.55.78,3.94,3.94,0,0,1,.53,2.25,3.47,3.47,0,0,1-.65,2.2,2.14,2.14,0,0,1-1.76.83,3.05,3.05,0,0,1-.6-.06A4.12,4.12,0,0,1,21.89,161.45ZM23.46,159a1.07,1.07,0,0,0,.85-.36,1.77,1.77,0,0,0,0-2,1.17,1.17,0,0,0-1.69,0,1.77,1.77,0,0,0,0,2A1.06,1.06,0,0,0,23.46,159Z" transform="translate(0 0)"/><path id="DejaVuSans-30-15" data-name="DejaVuSans-30" d="M28.65,156.26a1,1,0,0,0-.92.6,5.55,5.55,0,0,0,0,3.6,1,1,0,0,0,1.84,0,5.38,5.38,0,0,0,0-3.6A1,1,0,0,0,28.65,156.26Zm0-.63a1.7,1.7,0,0,1,1.5.78,5.22,5.22,0,0,1,0,4.5,1.83,1.83,0,0,1-3,0,5.13,5.13,0,0,1,0-4.5A1.69,1.69,0,0,1,28.65,155.63Z" transform="translate(0 0)"/></g><g id="text_14" data-name="text 14"><path id="DejaVuSans-38-2" data-name="DejaVuSans-38" d="M32.44,142.32a1.27,1.27,0,0,0-.89.31,1.22,1.22,0,0,0,0,1.65,1.26,1.26,0,0,0,.89.3,1.24,1.24,0,0,0,.88-.3,1.07,1.07,0,0,0,.33-.83,1,1,0,0,0-.33-.82A1.24,1.24,0,0,0,32.44,142.32Zm-.79-.33a1.37,1.37,0,0,1-.79-.47,1.33,1.33,0,0,1-.29-.85,1.36,1.36,0,0,1,.5-1.11,2.11,2.11,0,0,1,1.37-.4,2.08,2.08,0,0,1,1.36.4,1.36,1.36,0,0,1,.5,1.11,1.38,1.38,0,0,1-.28.85,1.44,1.44,0,0,1-.79.47,1.6,1.6,0,0,1,.89.52,1.45,1.45,0,0,1,.32.94,1.68,1.68,0,0,1-.52,1.31,2.68,2.68,0,0,1-3,0,1.67,1.67,0,0,1-.51-1.31,1.39,1.39,0,0,1,.32-.94A1.56,1.56,0,0,1,31.65,142Zm-.29-1.25a.89.89,0,0,0,.28.71,1.39,1.39,0,0,0,1.59,0,1,1,0,0,0,0-1.41,1.35,1.35,0,0,0-1.59,0A.88.88,0,0,0,31.36,140.74Z" transform="translate(0 0)"/><path id="DejaVuSans-30-16" data-name="DejaVuSans-30" d="M37.53,139.78a1,1,0,0,0-.92.6,5.38,5.38,0,0,0,0,3.6,1,1,0,0,0,.92.6,1,1,0,0,0,.92-.6,5.55,5.55,0,0,0,0-3.6A1,1,0,0,0,37.53,139.78Zm0-.62a1.69,1.69,0,0,1,1.49.77,4,4,0,0,1,.52,2.25,4,4,0,0,1-.52,2.25,1.82,1.82,0,0,1-3,0,4,4,0,0,1-.52-2.25,4,4,0,0,1,.52-2.25A1.69,1.69,0,0,1,37.53,139.16Z" transform="translate(0 0)"/></g><g id="text_15" data-name="text 15"><path id="DejaVuSans-37-2" data-name="DejaVuSans-37" d="M39.43,122.79h3.75v.33l-2.12,5.5h-.82l2-5.17h-2.8Z" transform="translate(0 0)"/><path id="DejaVuSans-30-17" data-name="DejaVuSans-30" d="M46.4,123.31a1,1,0,0,0-.91.6,5.38,5.38,0,0,0,0,3.6,1,1,0,0,0,1.83,0,5.38,5.38,0,0,0,0-3.6A1,1,0,0,0,46.4,123.31Zm0-.63a1.68,1.68,0,0,1,1.5.78,4,4,0,0,1,.52,2.25A4,4,0,0,1,47.9,128a1.69,1.69,0,0,1-1.5.77,1.71,1.71,0,0,1-1.5-.77,4.12,4.12,0,0,1-.51-2.25,4.07,4.07,0,0,1,.51-2.25A1.7,1.7,0,0,1,46.4,122.68Z" transform="translate(0 0)"/></g><g id="text_16" data-name="text 16"><path id="DejaVuSans-36-2" data-name="DejaVuSans-36" d="M50.29,108.91a1,1,0,0,0-.84.36,1.5,1.5,0,0,0-.31,1,1.45,1.45,0,0,0,.31,1,1,1,0,0,0,.84.37,1,1,0,0,0,.84-.37,1.45,1.45,0,0,0,.31-1,1.5,1.5,0,0,0-.31-1A1.06,1.06,0,0,0,50.29,108.91Zm1.56-2.47v.72a2.54,2.54,0,0,0-.6-.22,2.46,2.46,0,0,0-.6-.07,1.42,1.42,0,0,0-1.19.52A2.92,2.92,0,0,0,49,109a1.52,1.52,0,0,1,.58-.52,1.64,1.64,0,0,1,.76-.18,1.81,1.81,0,0,1,1.39.53,2,2,0,0,1,.51,1.45,1.94,1.94,0,0,1-.53,1.44,1.88,1.88,0,0,1-1.41.54,1.76,1.76,0,0,1-1.55-.77,3.94,3.94,0,0,1-.53-2.25,3.39,3.39,0,0,1,.65-2.2,2.15,2.15,0,0,1,1.76-.83,3.05,3.05,0,0,1,.6.06A3.73,3.73,0,0,1,51.85,106.44Z" transform="translate(0 0)"/><path id="DejaVuSans-30-18" data-name="DejaVuSans-30" d="M55.28,106.83a1,1,0,0,0-.92.6,5.55,5.55,0,0,0,0,3.6,1,1,0,0,0,1.84,0,5.38,5.38,0,0,0,0-3.6A1,1,0,0,0,55.28,106.83Zm0-.63a1.7,1.7,0,0,1,1.5.78,5.13,5.13,0,0,1,0,4.5,1.85,1.85,0,0,1-3,0,5.13,5.13,0,0,1,0-4.5A1.7,1.7,0,0,1,55.28,106.2Z" transform="translate(0 0)"/></g><g id="text_17" data-name="text 17"><path id="DejaVuSans-35-2" data-name="DejaVuSans-35" d="M57.39,89.83h3.1v.67H58.11v1.43l.34-.09a2.07,2.07,0,0,1,.35,0,2.18,2.18,0,0,1,1.54.53,2.11,2.11,0,0,1,0,2.92,2.43,2.43,0,0,1-1.65.52,4.74,4.74,0,0,1-.75-.06c-.25,0-.52-.11-.79-.19v-.8a3,3,0,0,0,.73.29,3.35,3.35,0,0,0,.79.09,1.57,1.57,0,0,0,1.07-.35,1.36,1.36,0,0,0,0-1.93,1.52,1.52,0,0,0-1.07-.36,3.38,3.38,0,0,0-.63.07,3.47,3.47,0,0,0-.64.22Z" transform="translate(0 0)"/><path id="DejaVuSans-30-19" data-name="DejaVuSans-30" d="M64.16,90.35a1,1,0,0,0-.92.6,5.38,5.38,0,0,0,0,3.6,1,1,0,0,0,1.84,0,5.55,5.55,0,0,0,0-3.6A1,1,0,0,0,64.16,90.35Zm0-.62a1.71,1.71,0,0,1,1.5.77,4.12,4.12,0,0,1,.51,2.25A4.07,4.07,0,0,1,65.66,95a1.7,1.7,0,0,1-1.5.78,1.68,1.68,0,0,1-1.5-.78,4,4,0,0,1-.52-2.25,4,4,0,0,1,.52-2.25A1.69,1.69,0,0,1,64.16,89.73Z" transform="translate(0 0)"/></g><g id="text_18" data-name="text 18"><path id="DejaVuSans-34-2" data-name="DejaVuSans-34" d="M68.43,74l-2,3.12h2Zm-.21-.69h1v3.81H70v.65h-.83v1.38h-.78V77.81H65.79v-.76Z" transform="translate(0 0)"/><path id="DejaVuSans-30-20" data-name="DejaVuSans-30" d="M73,73.87a1,1,0,0,0-.91.6,5.41,5.41,0,0,0,0,3.61,1,1,0,0,0,1.83,0,5.41,5.41,0,0,0,0-3.61A1,1,0,0,0,73,73.87Zm0-.62a1.68,1.68,0,0,1,1.5.78,4,4,0,0,1,.52,2.25,4,4,0,0,1-.52,2.25,1.84,1.84,0,0,1-3,0A4,4,0,0,1,71,76.28,4,4,0,0,1,71.54,74,1.67,1.67,0,0,1,73,73.25Z" transform="translate(0 0)"/></g><g id="text_19" data-name="text 19"><path id="DejaVuSans-33-2" data-name="DejaVuSans-33" d="M77.53,59.56a1.56,1.56,0,0,1,.88.51,1.43,1.43,0,0,1,.32.94,1.6,1.6,0,0,1-.6,1.34,2.59,2.59,0,0,1-1.68.47,4,4,0,0,1-.76-.07,5.35,5.35,0,0,1-.8-.22v-.76a2.53,2.53,0,0,0,.72.29,3.1,3.1,0,0,0,.81.1,1.86,1.86,0,0,0,1.13-.29,1,1,0,0,0,.39-.86,1,1,0,0,0-.36-.8,1.51,1.51,0,0,0-1-.29H75.9v-.65h.71A1.5,1.5,0,0,0,77.5,59a.89.89,0,0,0,0-1.36,1.49,1.49,0,0,0-.91-.24,3.53,3.53,0,0,0-.7.07,6.62,6.62,0,0,0-.82.21V57c.3-.08.59-.14.85-.19a4.91,4.91,0,0,1,.74-.06,2.26,2.26,0,0,1,1.42.41,1.32,1.32,0,0,1,.52,1.1,1.2,1.2,0,0,1-.28.82A1.39,1.39,0,0,1,77.53,59.56Z" transform="translate(0 0)"/><path id="DejaVuSans-30-21" data-name="DejaVuSans-30" d="M81.91,57.4A1,1,0,0,0,81,58a5.38,5.38,0,0,0,0,3.6,1,1,0,0,0,1.83,0,5.38,5.38,0,0,0,0-3.6A1,1,0,0,0,81.91,57.4Zm0-.63a1.68,1.68,0,0,1,1.5.78,5.13,5.13,0,0,1,0,4.5,1.67,1.67,0,0,1-1.5.77,1.69,1.69,0,0,1-1.5-.77,5.22,5.22,0,0,1,0-4.5A1.7,1.7,0,0,1,81.91,56.77Z" transform="translate(0 0)"/></g><g id="text_20" data-name="text 20"><path id="DejaVuSans-32-2" data-name="DejaVuSans-32" d="M84.69,45.57h2.76v.66H83.74v-.66L85,44.32c.51-.52.84-.86,1-1a3.59,3.59,0,0,0,.53-.72,1.28,1.28,0,0,0,.15-.58,1,1,0,0,0-.32-.76,1.27,1.27,0,0,0-.85-.29,2.56,2.56,0,0,0-.79.13,4.11,4.11,0,0,0-.88.39v-.8a7,7,0,0,1,.89-.29,3.63,3.63,0,0,1,.76-.09,2.21,2.21,0,0,1,1.45.45A1.51,1.51,0,0,1,87.41,42a1.72,1.72,0,0,1-.13.68,3.07,3.07,0,0,1-.49.76l-.62.66Z" transform="translate(0 0)"/><path id="DejaVuSans-30-22" data-name="DejaVuSans-30" d="M90.79,40.92a1,1,0,0,0-.92.6,4.18,4.18,0,0,0-.3,1.8,4.18,4.18,0,0,0,.3,1.8,1,1,0,0,0,1.84,0,5.38,5.38,0,0,0,0-3.6A1,1,0,0,0,90.79,40.92Zm0-.62a1.69,1.69,0,0,1,1.5.77,4.11,4.11,0,0,1,.52,2.25,4.11,4.11,0,0,1-.52,2.25,1.83,1.83,0,0,1-3,0,4.11,4.11,0,0,1-.52-2.25,4.11,4.11,0,0,1,.52-2.25A1.69,1.69,0,0,1,90.79,40.3Z" transform="translate(0 0)"/></g><g id="text_21" data-name="text 21"><path id="DejaVuSans-31-4" data-name="DejaVuSans-31" d="M93,29.09h1.28V24.64l-1.4.28V24.2l1.4-.28h.79v5.17h1.28v.67H93Z" transform="translate(0 0)"/><path id="DejaVuSans-30-23" data-name="DejaVuSans-30" d="M99.67,24.44a1,1,0,0,0-.92.6,4.18,4.18,0,0,0-.31,1.81,4.14,4.14,0,0,0,.31,1.79,1,1,0,0,0,1.84,0,4.16,4.16,0,0,0,.3-1.79,4.2,4.2,0,0,0-.3-1.81A1,1,0,0,0,99.67,24.44Zm0-.62a1.69,1.69,0,0,1,1.49.77,4,4,0,0,1,.52,2.26,4,4,0,0,1-.52,2.24,1.82,1.82,0,0,1-3,0,4,4,0,0,1-.52-2.24,4,4,0,0,1,.52-2.26A1.69,1.69,0,0,1,99.67,23.82Z" transform="translate(0 0)"/></g><g id="text_22" data-name="text 22"><path id="DejaVuSans-30-24" data-name="DejaVuSans-30" d="M106,8a1,1,0,0,0-.92.6,4.18,4.18,0,0,0-.3,1.8,4.18,4.18,0,0,0,.3,1.8,1,1,0,0,0,1.84,0,4.16,4.16,0,0,0,.31-1.8,4.16,4.16,0,0,0-.31-1.8A1,1,0,0,0,106,8Zm0-.63a1.7,1.7,0,0,1,1.5.78,4.07,4.07,0,0,1,.51,2.25,4.12,4.12,0,0,1-.51,2.25,1.85,1.85,0,0,1-3,0,4.11,4.11,0,0,1-.52-2.25,4.07,4.07,0,0,1,.52-2.25A1.7,1.7,0,0,1,106,7.34Z" transform="translate(0 0)"/></g><g id="text_23" data-name="text 23"><path id="DejaVuSans-30-25" data-name="DejaVuSans-30" d="M17.23,197.45a1,1,0,0,0-.92.6,5.38,5.38,0,0,0,0,3.6,1,1,0,0,0,.92.6,1,1,0,0,0,.92-.6,5.55,5.55,0,0,0,0-3.6A1,1,0,0,0,17.23,197.45Zm0-.62a1.69,1.69,0,0,1,1.49.77,4,4,0,0,1,.52,2.25,4,4,0,0,1-.52,2.25,1.82,1.82,0,0,1-3,0,4,4,0,0,1-.52-2.25,4,4,0,0,1,.52-2.25A1.69,1.69,0,0,1,17.23,196.83Z" transform="translate(0 0)"/></g><g id="text_24" data-name="text 24"><path id="DejaVuSans-31-5" data-name="DejaVuSans-31" d="M30.89,202.1h1.28v-4.45l-1.4.28v-.72l1.4-.28H33v5.17h1.28v.66H30.89Z" transform="translate(0 0)"/><path id="DejaVuSans-30-26" data-name="DejaVuSans-30" d="M37.53,197.45a1,1,0,0,0-.92.6,5.38,5.38,0,0,0,0,3.6,1,1,0,0,0,.92.6,1,1,0,0,0,.92-.6,5.55,5.55,0,0,0,0-3.6A1,1,0,0,0,37.53,197.45Zm0-.62a1.69,1.69,0,0,1,1.49.77,4,4,0,0,1,.52,2.25A4,4,0,0,1,39,202.1a1.82,1.82,0,0,1-3,0,4,4,0,0,1-.52-2.25A4,4,0,0,1,36,197.6,1.69,1.69,0,0,1,37.53,196.83Z" transform="translate(0 0)"/></g><g id="text_25" data-name="text 25"><path id="DejaVuSans-32-3" data-name="DejaVuSans-32" d="M49.18,202.1h2.76v.66H48.23v-.66l1.23-1.25c.51-.52.84-.86,1-1a3.59,3.59,0,0,0,.53-.72,1.25,1.25,0,0,0,.15-.58,1,1,0,0,0-.32-.76,1.25,1.25,0,0,0-.85-.29,2.56,2.56,0,0,0-.79.13,5.42,5.42,0,0,0-.88.39v-.8a9.1,9.1,0,0,1,.89-.29,3.63,3.63,0,0,1,.76-.09,2.19,2.19,0,0,1,1.45.45,1.49,1.49,0,0,1,.53,1.21,1.72,1.72,0,0,1-.13.68,3.07,3.07,0,0,1-.49.76c-.07.08-.27.3-.62.66Z" transform="translate(0 0)"/><path id="DejaVuSans-30-27" data-name="DejaVuSans-30" d="M55.28,197.45a1,1,0,0,0-.92.6,5.55,5.55,0,0,0,0,3.6,1,1,0,0,0,1.84,0,5.38,5.38,0,0,0,0-3.6A1,1,0,0,0,55.28,197.45Zm0-.62a1.71,1.71,0,0,1,1.5.77,4.11,4.11,0,0,1,.52,2.25,4.07,4.07,0,0,1-.52,2.25,1.83,1.83,0,0,1-3,0,4.07,4.07,0,0,1-.52-2.25,4.11,4.11,0,0,1,.52-2.25A1.71,1.71,0,0,1,55.28,196.83Z" transform="translate(0 0)"/></g><g id="text_26" data-name="text 26"><path id="DejaVuSans-33-3" data-name="DejaVuSans-33" d="M68.65,199.62a1.51,1.51,0,0,1,.88.5,1.45,1.45,0,0,1,.32.95,1.65,1.65,0,0,1-.59,1.34,2.7,2.7,0,0,1-1.69.47,5.11,5.11,0,0,1-.76-.07,7.49,7.49,0,0,1-.8-.22v-.76a3.29,3.29,0,0,0,.72.29,3.62,3.62,0,0,0,.82.09,1.83,1.83,0,0,0,1.13-.29,1,1,0,0,0,.39-.85,1,1,0,0,0-.37-.81,1.57,1.57,0,0,0-1-.29H67v-.65h.71a1.43,1.43,0,0,0,.89-.23.77.77,0,0,0,.31-.67.82.82,0,0,0-.32-.69,1.47,1.47,0,0,0-.91-.24,3.53,3.53,0,0,0-.7.07,6.67,6.67,0,0,0-.81.22v-.7a6.19,6.19,0,0,1,.84-.19,4.91,4.91,0,0,1,.74-.06,2.2,2.2,0,0,1,1.42.41,1.3,1.3,0,0,1,.52,1.1,1.28,1.28,0,0,1-.27.82A1.51,1.51,0,0,1,68.65,199.62Z" transform="translate(0 0)"/><path id="DejaVuSans-30-28" data-name="DejaVuSans-30" d="M73,197.45a1,1,0,0,0-.91.6,5.38,5.38,0,0,0,0,3.6,1,1,0,0,0,1.83,0,5.38,5.38,0,0,0,0-3.6A1,1,0,0,0,73,197.45Zm0-.62a1.69,1.69,0,0,1,1.5.77,4,4,0,0,1,.52,2.25,4,4,0,0,1-.52,2.25,1.82,1.82,0,0,1-3,0,4,4,0,0,1-.52-2.25,4,4,0,0,1,.52-2.25A1.69,1.69,0,0,1,73,196.83Z" transform="translate(0 0)"/></g><g id="text_27" data-name="text 27"><path id="DejaVuSans-34-3" data-name="DejaVuSans-34" d="M86.18,197.62l-2,3.11h2Zm-.21-.69h1v3.8h.83v.66H87v1.37h-.79v-1.37H83.55v-.76Z" transform="translate(0 0)"/><path id="DejaVuSans-30-29" data-name="DejaVuSans-30" d="M90.79,197.45a1,1,0,0,0-.92.6,5.55,5.55,0,0,0,0,3.6,1,1,0,0,0,1.84,0,5.38,5.38,0,0,0,0-3.6A1,1,0,0,0,90.79,197.45Zm0-.62a1.71,1.71,0,0,1,1.5.77,4.11,4.11,0,0,1,.52,2.25,4.07,4.07,0,0,1-.52,2.25,1.83,1.83,0,0,1-3,0,4.07,4.07,0,0,1-.52-2.25,4.11,4.11,0,0,1,.52-2.25A1.71,1.71,0,0,1,90.79,196.83Z" transform="translate(0 0)"/></g><g id="text_28" data-name="text 28"><path id="DejaVuSans-35-3" data-name="DejaVuSans-35" d="M101.77,196.93h3.1v.67H102.5V199a2.14,2.14,0,0,1,.34-.09,2,2,0,0,1,.34,0,2.19,2.19,0,0,1,1.55.53,1.9,1.9,0,0,1,.57,1.45,1.87,1.87,0,0,1-.58,1.47,2.46,2.46,0,0,1-1.66.52,4.93,4.93,0,0,1-.75-.06c-.25,0-.51-.11-.78-.19v-.8a2.79,2.79,0,0,0,.72.29,3.44,3.44,0,0,0,.8.09,1.58,1.58,0,0,0,1.07-.35,1.39,1.39,0,0,0,0-1.93,1.54,1.54,0,0,0-1.07-.36,3.38,3.38,0,0,0-.63.07,3.56,3.56,0,0,0-.65.22Z" transform="translate(0 0)"/><path id="DejaVuSans-30-30" data-name="DejaVuSans-30" d="M108.54,197.45a1,1,0,0,0-.91.6,5.38,5.38,0,0,0,0,3.6,1,1,0,0,0,1.83,0,5.38,5.38,0,0,0,0-3.6A1,1,0,0,0,108.54,197.45Zm0-.62a1.69,1.69,0,0,1,1.5.77,4,4,0,0,1,.52,2.25,4,4,0,0,1-.52,2.25,1.82,1.82,0,0,1-3,0,4,4,0,0,1-.52-2.25,4,4,0,0,1,.52-2.25A1.69,1.69,0,0,1,108.54,196.83Z" transform="translate(0 0)"/></g><g id="text_29" data-name="text 29"><path id="DejaVuSans-36-3" data-name="DejaVuSans-36" d="M121.31,199.53a1.07,1.07,0,0,0-.85.37,1.5,1.5,0,0,0-.31,1,1.55,1.55,0,0,0,.31,1,1.17,1.17,0,0,0,1.69,0,1.55,1.55,0,0,0,.31-1,1.5,1.5,0,0,0-.31-1A1.07,1.07,0,0,0,121.31,199.53Zm1.56-2.47v.72a2.86,2.86,0,0,0-.6-.21,2.47,2.47,0,0,0-.6-.08,1.42,1.42,0,0,0-1.19.53,2.86,2.86,0,0,0-.47,1.59,1.58,1.58,0,0,1,1.34-.7,1.85,1.85,0,0,1,1.39.53,2.28,2.28,0,0,1,0,2.9,1.88,1.88,0,0,1-1.41.54,1.76,1.76,0,0,1-1.55-.78,3.89,3.89,0,0,1-.54-2.25,3.41,3.41,0,0,1,.66-2.2,2.14,2.14,0,0,1,1.76-.82,3.05,3.05,0,0,1,.6.06A3.3,3.3,0,0,1,122.87,197.06Z" transform="translate(0 0)"/><path id="DejaVuSans-30-31" data-name="DejaVuSans-30" d="M126.3,197.45a1,1,0,0,0-.92.6,5.55,5.55,0,0,0,0,3.6,1,1,0,0,0,1.84,0,5.38,5.38,0,0,0,0-3.6A1,1,0,0,0,126.3,197.45Zm0-.62a1.71,1.71,0,0,1,1.5.77,4.12,4.12,0,0,1,.51,2.25,4.07,4.07,0,0,1-.51,2.25,1.83,1.83,0,0,1-3,0,4.07,4.07,0,0,1-.52-2.25,4.11,4.11,0,0,1,.52-2.25A1.7,1.7,0,0,1,126.3,196.83Z" transform="translate(0 0)"/></g><g id="text_30" data-name="text 30"><path id="DejaVuSans-37-3" data-name="DejaVuSans-37" d="M137.08,196.93h3.75v.34l-2.12,5.49h-.82l2-5.16h-2.8Z" transform="translate(0 0)"/><path id="DejaVuSans-30-32" data-name="DejaVuSans-30" d="M144.05,197.45a1,1,0,0,0-.91.6,5.38,5.38,0,0,0,0,3.6,1,1,0,0,0,1.83,0,5.38,5.38,0,0,0,0-3.6A1,1,0,0,0,144.05,197.45Zm0-.62a1.69,1.69,0,0,1,1.5.77,4,4,0,0,1,.52,2.25,4,4,0,0,1-.52,2.25,1.68,1.68,0,0,1-1.5.78,1.7,1.7,0,0,1-1.5-.78,4.07,4.07,0,0,1-.51-2.25,4.12,4.12,0,0,1,.51-2.25A1.71,1.71,0,0,1,144.05,196.83Z" transform="translate(0 0)"/></g><g id="text_31" data-name="text 31"><path id="DejaVuSans-38-3" data-name="DejaVuSans-38" d="M156.72,200a1.22,1.22,0,0,0-.89.31,1.08,1.08,0,0,0-.32.82,1.1,1.1,0,0,0,.32.83,1.26,1.26,0,0,0,.89.3,1.24,1.24,0,0,0,.88-.3,1.21,1.21,0,0,0,0-1.65A1.22,1.22,0,0,0,156.72,200Zm-.79-.33a1.41,1.41,0,0,1-.79-.47,1.33,1.33,0,0,1-.29-.85,1.36,1.36,0,0,1,.5-1.11,2.11,2.11,0,0,1,1.37-.4,2.08,2.08,0,0,1,1.36.4,1.33,1.33,0,0,1,.5,1.11,1.32,1.32,0,0,1-.28.85,1.41,1.41,0,0,1-.79.47,1.56,1.56,0,0,1,.89.52,1.45,1.45,0,0,1,.32.94,1.68,1.68,0,0,1-.52,1.31,2.68,2.68,0,0,1-3,0,1.67,1.67,0,0,1-.51-1.31,1.39,1.39,0,0,1,.32-.94A1.56,1.56,0,0,1,155.93,199.66Zm-.29-1.25a.91.91,0,0,0,.28.71,1.16,1.16,0,0,0,.8.25,1.14,1.14,0,0,0,.79-.25.91.91,0,0,0,.29-.71.88.88,0,0,0-.29-.7,1.14,1.14,0,0,0-.79-.26,1.17,1.17,0,0,0-.8.26A.87.87,0,0,0,155.64,198.41Z" transform="translate(0 0)"/><path id="DejaVuSans-30-33" data-name="DejaVuSans-30" d="M161.81,197.45a1,1,0,0,0-.92.6,5.38,5.38,0,0,0,0,3.6,1,1,0,0,0,1.84,0,5.55,5.55,0,0,0,0-3.6A1,1,0,0,0,161.81,197.45Zm0-.62a1.71,1.71,0,0,1,1.5.77,4.12,4.12,0,0,1,.51,2.25,4.07,4.07,0,0,1-.51,2.25,1.7,1.7,0,0,1-1.5.78,1.68,1.68,0,0,1-1.5-.78,4,4,0,0,1-.52-2.25,4,4,0,0,1,.52-2.25A1.69,1.69,0,0,1,161.81,196.83Z" transform="translate(0 0)"/></g><g id="text_32" data-name="text 32"><path id="DejaVuSans-39-3" data-name="DejaVuSans-39" d="M172.81,202.64v-.72a2.91,2.91,0,0,0,.6.22,2.46,2.46,0,0,0,.6.07,1.41,1.41,0,0,0,1.19-.52,2.79,2.79,0,0,0,.47-1.6,1.49,1.49,0,0,1-.57.52,1.65,1.65,0,0,1-.77.18,1.85,1.85,0,0,1-1.39-.53,2,2,0,0,1-.51-1.45,2,2,0,0,1,.53-1.44,1.91,1.91,0,0,1,1.42-.54,1.76,1.76,0,0,1,1.54.77,3.94,3.94,0,0,1,.54,2.25,3.44,3.44,0,0,1-.66,2.21,2.14,2.14,0,0,1-1.76.82,3.05,3.05,0,0,1-.6-.06A4.34,4.34,0,0,1,172.81,202.64Zm1.57-2.47a1.06,1.06,0,0,0,.84-.36,1.48,1.48,0,0,0,.31-1,1.45,1.45,0,0,0-.31-1,1,1,0,0,0-.84-.37,1,1,0,0,0-.84.37,1.45,1.45,0,0,0-.31,1,1.48,1.48,0,0,0,.31,1A1,1,0,0,0,174.38,200.17Z" transform="translate(0 0)"/><path id="DejaVuSans-30-34" data-name="DejaVuSans-30" d="M179.56,197.45a1,1,0,0,0-.91.6,5.38,5.38,0,0,0,0,3.6,1,1,0,0,0,1.83,0,5.38,5.38,0,0,0,0-3.6A1,1,0,0,0,179.56,197.45Zm0-.62a1.69,1.69,0,0,1,1.5.77,4,4,0,0,1,.52,2.25,4,4,0,0,1-.52,2.25,1.68,1.68,0,0,1-1.5.78,1.7,1.7,0,0,1-1.5-.78,4.07,4.07,0,0,1-.51-2.25,4.12,4.12,0,0,1,.51-2.25A1.71,1.71,0,0,1,179.56,196.83Z" transform="translate(0 0)"/></g><g id="text_33" data-name="text 33"><path id="DejaVuSans-31-6" data-name="DejaVuSans-31" d="M188.13,202.1h1.29v-4.45l-1.4.28v-.72l1.39-.28h.79v5.17h1.29v.66h-3.36Z" transform="translate(0 0)"/><path id="DejaVuSans-30-35" data-name="DejaVuSans-30" d="M194.77,197.45a1,1,0,0,0-.92.6,5.55,5.55,0,0,0,0,3.6,1,1,0,0,0,.92.6,1,1,0,0,0,.92-.6,5.38,5.38,0,0,0,0-3.6A1,1,0,0,0,194.77,197.45Zm0-.62a1.7,1.7,0,0,1,1.5.77,4.11,4.11,0,0,1,.52,2.25,4.07,4.07,0,0,1-.52,2.25,1.83,1.83,0,0,1-3,0,4.07,4.07,0,0,1-.51-2.25,4.12,4.12,0,0,1,.51-2.25A1.71,1.71,0,0,1,194.77,196.83Z" transform="translate(0 0)"/><path id="DejaVuSans-30-36" data-name="DejaVuSans-30" d="M199.86,197.45a1,1,0,0,0-.92.6,5.55,5.55,0,0,0,0,3.6,1,1,0,0,0,.92.6,1,1,0,0,0,.92-.6,5.38,5.38,0,0,0,0-3.6A1,1,0,0,0,199.86,197.45Zm0-.62a1.7,1.7,0,0,1,1.5.77,4.11,4.11,0,0,1,.52,2.25,4.07,4.07,0,0,1-.52,2.25,1.83,1.83,0,0,1-3,0,4.07,4.07,0,0,1-.51-2.25,4.12,4.12,0,0,1,.51-2.25A1.71,1.71,0,0,1,199.86,196.83Z" transform="translate(0 0)"/></g><g id="text_34" data-name="text 34"><path id="DejaVuSans-Oblique-41" d="M10,136.86l.74-1.38,9.89,3.17L20,139.92l-2.5-.86-2.18,4,1.62,2.51-.69,1.28Zm1.44.21L14.57,142l1.78-3.3Z" transform="translate(0 0)"/><path id="DejaVuSans-Oblique-6c" d="M13,130.5l.59-1.1,8.39,6.87-.6,1.1Z" transform="translate(0 0)"/><path id="DejaVuSans-32-4" data-name="DejaVuSans-32" d="M25.15,133.43l1.6-3,.71.39-2.15,4-.71-.39-.64-2c-.26-.86-.43-1.41-.52-1.64a4.62,4.62,0,0,0-.47-1,1.51,1.51,0,0,0-.54-.5,1.18,1.18,0,0,0-1-.09,1.47,1.47,0,0,0-.81.75,3.12,3.12,0,0,0-.32.92,5.34,5.34,0,0,0-.09,1.18l-.86-.47a8.5,8.5,0,0,1,.2-1.13,5.09,5.09,0,0,1,.34-.87,2.69,2.69,0,0,1,1.33-1.3,1.83,1.83,0,0,1,1.62.13,2.17,2.17,0,0,1,.66.54,4.38,4.38,0,0,1,.53,1c0,.11.16.46.34,1.05S24.82,132.37,25.15,133.43Z" transform="translate(0 0)"/><path id="DejaVuSans-Oblique-4f" d="M21,118.54a3.62,3.62,0,0,0-.47,2,4.67,4.67,0,0,0,.76,2.13A6.07,6.07,0,0,0,22.3,124a6.25,6.25,0,0,0,1.33,1,3.23,3.23,0,0,0,2.25.45,2.47,2.47,0,0,0,1.6-1.33,3.67,3.67,0,0,0,.45-2,4.51,4.51,0,0,0-.74-2.11,7.06,7.06,0,0,0-1.07-1.3,6.19,6.19,0,0,0-1.32-1,3.21,3.21,0,0,0-2.25-.43A2.39,2.39,0,0,0,21,118.54Zm7.48,6.07a3.89,3.89,0,0,1-2.38,2.07,4.23,4.23,0,0,1-3.2-.5,6.68,6.68,0,0,1-1.79-1.44,7.17,7.17,0,0,1-1.26-2,5.78,5.78,0,0,1-.48-2.45A5.22,5.22,0,0,1,20,118a3.9,3.9,0,0,1,2.37-2.07,4.09,4.09,0,0,1,3.16.47,6.67,6.67,0,0,1,1.85,1.46,7,7,0,0,1,1.25,2,5.84,5.84,0,0,1,.48,2.45A5.26,5.26,0,0,1,28.44,124.61Z" transform="translate(0 0)"/><path id="DejaVuSans-33-4" data-name="DejaVuSans-33" d="M31.83,114.62a1.87,1.87,0,0,1,1.06-.66,1.76,1.76,0,0,1,1.21.2,2,2,0,0,1,1.09,1.42,3.25,3.25,0,0,1-.47,2.09,4.17,4.17,0,0,1-.52.77,5.36,5.36,0,0,1-.7.74l-.82-.44a3.2,3.2,0,0,0,.73-.6,4.55,4.55,0,0,0,.58-.83,2.26,2.26,0,0,0,.34-1.39,1.21,1.21,0,0,0-.69-.91,1.19,1.19,0,0,0-1.08-.08,1.93,1.93,0,0,0-.9.91l-.39.74-.7-.38.41-.77a1.79,1.79,0,0,0,.27-1.09,1,1,0,0,0-.55-.72,1,1,0,0,0-.92-.06,1.8,1.8,0,0,0-.79.84,4.36,4.36,0,0,0-.33.79,6.25,6.25,0,0,0-.24,1l-.76-.41a9.54,9.54,0,0,1,.29-1,6.62,6.62,0,0,1,.36-.84,2.69,2.69,0,0,1,1.27-1.29,1.61,1.61,0,0,1,1.49.07,1.51,1.51,0,0,1,.72.78A1.76,1.76,0,0,1,31.83,114.62Z" transform="translate(0 0)"/><path id="DejaVuSans-20" d="M34.46,113" transform="translate(0 0)"/><path id="DejaVuSans-28" d="M29.27,100.25a13.7,13.7,0,0,0,2.1,2.67,11.14,11.14,0,0,0,5.49,3,14.19,14.19,0,0,0,3.39.29l-.52,1a14.3,14.3,0,0,1-3.51-.15,9.54,9.54,0,0,1-5.41-2.91,13.91,13.91,0,0,1-2.06-2.86Z" transform="translate(0 0)"/><path id="DejaVuSans-77" d="M32.7,100.15l.59-1.1,6,1.44-4.52-4.21.7-1.3,6,1.45L37,92.21l.6-1.1,5.79,5.39-.7,1.31-6.31-1.53,4.74,4.43L40.38,102Z" transform="translate(0 0)"/><path id="DejaVuSans-74" d="M37.15,87.3l1.91,1,1.23-2.28.86.47L39.92,88.8l3.66,2a1.89,1.89,0,0,0,1.18.34c.24-.06.48-.33.73-.79l.62-1.13.92.49-.61,1.14A2.84,2.84,0,0,1,45,92.33a2.7,2.7,0,0,1-2-.45l-3.66-2-.43.81L38,90.26l.43-.81-1.91-1Z" transform="translate(0 0)"/><path id="DejaVuSans-2e" d="M46.37,87.25,47.06,86l1.53.82-.69,1.27Z" transform="translate(0 0)"/><path id="DejaVuSans-20-2" data-name="DejaVuSans-20" d="M49.3,85.47" transform="translate(0 0)"/><path id="DejaVuSans-25" d="M52.29,70.46a1.08,1.08,0,0,0,0,1.07,3.12,3.12,0,0,0,2.47,1.33,1.08,1.08,0,0,0,.89-.58,1.06,1.06,0,0,0,0-1,2.44,2.44,0,0,0-1.07-1,2.52,2.52,0,0,0-1.4-.36A1,1,0,0,0,52.29,70.46Zm-.77-.41A2.13,2.13,0,0,1,53,68.9a3.54,3.54,0,0,1,3.57,1.92,2.14,2.14,0,0,1-.15,1.87,2.18,2.18,0,0,1-1.48,1.17,3.59,3.59,0,0,1-3.58-1.93A2.17,2.17,0,0,1,51.52,70.05Zm-7,4.24a1.08,1.08,0,0,0,0,1.06A3.08,3.08,0,0,0,47,76.68,1.1,1.1,0,0,0,47.87,75a2.54,2.54,0,0,0-1.08-1,2.45,2.45,0,0,0-1.39-.36A1.07,1.07,0,0,0,44.51,74.29Zm2.16-5.85.52-1,6.3,10.64-.52,1Zm-2.92,5.44a2.14,2.14,0,0,1,1.47-1.17,3,3,0,0,1,2.09.4,3,3,0,0,1,1.49,1.53,2.15,2.15,0,0,1-.16,1.87,2.12,2.12,0,0,1-1.47,1.16,3.59,3.59,0,0,1-3.58-1.93A2.09,2.09,0,0,1,43.75,73.88Z" transform="translate(0 0)"/><path id="DejaVuSans-29" d="M48.9,63.82l.52-1a14.3,14.3,0,0,1,3.51.15,9.63,9.63,0,0,1,5.42,2.92,14.48,14.48,0,0,1,2,2.85l-.52,1a13.63,13.63,0,0,0-2.1-2.67,11.3,11.3,0,0,0-2.54-1.88,10.94,10.94,0,0,0-3-1.08A13.58,13.58,0,0,0,48.9,63.82Z" transform="translate(0 0)"/></g><g id="text_35" data-name="text 35"><path id="DejaVuSans-4d" d="M176,63.92l1,1.81-4.88,5.59,7.36-1,1,1.81-9,4.84-.64-1.18,7.89-4.25-7.41,1-.66-1.22,4.92-5.64-7.89,4.25L167,68.76Z" transform="translate(0 0)"/><path id="DejaVuSans-67" d="M178.55,81.92a3.46,3.46,0,0,0,1.6-1.5,2,2,0,0,0-1.5-2.78,3.5,3.5,0,0,0-2.13.51,3.43,3.43,0,0,0-1.59,1.5,1.83,1.83,0,0,0,.08,1.74,1.86,1.86,0,0,0,1.41,1A3.5,3.5,0,0,0,178.55,81.92Zm-2,2.52a4.2,4.2,0,0,1-3,.61,3.4,3.4,0,0,1-2.1-1.88A8,8,0,0,1,171,82a6.65,6.65,0,0,1-.28-1.15l1.08-.58a4.62,4.62,0,0,0,.52,2.21,2.47,2.47,0,0,0,1.45,1.32,2.73,2.73,0,0,0,2-.38l.55-.3a2.59,2.59,0,0,1-1.37-.39,3.14,3.14,0,0,1-1-1.13,2.73,2.73,0,0,1-.13-2.5A4.34,4.34,0,0,1,175.9,77a4.42,4.42,0,0,1,2.92-.59,2.75,2.75,0,0,1,2,1.48,3,3,0,0,1,.4,1.44,2.67,2.67,0,0,1-.42,1.36l1-.55.6,1.11Z" transform="translate(0 0)"/><path id="DejaVuSans-4f" d="M187.08,86.47A2.86,2.86,0,0,0,185,84.9a5.73,5.73,0,0,0-5.38,2.89,2.94,2.94,0,0,0,.15,2.64A2.87,2.87,0,0,0,181.85,92a5.73,5.73,0,0,0,5.37-2.89A2.85,2.85,0,0,0,187.08,86.47Zm1-.53a4.35,4.35,0,0,1,.36,3.7,6.44,6.44,0,0,1-6.79,3.66,4.83,4.83,0,0,1-3.27-6,6.45,6.45,0,0,1,6.8-3.66A4.38,4.38,0,0,1,188.07,85.94Z" transform="translate(0 0)"/><path id="DejaVuSans-20-3" data-name="DejaVuSans-20" d="M181.53,95.71" transform="translate(0 0)"/><path id="DejaVuSans-28-2" data-name="DejaVuSans-28" d="M195.05,98.41a13.58,13.58,0,0,0-3.38.28,11,11,0,0,0-3,1.09,11.17,11.17,0,0,0-2.54,1.87,15.12,15.12,0,0,0-2.1,2.67l-.51-1a14.08,14.08,0,0,1,2.05-2.85A9.56,9.56,0,0,1,191,97.59a13.85,13.85,0,0,1,3.51-.14Z" transform="translate(0 0)"/><path id="DejaVuSans-77-2" data-name="DejaVuSans-77" d="M193.25,101.32l.6,1.11-4.52,4.22,6-1.46.7,1.31-4.51,4.22,6-1.46.59,1.11-7.69,1.87-.7-1.31,4.74-4.43L188.16,108l-.7-1.3Z" transform="translate(0 0)"/><path id="DejaVuSans-74-2" data-name="DejaVuSans-74" d="M201.53,112.11l-1.91,1,1.23,2.28-.86.47-1.23-2.28-3.66,2c-.55.29-.86.56-.94.79a1.5,1.5,0,0,0,.26,1l.61,1.13-.92.5-.62-1.13a2.89,2.89,0,0,1-.47-2c.14-.5.64-1,1.48-1.43l3.66-2-.44-.81.86-.46.44.81,1.91-1Z" transform="translate(0 0)"/><path id="DejaVuSans-2e-2" data-name="DejaVuSans-2e" d="M196.5,119.84l.69,1.27-1.53.83-.68-1.27Z" transform="translate(0 0)"/><path id="DejaVuSans-20-4" data-name="DejaVuSans-20" d="M196.38,123.27" transform="translate(0 0)"/><path id="DejaVuSans-25-2" data-name="DejaVuSans-25" d="M207.27,134a1.09,1.09,0,0,0-.89-.59,2.55,2.55,0,0,0-1.4.37,2.62,2.62,0,0,0-1.07,1,1.1,1.1,0,0,0,0,1.07,1.07,1.07,0,0,0,.89.57,2.57,2.57,0,0,0,1.39-.37,2.46,2.46,0,0,0,1.08-1A1.06,1.06,0,0,0,207.27,134Zm.76-.42a2.08,2.08,0,0,1,.15,1.87,3.54,3.54,0,0,1-3.57,1.92,2.35,2.35,0,0,1-1.63-3,3.54,3.54,0,0,1,3.58-1.92A2.15,2.15,0,0,1,208,133.6Zm.32-8.18a1,1,0,0,0-.89-.58,3.12,3.12,0,0,0-2.47,1.33,1.11,1.11,0,0,0,.88,1.64,2.48,2.48,0,0,0,1.41-.37,2.52,2.52,0,0,0,1.06-1A1.06,1.06,0,0,0,208.35,125.42Zm3.69,5,.52,1-12.35-.59-.52-1ZM209.12,125a2.14,2.14,0,0,1,.15,1.87,2.93,2.93,0,0,1-1.48,1.52,3,3,0,0,1-2.09.41,2.18,2.18,0,0,1-1.48-1.17,2.14,2.14,0,0,1-.15-1.87,3.56,3.56,0,0,1,3.57-1.92A2.16,2.16,0,0,1,209.12,125Z" transform="translate(0 0)"/><path id="DejaVuSans-29-2" data-name="DejaVuSans-29" d="M214.68,134.85l.52,1a14.48,14.48,0,0,1-2,2.85,10,10,0,0,1-2.46,1.9,9.68,9.68,0,0,1-3,1,13.38,13.38,0,0,1-3.51.15l-.52-1a14.2,14.2,0,0,0,3.39-.28,11.17,11.17,0,0,0,3-1.09,11.56,11.56,0,0,0,2.54-1.87A14.3,14.3,0,0,0,214.68,134.85Z" transform="translate(0 0)"/></g><g id="text_36" data-name="text 36"><path id="DejaVuSans-Oblique-53" d="M44.9,209.44l-.26,1.35a7.46,7.46,0,0,0-1.37-.56,5.23,5.23,0,0,0-1.32-.18,3.24,3.24,0,0,0-2,.54,1.69,1.69,0,0,0-.73,1.43,1,1,0,0,0,.27.76,3.79,3.79,0,0,0,1.39.56l.83.21a4.21,4.21,0,0,1,1.95.92,2.14,2.14,0,0,1,.54,1.56A3,3,0,0,1,43,218.54a5,5,0,0,1-3.2,1,8.28,8.28,0,0,1-1.63-.17,9.34,9.34,0,0,1-1.65-.48l.28-1.43a6.68,6.68,0,0,0,1.52.71,5.07,5.07,0,0,0,1.52.24,3.44,3.44,0,0,0,2.08-.57,1.79,1.79,0,0,0,.77-1.5,1.26,1.26,0,0,0-.31-.93,3,3,0,0,0-1.33-.58l-.83-.21a4.74,4.74,0,0,1-1.93-.85,1.73,1.73,0,0,1-.52-1.35A3.08,3.08,0,0,1,39,209.9a4.59,4.59,0,0,1,3.05-1,7.82,7.82,0,0,1,1.45.13A8.41,8.41,0,0,1,44.9,209.44Z" transform="translate(0 0)"/><path id="DejaVuSans-Oblique-69" d="M47.91,208.68h1.26l-.31,1.59H47.6Zm-.57,3h1.25l-1.49,7.66H45.84Z" transform="translate(0 0)"/><path id="DejaVuSans-Oblique-4f-2" data-name="DejaVuSans-Oblique-4f" d="M55.62,210.05a3.64,3.64,0,0,0-2,.55,4.58,4.58,0,0,0-1.51,1.67,6.3,6.3,0,0,0-.84,3.16,3.16,3.16,0,0,0,.68,2.19,2.4,2.4,0,0,0,1.92.77,3.67,3.67,0,0,0,2-.55,4.51,4.51,0,0,0,1.5-1.66,6.76,6.76,0,0,0,.64-1.55,6.45,6.45,0,0,0,.22-1.62,3.2,3.2,0,0,0-.69-2.19A2.4,2.4,0,0,0,55.62,210.05Zm-1.79,9.47a4,4,0,0,1-3-1.12,4.23,4.23,0,0,1-1.07-3.05,6.57,6.57,0,0,1,.42-2.26A6.82,6.82,0,0,1,51.38,211a5.81,5.81,0,0,1,1.93-1.58,5.26,5.26,0,0,1,2.35-.52,3.9,3.9,0,0,1,3,1.1,4.09,4.09,0,0,1,1.09,3,6.55,6.55,0,0,1-.42,2.31,6.79,6.79,0,0,1-1.17,2.06A5.94,5.94,0,0,1,56.18,219,5.37,5.37,0,0,1,53.83,219.52Z" transform="translate(0 0)"/><path id="DejaVuSans-32-5" data-name="DejaVuSans-32" d="M62.14,220.8h3.37v.81H61v-.81l1.5-1.53c.64-.64,1-1.05,1.2-1.24a4.61,4.61,0,0,0,.65-.88,1.59,1.59,0,0,0,.18-.71,1.18,1.18,0,0,0-.4-.93,1.5,1.5,0,0,0-1-.36,3.44,3.44,0,0,0-1,.16,6.2,6.2,0,0,0-1.08.48v-1a8.5,8.5,0,0,1,1.09-.35,4.09,4.09,0,0,1,.93-.12,2.66,2.66,0,0,1,1.77.56,1.83,1.83,0,0,1,.66,1.48,2.12,2.12,0,0,1-.16.83,3.76,3.76,0,0,1-.6.93c-.08.1-.34.36-.76.81Z" transform="translate(0 0)"/><path id="DejaVuSans-2b" d="M76,210.54v3.81h3.81v1.16H76v3.81H74.89v-3.81H71.08v-1.16h3.81v-3.81Z" transform="translate(0 0)"/><path id="DejaVuSans-Oblique-50" d="M86.42,209.11h3.2a3.09,3.09,0,0,1,2.12.65,2.41,2.41,0,0,1,.74,1.9,3.3,3.3,0,0,1-1.09,2.62,4.5,4.5,0,0,1-3,.93H86.62l-.8,4.11H84.44Zm1.17,1.13-.74,3.84h1.74a2.51,2.51,0,0,0,1.8-.6,2.27,2.27,0,0,0,.63-1.72,1.45,1.45,0,0,0-.43-1.12,1.7,1.7,0,0,0-1.2-.4Z" transform="translate(0 0)"/><path id="DejaVuSans-32-6" data-name="DejaVuSans-32" d="M94.38,220.8h3.38v.81H93.22v-.81l1.5-1.53c.63-.64,1-1.05,1.19-1.24a4.21,4.21,0,0,0,.65-.88,1.48,1.48,0,0,0,.19-.71,1.22,1.22,0,0,0-.4-.93,1.51,1.51,0,0,0-1-.36,3.33,3.33,0,0,0-1,.16,6.2,6.2,0,0,0-1.08.48v-1a8.5,8.5,0,0,1,1.09-.35,4.09,4.09,0,0,1,.93-.12,2.66,2.66,0,0,1,1.77.56,1.83,1.83,0,0,1,.66,1.48,2.12,2.12,0,0,1-.17.83,3.76,3.76,0,0,1-.6.93c-.08.1-.33.36-.76.81Z" transform="translate(0 0)"/><path id="DejaVuSans-Oblique-4f-3" data-name="DejaVuSans-Oblique-4f" d="M105.51,210.05a3.65,3.65,0,0,0-2,.55,4.58,4.58,0,0,0-1.51,1.67,6.85,6.85,0,0,0-.63,1.53,6.45,6.45,0,0,0-.21,1.63,3.21,3.21,0,0,0,.68,2.19,2.42,2.42,0,0,0,1.93.77,3.63,3.63,0,0,0,2-.55,4.62,4.62,0,0,0,1.51-1.66,7.2,7.2,0,0,0,.63-1.55,6,6,0,0,0,.22-1.62,3.2,3.2,0,0,0-.69-2.19A2.39,2.39,0,0,0,105.51,210.05Zm-1.8,9.47a3.93,3.93,0,0,1-2.95-1.12,4.19,4.19,0,0,1-1.08-3.05,6.57,6.57,0,0,1,.42-2.26,7,7,0,0,1,1.16-2.06,5.81,5.81,0,0,1,1.93-1.58,5.27,5.27,0,0,1,2.36-.52,3.91,3.91,0,0,1,3,1.1,4.13,4.13,0,0,1,1.08,3,6.78,6.78,0,0,1-.41,2.31,7,7,0,0,1-1.18,2.06,5.84,5.84,0,0,1-1.93,1.59A5.3,5.3,0,0,1,103.71,219.52Z" transform="translate(0 0)"/><path id="DejaVuSans-35-4" data-name="DejaVuSans-35" d="M111.2,214.47H115v.81h-2.91V217a3.2,3.2,0,0,1,.42-.1,2,2,0,0,1,.42,0,2.66,2.66,0,0,1,1.9.66,2.59,2.59,0,0,1,0,3.56,2.92,2.92,0,0,1-2,.64,5.79,5.79,0,0,1-.92-.07,7.39,7.39,0,0,1-1-.23v-1a3.24,3.24,0,0,0,.89.35,3.79,3.79,0,0,0,1,.12,1.89,1.89,0,0,0,1.31-.44,1.69,1.69,0,0,0,0-2.36,1.89,1.89,0,0,0-1.31-.44,3.46,3.46,0,0,0-.78.09,4.53,4.53,0,0,0-.78.27Z" transform="translate(0 0)"/><path id="DejaVuSans-20-5" data-name="DejaVuSans-20" d="M116.76,219.32" transform="translate(0 0)"/><path id="DejaVuSans-28-3" data-name="DejaVuSans-28" d="M125.55,208.69a13.7,13.7,0,0,0-1.36,3.11,11.08,11.08,0,0,0,0,6.25,13.76,13.76,0,0,0,1.36,3.11h-1.1a14.06,14.06,0,0,1-1.53-3.16,9.53,9.53,0,0,1,0-6.15,14,14,0,0,1,1.53-3.16Z" transform="translate(0 0)"/><path id="DejaVuSans-77-3" data-name="DejaVuSans-77" d="M127.26,211.66h1.26l1.57,6,1.56-6h1.49l1.57,6,1.56-6h1.26l-2,7.66h-1.48L132.4,213l-1.66,6.28h-1.48Z" transform="translate(0 0)"/><path id="DejaVuSans-74-3" data-name="DejaVuSans-74" d="M140.68,209.49v2.17h2.59v1h-2.59v4.15a1.9,1.9,0,0,0,.26,1.21,1.47,1.47,0,0,0,1,.26h1.29v1.06H142a2.83,2.83,0,0,1-2-.55,2.74,2.74,0,0,1-.55-2v-4.15h-.92v-1h.92v-2.17Z" transform="translate(0 0)"/><path id="DejaVuSans-2e-3" data-name="DejaVuSans-2e" d="M145.11,217.58h1.44v1.74h-1.44Z" transform="translate(0 0)"/><path id="DejaVuSans-20-6" data-name="DejaVuSans-20" d="M148.06,219.32" transform="translate(0 0)"/><path id="DejaVuSans-25-3" data-name="DejaVuSans-25" d="M162.69,214.83a1.07,1.07,0,0,0-.94.5,3.16,3.16,0,0,0,0,2.81,1.07,1.07,0,0,0,.94.51,1.05,1.05,0,0,0,.92-.51,2.56,2.56,0,0,0,.34-1.4,2.52,2.52,0,0,0-.34-1.4A1.05,1.05,0,0,0,162.69,214.83Zm0-.87a2.12,2.12,0,0,1,1.71.75,3.54,3.54,0,0,1,0,4.06,2.35,2.35,0,0,1-3.44,0,3.54,3.54,0,0,1,0-4.06A2.16,2.16,0,0,1,162.69,214Zm-7.06-4.17a1,1,0,0,0-.92.51,2.48,2.48,0,0,0-.34,1.4,2.58,2.58,0,0,0,.33,1.41,1.11,1.11,0,0,0,1.87,0,2.58,2.58,0,0,0,.33-1.41,2.44,2.44,0,0,0-.34-1.39A1.06,1.06,0,0,0,155.63,209.79Zm6.18-.86h1.09l-6.39,10.59h-1.09Zm-6.18,0a2.16,2.16,0,0,1,1.72.74,3,3,0,0,1,.65,2,3.08,3.08,0,0,1-.64,2,2.15,2.15,0,0,1-1.73.74,2.17,2.17,0,0,1-1.72-.74,3.07,3.07,0,0,1-.63-2,3,3,0,0,1,.64-2A2.12,2.12,0,0,1,155.63,208.93Z" transform="translate(0 0)"/><path id="DejaVuSans-29-3" data-name="DejaVuSans-29" d="M166.93,208.69H168a14.48,14.48,0,0,1,1.53,3.16,9.53,9.53,0,0,1,0,6.15,14.06,14.06,0,0,1-1.53,3.16h-1.1a13.76,13.76,0,0,0,1.36-3.11,11.08,11.08,0,0,0,0-6.25A14.15,14.15,0,0,0,166.93,208.69Z" transform="translate(0 0)"/></g></g><g id="Layer_2" data-name="Layer 2"><g id="rectangles"><rect class="cls-2" x="99.12" y="95.91" width="31.8" height="13.15" rx="6.57"/><rect class="cls-2" x="72.78" y="123.43" width="22.69" height="13.15" rx="6.57"/><rect class="cls-2" x="106.2" y="122.57" width="34.12" height="14.39" rx="6.57"/><rect class="cls-2" x="148.34" y="151.25" width="24.15" height="13.15" rx="6.57"/><rect class="cls-2" x="89.01" y="145.74" width="31.8" height="13.15" rx="6.57"/><rect class="cls-2" x="59.83" y="155.14" width="30.11" height="13.15" rx="6.57"/><rect class="cls-2" x="120.68" y="168.29" width="24.15" height="13.15" rx="6.57"/></g><g id="Lables"><path class="cls-12" d="M101.31,105.91V97.32h1.14v3.52h4.46V97.32h1.14v8.59h-1.14v-4h-4.46v4Z" transform="translate(0 0)"/><path class="cls-12" d="M109.4,103.33v-1.06h3.24v1.06Z" transform="translate(0 0)"/><path class="cls-12" d="M113.9,105.91V97.32h1.71l2,6.08.41,1.27c.09-.31.25-.77.45-1.38l2.06-6h1.53v8.59H121V98.72l-2.49,7.19h-1L115,98.59v7.32Z" transform="translate(0 0)"/><path class="cls-12" d="M123.6,106.42l1,.15a.93.93,0,0,0,.36.69,1.72,1.72,0,0,0,1.07.3,1.85,1.85,0,0,0,1.13-.3,1.36,1.36,0,0,0,.54-.82,7.26,7.26,0,0,0,.08-1.35,2.21,2.21,0,0,1-1.73.82,2.34,2.34,0,0,1-2-.93,3.57,3.57,0,0,1-.71-2.22,4,4,0,0,1,.33-1.64,2.44,2.44,0,0,1,2.37-1.58,2.26,2.26,0,0,1,1.82.89v-.75h1v5.38a5,5,0,0,1-.3,2.06,2.18,2.18,0,0,1-.94,1,3.25,3.25,0,0,1-1.57.35,3,3,0,0,1-1.8-.5A1.71,1.71,0,0,1,123.6,106.42Zm.88-3.74a2.74,2.74,0,0,0,.48,1.79,1.57,1.57,0,0,0,1.22.56,1.53,1.53,0,0,0,1.22-.56,2.59,2.59,0,0,0,.49-1.75,2.62,2.62,0,0,0-.5-1.73,1.6,1.6,0,0,0-1.22-.58,1.54,1.54,0,0,0-1.2.58A2.51,2.51,0,0,0,124.48,102.68Z" transform="translate(0 0)"/><path class="cls-12" d="M109.39,133.25v-8.59h1.71l2,6.08c.19.57.33,1,.41,1.27.1-.31.25-.77.46-1.37l2-6h1.53v8.59h-1.09v-7.19l-2.5,7.19h-1l-2.49-7.31v7.31Z" transform="translate(0 0)"/><path class="cls-12" d="M118.87,130.67v-1.06h3.24v1.06Z" transform="translate(0 0)"/><path class="cls-12" d="M123.38,133.25v-8.59h1.71l2,6.08c.19.57.33,1,.41,1.27.1-.31.25-.77.46-1.37l2.06-6h1.53v8.59h-1.1v-7.19l-2.5,7.19h-1l-2.49-7.31v7.31Z" transform="translate(0 0)"/><path class="cls-12" d="M133.08,133.76l1,.16a1,1,0,0,0,.35.69,1.82,1.82,0,0,0,1.08.29,1.92,1.92,0,0,0,1.13-.29,1.53,1.53,0,0,0,.54-.82,6.89,6.89,0,0,0,.07-1.36,2.14,2.14,0,0,1-1.72.82,2.36,2.36,0,0,1-2-.93,3.59,3.59,0,0,1-.7-2.22,4.21,4.21,0,0,1,.32-1.64,2.59,2.59,0,0,1,.94-1.16,2.48,2.48,0,0,1,1.44-.41,2.2,2.2,0,0,1,1.81.89V127h1v5.37a5,5,0,0,1-.3,2.06,2.13,2.13,0,0,1-.94,1,3.18,3.18,0,0,1-1.58.35,3,3,0,0,1-1.8-.5A1.71,1.71,0,0,1,133.08,133.76ZM134,130a2.71,2.71,0,0,0,.48,1.78,1.54,1.54,0,0,0,1.22.57,1.58,1.58,0,0,0,1.22-.56,2.62,2.62,0,0,0,.49-1.76,2.52,2.52,0,0,0-.51-1.72,1.54,1.54,0,0,0-1.22-.58,1.51,1.51,0,0,0-1.19.57A2.54,2.54,0,0,0,134,130Z" transform="translate(0 0)"/><path class="cls-13" d="M64.12,165.85v-8.59h1.14v3.52h4.46v-3.52h1.14v8.59H69.72v-4H65.26v4Z" transform="translate(0 0)"/><path class="cls-13" d="M72.21,163.27v-1.06h3.24v1.06Z" transform="translate(0 0)"/><path class="cls-13" d="M75.8,165.85l3.3-8.59h1.23l3.51,8.59H82.55l-1-2.61H78L77,165.85Zm2.48-3.53h2.91l-.89-2.38c-.28-.72-.48-1.32-.61-1.78a12.14,12.14,0,0,1-.46,1.64Z" transform="translate(0 0)"/><path class="cls-13" d="M84.59,165.85v-8.59h1.06v8.59Z" transform="translate(0 0)"/><path class="cls-13" d="M94.32,156.33v-8.59H96l2,6.08c.19.57.33,1,.41,1.27.1-.31.25-.77.46-1.37l2.06-6h1.52v8.59h-1.09v-7.19l-2.5,7.19h-1L95.41,149v7.31Z" transform="translate(0 0)"/><path class="cls-13" d="M103.8,153.75v-1.06H107v1.06Z" transform="translate(0 0)"/><path class="cls-13" d="M107.4,156.33l3.3-8.59h1.22l3.52,8.59h-1.29l-1-2.6h-3.59l-.94,2.6Zm2.48-3.53h2.91l-.89-2.38c-.28-.72-.48-1.31-.61-1.78a10.88,10.88,0,0,1-.47,1.64Z" transform="translate(0 0)"/><path class="cls-13" d="M116.19,156.33v-8.59h1.06v8.59Z" transform="translate(0 0)"/><line class="cls-14" x1="93.56" y1="133.03" x2="120.96" y2="144.61"/><line class="cls-15" x1="93.56" y1="133.03" x2="116.88" y2="142.89"/><polygon class="cls-14" points="115.41 143.84 120.96 144.61 116.54 141.17 115.41 143.84"/><path class="cls-14" d="M75.32,134.47v-8.59h1.17L81,132.63v-6.75h1.09v8.59H80.92l-4.51-6.75v6.75Z" transform="translate(0 0)"/><path class="cls-14" d="M83.45,131.89v-1.06h3.24v1.06Z" transform="translate(0 0)"/><path class="cls-14" d="M88,134.47v-8.59h3.24a8.46,8.46,0,0,1,1.31.08,2.53,2.53,0,0,1,1.06.41,2,2,0,0,1,.69.82,2.72,2.72,0,0,1,.26,1.18,2.6,2.6,0,0,1-.7,1.85,3.31,3.31,0,0,1-2.52.76h-2.2v3.49Zm1.14-4.5h2.22a2.4,2.4,0,0,0,1.57-.41,1.51,1.51,0,0,0,.46-1.16,1.54,1.54,0,0,0-.27-.92,1.31,1.31,0,0,0-.72-.51,5.05,5.05,0,0,0-1.06-.07h-2.2Z" transform="translate(0 0)"/><path d="M150.91,161.89V153.3h1.14v3.53h4.46V153.3h1.14v8.59h-1.14v-4h-4.46v4Z" transform="translate(0 0)"/><path d="M159,159.31v-1.06h3.24v1.06Z" transform="translate(0 0)"/><path d="M163.54,161.89V153.3h3.24a8.32,8.32,0,0,1,1.3.08,2.67,2.67,0,0,1,1.06.4,2.1,2.1,0,0,1,.69.83,2.57,2.57,0,0,1,.26,1.17,2.68,2.68,0,0,1-.69,1.86,3.39,3.39,0,0,1-2.52.76h-2.21v3.49Zm1.13-4.51h2.22a2.33,2.33,0,0,0,1.57-.41,1.45,1.45,0,0,0,.46-1.15,1.54,1.54,0,0,0-.27-.92,1.24,1.24,0,0,0-.72-.51,4.79,4.79,0,0,0-1.06-.08h-2.2Z" transform="translate(0 0)"/><line class="cls-16" x1="133.21" y1="168.6" x2="134.41" y2="155.23"/><line class="cls-17" x1="133.21" y1="168.6" x2="134.02" y2="159.64"/><polygon class="cls-16" points="135.38 160.76 134.41 155.23 132.48 160.5 135.38 160.76"/><path class="cls-16" d="M124.63,178.73v-8.59h1.14v7.58H130v1Z" transform="translate(0 0)"/><path class="cls-16" d="M130.81,176.16V175.1h3.24v1.06Z" transform="translate(0 0)"/><path class="cls-16" d="M135.35,178.73v-8.59h3.24a7.18,7.18,0,0,1,1.31.09,2.58,2.58,0,0,1,1.06.4,2.12,2.12,0,0,1,.69.83,2.78,2.78,0,0,1-.44,3,3.34,3.34,0,0,1-2.52.76h-2.2v3.49Zm1.14-4.5h2.22a2.37,2.37,0,0,0,1.56-.41,1.47,1.47,0,0,0,.46-1.16,1.56,1.56,0,0,0-.27-.92,1.29,1.29,0,0,0-.72-.51,5,5,0,0,0-1.06-.07h-2.19Z" transform="translate(0 0)"/></g></g></svg>