<?xml version="1.0" encoding="utf-8" standalone="no"?>
<!DOCTYPE svg PUBLIC "-//W3C//DTD SVG 1.1//EN"
  "http://www.w3.org/Graphics/SVG/1.1/DTD/svg11.dtd">
<svg xmlns:xlink="http://www.w3.org/1999/xlink" width="254.991909pt" height="259.968282pt" viewBox="0 0 254.991909 259.968282" xmlns="http://www.w3.org/2000/svg" version="1.1">
 <metadata>
  <rdf:RDF xmlns:dc="http://purl.org/dc/elements/1.1/" xmlns:cc="http://creativecommons.org/ns#" xmlns:rdf="http://www.w3.org/1999/02/22-rdf-syntax-ns#">
   <cc:Work>
    <dc:type rdf:resource="http://purl.org/dc/dcmitype/StillImage"/>
    <dc:date>2023-06-02T18:48:52.772305</dc:date>
    <dc:format>image/svg+xml</dc:format>
    <dc:creator>
     <cc:Agent>
      <dc:title>Matplotlib v3.7.1, https://matplotlib.org/</dc:title>
     </cc:Agent>
    </dc:creator>
   </cc:Work>
  </rdf:RDF>
 </metadata>
 <defs>
  <style type="text/css">*{stroke-linejoin: round; stroke-linecap: butt}</style>
 </defs>
 <g id="figure_1">
  <g id="patch_1">
   <path d="M 0 259.968282 
L 254.991909 259.968282 
L 254.991909 0 
L 0 0 
z
" style="fill: #ffffff"/>
  </g>
  <g id="axes_1">
   <g id="patch_2">
    <path d="M 227.261932 211.580887 
L 125.807386 23.272323 
L 24.352841 211.580887 
z
" clip-path="url(#p2957f5b05c)" style="fill: #ffffff; opacity: 0.7; stroke: #ffffff; stroke-linejoin: miter"/>
   </g>
   <g id="PathCollection_1">
    <defs>
     <path id="m38fada5a99" d="M 0 3 
C 0.795609 3 1.55874 2.683901 2.12132 2.12132 
C 2.683901 1.55874 3 0.795609 3 0 
C 3 -0.795609 2.683901 -1.55874 2.12132 -2.12132 
C 1.55874 -2.683901 0.795609 -3 0 -3 
C -0.795609 -3 -1.55874 -2.683901 -2.12132 -2.12132 
C -2.683901 -1.55874 -3 -0.795609 -3 0 
C -3 0.795609 -2.683901 1.55874 -2.12132 2.12132 
C -1.55874 2.683901 -0.795609 3 0 3 
z
" style="stroke: #145092"/>
    </defs>
    <g clip-path="url(#p2957f5b05c)">
     <use xlink:href="#m38fada5a99" x="101.458295" y="192.75003" style="fill: #145092; stroke: #145092"/>
     <use xlink:href="#m38fada5a99" x="132.909205" y="183.334602" style="fill: #145092; stroke: #145092"/>
    </g>
   </g>
   <g id="PathCollection_2">
    <g clip-path="url(#p2957f5b05c)">
     <use xlink:href="#m38fada5a99" x="148.127386" y="124.958947" style="fill: #145092; stroke: #145092"/>
     <use xlink:href="#m38fada5a99" x="159.287386" y="156.971403" style="fill: #145092; stroke: #145092"/>
    </g>
   </g>
   <g id="PathCollection_3">
    <defs>
     <path id="m612d0bf381" d="M 0 3 
C 0.795609 3 1.55874 2.683901 2.12132 2.12132 
C 2.683901 1.55874 3 0.795609 3 0 
C 3 -0.795609 2.683901 -1.55874 2.12132 -2.12132 
C 1.55874 -2.683901 0.795609 -3 0 -3 
C -0.795609 -3 -1.55874 -2.683901 -2.12132 -2.12132 
C -2.683901 -1.55874 -3 -0.795609 -3 0 
C -3 0.795609 -2.683901 1.55874 -2.12132 2.12132 
C -1.55874 2.683901 -0.795609 3 0 3 
z
" style="stroke: #808080"/>
    </defs>
    <g clip-path="url(#p2957f5b05c)">
     <use xlink:href="#m612d0bf381" x="192.767386" y="192.75003" style="fill: #808080; stroke: #808080"/>
     <use xlink:href="#m612d0bf381" x="174.505568" y="185.217688" style="fill: #808080; stroke: #808080"/>
    </g>
   </g>
   <g id="PathCollection_4">
    <g clip-path="url(#p2957f5b05c)">
     <use xlink:href="#m612d0bf381" x="195.811023" y="194.633116" style="fill: #808080; stroke: #808080"/>
     <use xlink:href="#m612d0bf381" x="178.56375" y="188.983859" style="fill: #808080; stroke: #808080"/>
    </g>
   </g>
   <g id="PathCollection_5">
    <g clip-path="url(#p2957f5b05c)">
     <use xlink:href="#m38fada5a99" x="141.025568" y="168.269917" style="fill: #145092; stroke: #145092"/>
    </g>
   </g>
   <g id="PathCollection_6">
    <g clip-path="url(#p2957f5b05c)">
     <use xlink:href="#m38fada5a99" x="163.345568" y="179.568431" style="fill: #145092; stroke: #145092"/>
    </g>
   </g>
   <g id="line2d_1">
    <path d="M 24.352841 211.580887 
L 227.261932 211.580887 
" clip-path="url(#p2957f5b05c)" style="fill: none; stroke: #000000; stroke-width: 1.5; stroke-linecap: square"/>
   </g>
   <g id="line2d_2">
    <path d="M 125.807386 23.272323 
L 24.352841 211.580887 
" clip-path="url(#p2957f5b05c)" style="fill: none; stroke: #000000; stroke-width: 1.5; stroke-linecap: square"/>
   </g>
   <g id="line2d_3">
    <path d="M 125.807386 23.272323 
L 227.261932 211.580887 
" clip-path="url(#p2957f5b05c)" style="fill: none; stroke: #000000; stroke-width: 1.5; stroke-linecap: square"/>
   </g>
   <g id="line2d_4">
    <path d="M 24.352841 211.580887 
L 227.261932 211.580887 
" clip-path="url(#p2957f5b05c)" style="fill: none; stroke-dasharray: 0.5,0.825; stroke-dashoffset: 0; stroke: #0000ff; stroke-width: 0.5"/>
   </g>
   <g id="line2d_5">
    <path d="M 34.498295 192.75003 
L 217.116477 192.75003 
" clip-path="url(#p2957f5b05c)" style="fill: none; stroke-dasharray: 0.5,0.825; stroke-dashoffset: 0; stroke: #0000ff; stroke-width: 0.5"/>
   </g>
   <g id="line2d_6">
    <path d="M 44.64375 173.919174 
L 206.971023 173.919174 
" clip-path="url(#p2957f5b05c)" style="fill: none; stroke-dasharray: 0.5,0.825; stroke-dashoffset: 0; stroke: #0000ff; stroke-width: 0.5"/>
   </g>
   <g id="line2d_7">
    <path d="M 54.789205 155.088318 
L 196.825568 155.088318 
" clip-path="url(#p2957f5b05c)" style="fill: none; stroke-dasharray: 0.5,0.825; stroke-dashoffset: 0; stroke: #0000ff; stroke-width: 0.5"/>
   </g>
   <g id="line2d_8">
    <path d="M 64.934659 136.257461 
L 186.680114 136.257461 
" clip-path="url(#p2957f5b05c)" style="fill: none; stroke-dasharray: 0.5,0.825; stroke-dashoffset: 0; stroke: #0000ff; stroke-width: 0.5"/>
   </g>
   <g id="line2d_9">
    <path d="M 75.080114 117.426605 
L 176.534659 117.426605 
" clip-path="url(#p2957f5b05c)" style="fill: none; stroke-dasharray: 0.5,0.825; stroke-dashoffset: 0; stroke: #0000ff; stroke-width: 0.5"/>
   </g>
   <g id="line2d_10">
    <path d="M 85.225568 98.595748 
L 166.389205 98.595748 
" clip-path="url(#p2957f5b05c)" style="fill: none; stroke-dasharray: 0.5,0.825; stroke-dashoffset: 0; stroke: #0000ff; stroke-width: 0.5"/>
   </g>
   <g id="line2d_11">
    <path d="M 95.371023 79.764892 
L 156.24375 79.764892 
" clip-path="url(#p2957f5b05c)" style="fill: none; stroke-dasharray: 0.5,0.825; stroke-dashoffset: 0; stroke: #0000ff; stroke-width: 0.5"/>
   </g>
   <g id="line2d_12">
    <path d="M 105.516477 60.934036 
L 146.098295 60.934036 
" clip-path="url(#p2957f5b05c)" style="fill: none; stroke-dasharray: 0.5,0.825; stroke-dashoffset: 0; stroke: #0000ff; stroke-width: 0.5"/>
   </g>
   <g id="line2d_13">
    <path d="M 115.661932 42.103179 
L 135.952841 42.103179 
" clip-path="url(#p2957f5b05c)" style="fill: none; stroke-dasharray: 0.5,0.825; stroke-dashoffset: 0; stroke: #0000ff; stroke-width: 0.5"/>
   </g>
   <g id="line2d_14">
    <path d="M 125.807386 23.272323 
L 24.352841 211.580887 
" clip-path="url(#p2957f5b05c)" style="fill: none; stroke-dasharray: 0.5,0.825; stroke-dashoffset: 0; stroke: #0000ff; stroke-width: 0.5"/>
   </g>
   <g id="line2d_15">
    <path d="M 125.807386 23.272323 
L 227.261932 211.580887 
" clip-path="url(#p2957f5b05c)" style="fill: none; stroke-dasharray: 0.5,0.825; stroke-dashoffset: 0; stroke: #0000ff; stroke-width: 0.5"/>
   </g>
   <g id="line2d_16">
    <path d="M 135.952841 42.103179 
L 44.64375 211.580887 
" clip-path="url(#p2957f5b05c)" style="fill: none; stroke-dasharray: 0.5,0.825; stroke-dashoffset: 0; stroke: #0000ff; stroke-width: 0.5"/>
   </g>
   <g id="line2d_17">
    <path d="M 115.661932 42.103179 
L 206.971023 211.580887 
" clip-path="url(#p2957f5b05c)" style="fill: none; stroke-dasharray: 0.5,0.825; stroke-dashoffset: 0; stroke: #0000ff; stroke-width: 0.5"/>
   </g>
   <g id="line2d_18">
    <path d="M 146.098295 60.934036 
L 64.934659 211.580887 
" clip-path="url(#p2957f5b05c)" style="fill: none; stroke-dasharray: 0.5,0.825; stroke-dashoffset: 0; stroke: #0000ff; stroke-width: 0.5"/>
   </g>
   <g id="line2d_19">
    <path d="M 105.516477 60.934036 
L 186.680114 211.580887 
" clip-path="url(#p2957f5b05c)" style="fill: none; stroke-dasharray: 0.5,0.825; stroke-dashoffset: 0; stroke: #0000ff; stroke-width: 0.5"/>
   </g>
   <g id="line2d_20">
    <path d="M 156.24375 79.764892 
L 85.225568 211.580887 
" clip-path="url(#p2957f5b05c)" style="fill: none; stroke-dasharray: 0.5,0.825; stroke-dashoffset: 0; stroke: #0000ff; stroke-width: 0.5"/>
   </g>
   <g id="line2d_21">
    <path d="M 95.371023 79.764892 
L 166.389205 211.580887 
" clip-path="url(#p2957f5b05c)" style="fill: none; stroke-dasharray: 0.5,0.825; stroke-dashoffset: 0; stroke: #0000ff; stroke-width: 0.5"/>
   </g>
   <g id="line2d_22">
    <path d="M 166.389205 98.595748 
L 105.516477 211.580887 
" clip-path="url(#p2957f5b05c)" style="fill: none; stroke-dasharray: 0.5,0.825; stroke-dashoffset: 0; stroke: #0000ff; stroke-width: 0.5"/>
   </g>
   <g id="line2d_23">
    <path d="M 85.225568 98.595748 
L 146.098295 211.580887 
" clip-path="url(#p2957f5b05c)" style="fill: none; stroke-dasharray: 0.5,0.825; stroke-dashoffset: 0; stroke: #0000ff; stroke-width: 0.5"/>
   </g>
   <g id="line2d_24">
    <path d="M 176.534659 117.426605 
L 125.807386 211.580887 
" clip-path="url(#p2957f5b05c)" style="fill: none; stroke-dasharray: 0.5,0.825; stroke-dashoffset: 0; stroke: #0000ff; stroke-width: 0.5"/>
   </g>
   <g id="line2d_25">
    <path d="M 75.080114 117.426605 
L 125.807386 211.580887 
" clip-path="url(#p2957f5b05c)" style="fill: none; stroke-dasharray: 0.5,0.825; stroke-dashoffset: 0; stroke: #0000ff; stroke-width: 0.5"/>
   </g>
   <g id="line2d_26">
    <path d="M 186.680114 136.257461 
L 146.098295 211.580887 
" clip-path="url(#p2957f5b05c)" style="fill: none; stroke-dasharray: 0.5,0.825; stroke-dashoffset: 0; stroke: #0000ff; stroke-width: 0.5"/>
   </g>
   <g id="line2d_27">
    <path d="M 64.934659 136.257461 
L 105.516477 211.580887 
" clip-path="url(#p2957f5b05c)" style="fill: none; stroke-dasharray: 0.5,0.825; stroke-dashoffset: 0; stroke: #0000ff; stroke-width: 0.5"/>
   </g>
   <g id="line2d_28">
    <path d="M 196.825568 155.088318 
L 166.389205 211.580887 
" clip-path="url(#p2957f5b05c)" style="fill: none; stroke-dasharray: 0.5,0.825; stroke-dashoffset: 0; stroke: #0000ff; stroke-width: 0.5"/>
   </g>
   <g id="line2d_29">
    <path d="M 54.789205 155.088318 
L 85.225568 211.580887 
" clip-path="url(#p2957f5b05c)" style="fill: none; stroke-dasharray: 0.5,0.825; stroke-dashoffset: 0; stroke: #0000ff; stroke-width: 0.5"/>
   </g>
   <g id="line2d_30">
    <path d="M 206.971023 173.919174 
L 186.680114 211.580887 
" clip-path="url(#p2957f5b05c)" style="fill: none; stroke-dasharray: 0.5,0.825; stroke-dashoffset: 0; stroke: #0000ff; stroke-width: 0.5"/>
   </g>
   <g id="line2d_31">
    <path d="M 44.64375 173.919174 
L 64.934659 211.580887 
" clip-path="url(#p2957f5b05c)" style="fill: none; stroke-dasharray: 0.5,0.825; stroke-dashoffset: 0; stroke: #0000ff; stroke-width: 0.5"/>
   </g>
   <g id="line2d_32">
    <path d="M 217.116477 192.75003 
L 206.971023 211.580887 
" clip-path="url(#p2957f5b05c)" style="fill: none; stroke-dasharray: 0.5,0.825; stroke-dashoffset: 0; stroke: #0000ff; stroke-width: 0.5"/>
   </g>
   <g id="line2d_33">
    <path d="M 34.498295 192.75003 
L 44.64375 211.580887 
" clip-path="url(#p2957f5b05c)" style="fill: none; stroke-dasharray: 0.5,0.825; stroke-dashoffset: 0; stroke: #0000ff; stroke-width: 0.5"/>
   </g>
   <g id="line2d_34">
    <path d="M 227.261932 211.580887 
L 227.261932 211.580887 
" clip-path="url(#p2957f5b05c)" style="fill: none; stroke-dasharray: 0.5,0.825; stroke-dashoffset: 0; stroke: #0000ff; stroke-width: 0.5"/>
   </g>
   <g id="line2d_35">
    <path d="M 24.352841 211.580887 
L 24.352841 211.580887 
" clip-path="url(#p2957f5b05c)" style="fill: none; stroke-dasharray: 0.5,0.825; stroke-dashoffset: 0; stroke: #0000ff; stroke-width: 0.5"/>
   </g>
   <g id="line2d_36">
    <path d="M 227.261932 211.580887 
L 233.349205 211.580887 
" clip-path="url(#p2957f5b05c)" style="fill: none; stroke: #000000; stroke-linecap: square"/>
   </g>
   <g id="line2d_37">
    <path d="M 217.116477 192.75003 
L 223.20375 192.75003 
" clip-path="url(#p2957f5b05c)" style="fill: none; stroke: #000000; stroke-linecap: square"/>
   </g>
   <g id="line2d_38">
    <path d="M 206.971023 173.919174 
L 213.058295 173.919174 
" clip-path="url(#p2957f5b05c)" style="fill: none; stroke: #000000; stroke-linecap: square"/>
   </g>
   <g id="line2d_39">
    <path d="M 196.825568 155.088318 
L 202.912841 155.088318 
" clip-path="url(#p2957f5b05c)" style="fill: none; stroke: #000000; stroke-linecap: square"/>
   </g>
   <g id="line2d_40">
    <path d="M 186.680114 136.257461 
L 192.767386 136.257461 
" clip-path="url(#p2957f5b05c)" style="fill: none; stroke: #000000; stroke-linecap: square"/>
   </g>
   <g id="line2d_41">
    <path d="M 176.534659 117.426605 
L 182.621932 117.426605 
" clip-path="url(#p2957f5b05c)" style="fill: none; stroke: #000000; stroke-linecap: square"/>
   </g>
   <g id="line2d_42">
    <path d="M 166.389205 98.595748 
L 172.476477 98.595748 
" clip-path="url(#p2957f5b05c)" style="fill: none; stroke: #000000; stroke-linecap: square"/>
   </g>
   <g id="line2d_43">
    <path d="M 156.24375 79.764892 
L 162.331023 79.764892 
" clip-path="url(#p2957f5b05c)" style="fill: none; stroke: #000000; stroke-linecap: square"/>
   </g>
   <g id="line2d_44">
    <path d="M 146.098295 60.934036 
L 152.185568 60.934036 
" clip-path="url(#p2957f5b05c)" style="fill: none; stroke: #000000; stroke-linecap: square"/>
   </g>
   <g id="line2d_45">
    <path d="M 135.952841 42.103179 
L 142.040114 42.103179 
" clip-path="url(#p2957f5b05c)" style="fill: none; stroke: #000000; stroke-linecap: square"/>
   </g>
   <g id="line2d_46">
    <path d="M 125.807386 23.272323 
L 131.894659 23.272323 
" clip-path="url(#p2957f5b05c)" style="fill: none; stroke: #000000; stroke-linecap: square"/>
   </g>
   <g id="line2d_47">
    <path d="M 24.352841 211.580887 
L 21.309205 205.93163 
" clip-path="url(#p2957f5b05c)" style="fill: none; stroke: #000000; stroke-linecap: square"/>
   </g>
   <g id="line2d_48">
    <path d="M 34.498295 192.75003 
L 31.454659 187.100773 
" clip-path="url(#p2957f5b05c)" style="fill: none; stroke: #000000; stroke-linecap: square"/>
   </g>
   <g id="line2d_49">
    <path d="M 44.64375 173.919174 
L 41.600114 168.269917 
" clip-path="url(#p2957f5b05c)" style="fill: none; stroke: #000000; stroke-linecap: square"/>
   </g>
   <g id="line2d_50">
    <path d="M 54.789205 155.088318 
L 51.745568 149.439061 
" clip-path="url(#p2957f5b05c)" style="fill: none; stroke: #000000; stroke-linecap: square"/>
   </g>
   <g id="line2d_51">
    <path d="M 64.934659 136.257461 
L 61.891023 130.608204 
" clip-path="url(#p2957f5b05c)" style="fill: none; stroke: #000000; stroke-linecap: square"/>
   </g>
   <g id="line2d_52">
    <path d="M 75.080114 117.426605 
L 72.036477 111.777348 
" clip-path="url(#p2957f5b05c)" style="fill: none; stroke: #000000; stroke-linecap: square"/>
   </g>
   <g id="line2d_53">
    <path d="M 85.225568 98.595748 
L 82.181932 92.946491 
" clip-path="url(#p2957f5b05c)" style="fill: none; stroke: #000000; stroke-linecap: square"/>
   </g>
   <g id="line2d_54">
    <path d="M 95.371023 79.764892 
L 92.327386 74.115635 
" clip-path="url(#p2957f5b05c)" style="fill: none; stroke: #000000; stroke-linecap: square"/>
   </g>
   <g id="line2d_55">
    <path d="M 105.516477 60.934036 
L 102.472841 55.284779 
" clip-path="url(#p2957f5b05c)" style="fill: none; stroke: #000000; stroke-linecap: square"/>
   </g>
   <g id="line2d_56">
    <path d="M 115.661932 42.103179 
L 112.618295 36.453922 
" clip-path="url(#p2957f5b05c)" style="fill: none; stroke: #000000; stroke-linecap: square"/>
   </g>
   <g id="line2d_57">
    <path d="M 125.807386 23.272323 
L 122.76375 17.623066 
" clip-path="url(#p2957f5b05c)" style="fill: none; stroke: #000000; stroke-linecap: square"/>
   </g>
   <g id="line2d_58">
    <path d="M 24.352841 211.580887 
L 21.309205 217.230144 
" clip-path="url(#p2957f5b05c)" style="fill: none; stroke: #000000; stroke-linecap: square"/>
   </g>
   <g id="line2d_59">
    <path d="M 44.64375 211.580887 
L 41.600114 217.230144 
" clip-path="url(#p2957f5b05c)" style="fill: none; stroke: #000000; stroke-linecap: square"/>
   </g>
   <g id="line2d_60">
    <path d="M 64.934659 211.580887 
L 61.891023 217.230144 
" clip-path="url(#p2957f5b05c)" style="fill: none; stroke: #000000; stroke-linecap: square"/>
   </g>
   <g id="line2d_61">
    <path d="M 85.225568 211.580887 
L 82.181932 217.230144 
" clip-path="url(#p2957f5b05c)" style="fill: none; stroke: #000000; stroke-linecap: square"/>
   </g>
   <g id="line2d_62">
    <path d="M 105.516477 211.580887 
L 102.472841 217.230144 
" clip-path="url(#p2957f5b05c)" style="fill: none; stroke: #000000; stroke-linecap: square"/>
   </g>
   <g id="line2d_63">
    <path d="M 125.807386 211.580887 
L 122.76375 217.230144 
" clip-path="url(#p2957f5b05c)" style="fill: none; stroke: #000000; stroke-linecap: square"/>
   </g>
   <g id="line2d_64">
    <path d="M 146.098295 211.580887 
L 143.054659 217.230144 
" clip-path="url(#p2957f5b05c)" style="fill: none; stroke: #000000; stroke-linecap: square"/>
   </g>
   <g id="line2d_65">
    <path d="M 166.389205 211.580887 
L 163.345568 217.230144 
" clip-path="url(#p2957f5b05c)" style="fill: none; stroke: #000000; stroke-linecap: square"/>
   </g>
   <g id="line2d_66">
    <path d="M 186.680114 211.580887 
L 183.636477 217.230144 
" clip-path="url(#p2957f5b05c)" style="fill: none; stroke: #000000; stroke-linecap: square"/>
   </g>
   <g id="line2d_67">
    <path d="M 206.971023 211.580887 
L 203.927386 217.230144 
" clip-path="url(#p2957f5b05c)" style="fill: none; stroke: #000000; stroke-linecap: square"/>
   </g>
   <g id="line2d_68">
    <path d="M 227.261932 211.580887 
L 224.218295 217.230144 
" clip-path="url(#p2957f5b05c)" style="fill: none; stroke: #000000; stroke-linecap: square"/>
   </g>
   <g id="text_1">
    <!-- 0 -->
    <g transform="translate(241.429409 214.405515) scale(0.1 -0.1)">
     <defs>
      <path id="DejaVuSans-30" d="M 2034 4250 
Q 1547 4250 1301 3770 
Q 1056 3291 1056 2328 
Q 1056 1369 1301 889 
Q 1547 409 2034 409 
Q 2525 409 2770 889 
Q 3016 1369 3016 2328 
Q 3016 3291 2770 3770 
Q 2525 4250 2034 4250 
z
M 2034 4750 
Q 2819 4750 3233 4129 
Q 3647 3509 3647 2328 
Q 3647 1150 3233 529 
Q 2819 -91 2034 -91 
Q 1250 -91 836 529 
Q 422 1150 422 2328 
Q 422 3509 836 4129 
Q 1250 4750 2034 4750 
z
" transform="scale(0.015625)"/>
     </defs>
     <use xlink:href="#DejaVuSans-30"/>
    </g>
   </g>
   <g id="text_2">
    <!-- 10 -->
    <g transform="translate(228.102705 195.574659) scale(0.1 -0.1)">
     <defs>
      <path id="DejaVuSans-31" d="M 794 531 
L 1825 531 
L 1825 4091 
L 703 3866 
L 703 4441 
L 1819 4666 
L 2450 4666 
L 2450 531 
L 3481 531 
L 3481 0 
L 794 0 
L 794 531 
z
" transform="scale(0.015625)"/>
     </defs>
     <use xlink:href="#DejaVuSans-31"/>
     <use xlink:href="#DejaVuSans-30" x="63.623047"/>
    </g>
   </g>
   <g id="text_3">
    <!-- 20 -->
    <g transform="translate(217.95725 176.743802) scale(0.1 -0.1)">
     <defs>
      <path id="DejaVuSans-32" d="M 1228 531 
L 3431 531 
L 3431 0 
L 469 0 
L 469 531 
Q 828 903 1448 1529 
Q 2069 2156 2228 2338 
Q 2531 2678 2651 2914 
Q 2772 3150 2772 3378 
Q 2772 3750 2511 3984 
Q 2250 4219 1831 4219 
Q 1534 4219 1204 4116 
Q 875 4013 500 3803 
L 500 4441 
Q 881 4594 1212 4672 
Q 1544 4750 1819 4750 
Q 2544 4750 2975 4387 
Q 3406 4025 3406 3419 
Q 3406 3131 3298 2873 
Q 3191 2616 2906 2266 
Q 2828 2175 2409 1742 
Q 1991 1309 1228 531 
z
" transform="scale(0.015625)"/>
     </defs>
     <use xlink:href="#DejaVuSans-32"/>
     <use xlink:href="#DejaVuSans-30" x="63.623047"/>
    </g>
   </g>
   <g id="text_4">
    <!-- 30 -->
    <g transform="translate(207.811795 157.912946) scale(0.1 -0.1)">
     <defs>
      <path id="DejaVuSans-33" d="M 2597 2516 
Q 3050 2419 3304 2112 
Q 3559 1806 3559 1356 
Q 3559 666 3084 287 
Q 2609 -91 1734 -91 
Q 1441 -91 1130 -33 
Q 819 25 488 141 
L 488 750 
Q 750 597 1062 519 
Q 1375 441 1716 441 
Q 2309 441 2620 675 
Q 2931 909 2931 1356 
Q 2931 1769 2642 2001 
Q 2353 2234 1838 2234 
L 1294 2234 
L 1294 2753 
L 1863 2753 
Q 2328 2753 2575 2939 
Q 2822 3125 2822 3475 
Q 2822 3834 2567 4026 
Q 2313 4219 1838 4219 
Q 1578 4219 1281 4162 
Q 984 4106 628 3988 
L 628 4550 
Q 988 4650 1302 4700 
Q 1616 4750 1894 4750 
Q 2613 4750 3031 4423 
Q 3450 4097 3450 3541 
Q 3450 3153 3228 2886 
Q 3006 2619 2597 2516 
z
" transform="scale(0.015625)"/>
     </defs>
     <use xlink:href="#DejaVuSans-33"/>
     <use xlink:href="#DejaVuSans-30" x="63.623047"/>
    </g>
   </g>
   <g id="text_5">
    <!-- 40 -->
    <g transform="translate(197.666341 139.08209) scale(0.1 -0.1)">
     <defs>
      <path id="DejaVuSans-34" d="M 2419 4116 
L 825 1625 
L 2419 1625 
L 2419 4116 
z
M 2253 4666 
L 3047 4666 
L 3047 1625 
L 3713 1625 
L 3713 1100 
L 3047 1100 
L 3047 0 
L 2419 0 
L 2419 1100 
L 313 1100 
L 313 1709 
L 2253 4666 
z
" transform="scale(0.015625)"/>
     </defs>
     <use xlink:href="#DejaVuSans-34"/>
     <use xlink:href="#DejaVuSans-30" x="63.623047"/>
    </g>
   </g>
   <g id="text_6">
    <!-- 50 -->
    <g transform="translate(187.520886 120.251233) scale(0.1 -0.1)">
     <defs>
      <path id="DejaVuSans-35" d="M 691 4666 
L 3169 4666 
L 3169 4134 
L 1269 4134 
L 1269 2991 
Q 1406 3038 1543 3061 
Q 1681 3084 1819 3084 
Q 2600 3084 3056 2656 
Q 3513 2228 3513 1497 
Q 3513 744 3044 326 
Q 2575 -91 1722 -91 
Q 1428 -91 1123 -41 
Q 819 9 494 109 
L 494 744 
Q 775 591 1075 516 
Q 1375 441 1709 441 
Q 2250 441 2565 725 
Q 2881 1009 2881 1497 
Q 2881 1984 2565 2268 
Q 2250 2553 1709 2553 
Q 1456 2553 1204 2497 
Q 953 2441 691 2322 
L 691 4666 
z
" transform="scale(0.015625)"/>
     </defs>
     <use xlink:href="#DejaVuSans-35"/>
     <use xlink:href="#DejaVuSans-30" x="63.623047"/>
    </g>
   </g>
   <g id="text_7">
    <!-- 60 -->
    <g transform="translate(177.375432 101.420377) scale(0.1 -0.1)">
     <defs>
      <path id="DejaVuSans-36" d="M 2113 2584 
Q 1688 2584 1439 2293 
Q 1191 2003 1191 1497 
Q 1191 994 1439 701 
Q 1688 409 2113 409 
Q 2538 409 2786 701 
Q 3034 994 3034 1497 
Q 3034 2003 2786 2293 
Q 2538 2584 2113 2584 
z
M 3366 4563 
L 3366 3988 
Q 3128 4100 2886 4159 
Q 2644 4219 2406 4219 
Q 1781 4219 1451 3797 
Q 1122 3375 1075 2522 
Q 1259 2794 1537 2939 
Q 1816 3084 2150 3084 
Q 2853 3084 3261 2657 
Q 3669 2231 3669 1497 
Q 3669 778 3244 343 
Q 2819 -91 2113 -91 
Q 1303 -91 875 529 
Q 447 1150 447 2328 
Q 447 3434 972 4092 
Q 1497 4750 2381 4750 
Q 2619 4750 2861 4703 
Q 3103 4656 3366 4563 
z
" transform="scale(0.015625)"/>
     </defs>
     <use xlink:href="#DejaVuSans-36"/>
     <use xlink:href="#DejaVuSans-30" x="63.623047"/>
    </g>
   </g>
   <g id="text_8">
    <!-- 70 -->
    <g transform="translate(167.229977 82.58952) scale(0.1 -0.1)">
     <defs>
      <path id="DejaVuSans-37" d="M 525 4666 
L 3525 4666 
L 3525 4397 
L 1831 0 
L 1172 0 
L 2766 4134 
L 525 4134 
L 525 4666 
z
" transform="scale(0.015625)"/>
     </defs>
     <use xlink:href="#DejaVuSans-37"/>
     <use xlink:href="#DejaVuSans-30" x="63.623047"/>
    </g>
   </g>
   <g id="text_9">
    <!-- 80 -->
    <g transform="translate(157.084523 63.758664) scale(0.1 -0.1)">
     <defs>
      <path id="DejaVuSans-38" d="M 2034 2216 
Q 1584 2216 1326 1975 
Q 1069 1734 1069 1313 
Q 1069 891 1326 650 
Q 1584 409 2034 409 
Q 2484 409 2743 651 
Q 3003 894 3003 1313 
Q 3003 1734 2745 1975 
Q 2488 2216 2034 2216 
z
M 1403 2484 
Q 997 2584 770 2862 
Q 544 3141 544 3541 
Q 544 4100 942 4425 
Q 1341 4750 2034 4750 
Q 2731 4750 3128 4425 
Q 3525 4100 3525 3541 
Q 3525 3141 3298 2862 
Q 3072 2584 2669 2484 
Q 3125 2378 3379 2068 
Q 3634 1759 3634 1313 
Q 3634 634 3220 271 
Q 2806 -91 2034 -91 
Q 1263 -91 848 271 
Q 434 634 434 1313 
Q 434 1759 690 2068 
Q 947 2378 1403 2484 
z
M 1172 3481 
Q 1172 3119 1398 2916 
Q 1625 2713 2034 2713 
Q 2441 2713 2670 2916 
Q 2900 3119 2900 3481 
Q 2900 3844 2670 4047 
Q 2441 4250 2034 4250 
Q 1625 4250 1398 4047 
Q 1172 3844 1172 3481 
z
" transform="scale(0.015625)"/>
     </defs>
     <use xlink:href="#DejaVuSans-38"/>
     <use xlink:href="#DejaVuSans-30" x="63.623047"/>
    </g>
   </g>
   <g id="text_10">
    <!-- 90 -->
    <g transform="translate(146.939068 44.927808) scale(0.1 -0.1)">
     <defs>
      <path id="DejaVuSans-39" d="M 703 97 
L 703 672 
Q 941 559 1184 500 
Q 1428 441 1663 441 
Q 2288 441 2617 861 
Q 2947 1281 2994 2138 
Q 2813 1869 2534 1725 
Q 2256 1581 1919 1581 
Q 1219 1581 811 2004 
Q 403 2428 403 3163 
Q 403 3881 828 4315 
Q 1253 4750 1959 4750 
Q 2769 4750 3195 4129 
Q 3622 3509 3622 2328 
Q 3622 1225 3098 567 
Q 2575 -91 1691 -91 
Q 1453 -91 1209 -44 
Q 966 3 703 97 
z
M 1959 2075 
Q 2384 2075 2632 2365 
Q 2881 2656 2881 3163 
Q 2881 3666 2632 3958 
Q 2384 4250 1959 4250 
Q 1534 4250 1286 3958 
Q 1038 3666 1038 3163 
Q 1038 2656 1286 2365 
Q 1534 2075 1959 2075 
z
" transform="scale(0.015625)"/>
     </defs>
     <use xlink:href="#DejaVuSans-39"/>
     <use xlink:href="#DejaVuSans-30" x="63.623047"/>
    </g>
   </g>
   <g id="text_11">
    <!-- 100 -->
    <g transform="translate(133.612364 26.096951) scale(0.1 -0.1)">
     <use xlink:href="#DejaVuSans-31"/>
     <use xlink:href="#DejaVuSans-30" x="63.623047"/>
     <use xlink:href="#DejaVuSans-30" x="127.246094"/>
    </g>
   </g>
   <g id="text_12">
    <!-- 100 -->
    <g transform="translate(7.2 203.107001) scale(0.1 -0.1)">
     <use xlink:href="#DejaVuSans-31"/>
     <use xlink:href="#DejaVuSans-30" x="63.623047"/>
     <use xlink:href="#DejaVuSans-30" x="127.246094"/>
    </g>
   </g>
   <g id="text_13">
    <!-- 90 -->
    <g transform="translate(20.526705 184.276145) scale(0.1 -0.1)">
     <use xlink:href="#DejaVuSans-39"/>
     <use xlink:href="#DejaVuSans-30" x="63.623047"/>
    </g>
   </g>
   <g id="text_14">
    <!-- 80 -->
    <g transform="translate(30.672159 165.445289) scale(0.1 -0.1)">
     <use xlink:href="#DejaVuSans-38"/>
     <use xlink:href="#DejaVuSans-30" x="63.623047"/>
    </g>
   </g>
   <g id="text_15">
    <!-- 70 -->
    <g transform="translate(40.817614 146.614432) scale(0.1 -0.1)">
     <use xlink:href="#DejaVuSans-37"/>
     <use xlink:href="#DejaVuSans-30" x="63.623047"/>
    </g>
   </g>
   <g id="text_16">
    <!-- 60 -->
    <g transform="translate(50.963068 127.783576) scale(0.1 -0.1)">
     <use xlink:href="#DejaVuSans-36"/>
     <use xlink:href="#DejaVuSans-30" x="63.623047"/>
    </g>
   </g>
   <g id="text_17">
    <!-- 50 -->
    <g transform="translate(61.108523 108.952719) scale(0.1 -0.1)">
     <use xlink:href="#DejaVuSans-35"/>
     <use xlink:href="#DejaVuSans-30" x="63.623047"/>
    </g>
   </g>
   <g id="text_18">
    <!-- 40 -->
    <g transform="translate(71.253977 90.121863) scale(0.1 -0.1)">
     <use xlink:href="#DejaVuSans-34"/>
     <use xlink:href="#DejaVuSans-30" x="63.623047"/>
    </g>
   </g>
   <g id="text_19">
    <!-- 30 -->
    <g transform="translate(81.399432 71.291007) scale(0.1 -0.1)">
     <use xlink:href="#DejaVuSans-33"/>
     <use xlink:href="#DejaVuSans-30" x="63.623047"/>
    </g>
   </g>
   <g id="text_20">
    <!-- 20 -->
    <g transform="translate(91.544886 52.46015) scale(0.1 -0.1)">
     <use xlink:href="#DejaVuSans-32"/>
     <use xlink:href="#DejaVuSans-30" x="63.623047"/>
    </g>
   </g>
   <g id="text_21">
    <!-- 10 -->
    <g transform="translate(101.690341 33.629294) scale(0.1 -0.1)">
     <use xlink:href="#DejaVuSans-31"/>
     <use xlink:href="#DejaVuSans-30" x="63.623047"/>
    </g>
   </g>
   <g id="text_22">
    <!-- 0 -->
    <g transform="translate(115.017045 14.798438) scale(0.1 -0.1)">
     <use xlink:href="#DejaVuSans-30"/>
    </g>
   </g>
   <g id="text_23">
    <!-- 0 -->
    <g transform="translate(13.5625 231.353286) scale(0.1 -0.1)">
     <use xlink:href="#DejaVuSans-30"/>
    </g>
   </g>
   <g id="text_24">
    <!-- 10 -->
    <g transform="translate(30.672159 231.353286) scale(0.1 -0.1)">
     <use xlink:href="#DejaVuSans-31"/>
     <use xlink:href="#DejaVuSans-30" x="63.623047"/>
    </g>
   </g>
   <g id="text_25">
    <!-- 20 -->
    <g transform="translate(50.963068 231.353286) scale(0.1 -0.1)">
     <use xlink:href="#DejaVuSans-32"/>
     <use xlink:href="#DejaVuSans-30" x="63.623047"/>
    </g>
   </g>
   <g id="text_26">
    <!-- 30 -->
    <g transform="translate(71.253977 231.353286) scale(0.1 -0.1)">
     <use xlink:href="#DejaVuSans-33"/>
     <use xlink:href="#DejaVuSans-30" x="63.623047"/>
    </g>
   </g>
   <g id="text_27">
    <!-- 40 -->
    <g transform="translate(91.544886 231.353286) scale(0.1 -0.1)">
     <use xlink:href="#DejaVuSans-34"/>
     <use xlink:href="#DejaVuSans-30" x="63.623047"/>
    </g>
   </g>
   <g id="text_28">
    <!-- 50 -->
    <g transform="translate(111.835795 231.353286) scale(0.1 -0.1)">
     <use xlink:href="#DejaVuSans-35"/>
     <use xlink:href="#DejaVuSans-30" x="63.623047"/>
    </g>
   </g>
   <g id="text_29">
    <!-- 60 -->
    <g transform="translate(132.126705 231.353286) scale(0.1 -0.1)">
     <use xlink:href="#DejaVuSans-36"/>
     <use xlink:href="#DejaVuSans-30" x="63.623047"/>
    </g>
   </g>
   <g id="text_30">
    <!-- 70 -->
    <g transform="translate(152.417614 231.353286) scale(0.1 -0.1)">
     <use xlink:href="#DejaVuSans-37"/>
     <use xlink:href="#DejaVuSans-30" x="63.623047"/>
    </g>
   </g>
   <g id="text_31">
    <!-- 80 -->
    <g transform="translate(172.708523 231.353286) scale(0.1 -0.1)">
     <use xlink:href="#DejaVuSans-38"/>
     <use xlink:href="#DejaVuSans-30" x="63.623047"/>
    </g>
   </g>
   <g id="text_32">
    <!-- 90 -->
    <g transform="translate(192.999432 231.353286) scale(0.1 -0.1)">
     <use xlink:href="#DejaVuSans-39"/>
     <use xlink:href="#DejaVuSans-30" x="63.623047"/>
    </g>
   </g>
   <g id="text_33">
    <!-- 100 -->
    <g transform="translate(210.109091 231.353286) scale(0.1 -0.1)">
     <use xlink:href="#DejaVuSans-31"/>
     <use xlink:href="#DejaVuSans-30" x="63.623047"/>
     <use xlink:href="#DejaVuSans-30" x="127.246094"/>
    </g>
   </g>
   <g id="text_34">
    <!-- $Al_2O_3$ (wt. %) -->
    <g transform="translate(22.237222 155.149128) rotate(-61.685653) scale(0.12 -0.12)">
     <defs>
      <path id="DejaVuSans-Oblique-41" d="M 2356 4666 
L 3072 4666 
L 3938 0 
L 3278 0 
L 3084 1197 
L 984 1197 
L 325 0 
L -341 0 
L 2356 4666 
z
M 2584 4044 
L 1275 1722 
L 2988 1722 
L 2584 4044 
z
" transform="scale(0.015625)"/>
      <path id="DejaVuSans-Oblique-6c" d="M 1172 4863 
L 1747 4863 
L 800 0 
L 225 0 
L 1172 4863 
z
" transform="scale(0.015625)"/>
      <path id="DejaVuSans-Oblique-4f" d="M 2919 4238 
Q 2400 4238 2003 3986 
Q 1606 3734 1313 3219 
Q 1125 2891 1026 2522 
Q 928 2153 928 1778 
Q 928 1128 1239 775 
Q 1550 422 2119 422 
Q 2631 422 3032 676 
Q 3434 931 3719 1434 
Q 3909 1772 4009 2142 
Q 4109 2513 4109 2881 
Q 4109 3528 3796 3883 
Q 3484 4238 2919 4238 
z
M 2100 -91 
Q 1241 -91 748 418 
Q 256 928 256 1813 
Q 256 2319 448 2847 
Q 641 3375 978 3788 
Q 1375 4272 1862 4511 
Q 2350 4750 2938 4750 
Q 3794 4750 4287 4245 
Q 4781 3741 4781 2869 
Q 4781 2331 4593 1812 
Q 4406 1294 4056 872 
Q 3656 384 3173 146 
Q 2691 -91 2100 -91 
z
" transform="scale(0.015625)"/>
      <path id="DejaVuSans-20" transform="scale(0.015625)"/>
      <path id="DejaVuSans-28" d="M 1984 4856 
Q 1566 4138 1362 3434 
Q 1159 2731 1159 2009 
Q 1159 1288 1364 580 
Q 1569 -128 1984 -844 
L 1484 -844 
Q 1016 -109 783 600 
Q 550 1309 550 2009 
Q 550 2706 781 3412 
Q 1013 4119 1484 4856 
L 1984 4856 
z
" transform="scale(0.015625)"/>
      <path id="DejaVuSans-77" d="M 269 3500 
L 844 3500 
L 1563 769 
L 2278 3500 
L 2956 3500 
L 3675 769 
L 4391 3500 
L 4966 3500 
L 4050 0 
L 3372 0 
L 2619 2869 
L 1863 0 
L 1184 0 
L 269 3500 
z
" transform="scale(0.015625)"/>
      <path id="DejaVuSans-74" d="M 1172 4494 
L 1172 3500 
L 2356 3500 
L 2356 3053 
L 1172 3053 
L 1172 1153 
Q 1172 725 1289 603 
Q 1406 481 1766 481 
L 2356 481 
L 2356 0 
L 1766 0 
Q 1100 0 847 248 
Q 594 497 594 1153 
L 594 3053 
L 172 3053 
L 172 3500 
L 594 3500 
L 594 4494 
L 1172 4494 
z
" transform="scale(0.015625)"/>
      <path id="DejaVuSans-2e" d="M 684 794 
L 1344 794 
L 1344 0 
L 684 0 
L 684 794 
z
" transform="scale(0.015625)"/>
      <path id="DejaVuSans-25" d="M 4653 2053 
Q 4381 2053 4226 1822 
Q 4072 1591 4072 1178 
Q 4072 772 4226 539 
Q 4381 306 4653 306 
Q 4919 306 5073 539 
Q 5228 772 5228 1178 
Q 5228 1588 5073 1820 
Q 4919 2053 4653 2053 
z
M 4653 2450 
Q 5147 2450 5437 2106 
Q 5728 1763 5728 1178 
Q 5728 594 5436 251 
Q 5144 -91 4653 -91 
Q 4153 -91 3862 251 
Q 3572 594 3572 1178 
Q 3572 1766 3864 2108 
Q 4156 2450 4653 2450 
z
M 1428 4353 
Q 1159 4353 1004 4120 
Q 850 3888 850 3481 
Q 850 3069 1003 2837 
Q 1156 2606 1428 2606 
Q 1700 2606 1854 2837 
Q 2009 3069 2009 3481 
Q 2009 3884 1853 4118 
Q 1697 4353 1428 4353 
z
M 4250 4750 
L 4750 4750 
L 1831 -91 
L 1331 -91 
L 4250 4750 
z
M 1428 4750 
Q 1922 4750 2215 4408 
Q 2509 4066 2509 3481 
Q 2509 2891 2217 2550 
Q 1925 2209 1428 2209 
Q 931 2209 642 2551 
Q 353 2894 353 3481 
Q 353 4063 643 4406 
Q 934 4750 1428 4750 
z
" transform="scale(0.015625)"/>
      <path id="DejaVuSans-29" d="M 513 4856 
L 1013 4856 
Q 1481 4119 1714 3412 
Q 1947 2706 1947 2009 
Q 1947 1309 1714 600 
Q 1481 -109 1013 -844 
L 513 -844 
Q 928 -128 1133 580 
Q 1338 1288 1338 2009 
Q 1338 2731 1133 3434 
Q 928 4138 513 4856 
z
" transform="scale(0.015625)"/>
     </defs>
     <use xlink:href="#DejaVuSans-Oblique-41" transform="translate(0 0.015625)"/>
     <use xlink:href="#DejaVuSans-Oblique-6c" transform="translate(68.408203 0.015625)"/>
     <use xlink:href="#DejaVuSans-32" transform="translate(96.191406 -16.390625) scale(0.7)"/>
     <use xlink:href="#DejaVuSans-Oblique-4f" transform="translate(143.461914 0.015625)"/>
     <use xlink:href="#DejaVuSans-33" transform="translate(222.172852 -16.390625) scale(0.7)"/>
     <use xlink:href="#DejaVuSans-20" transform="translate(269.443359 0.015625)"/>
     <use xlink:href="#DejaVuSans-28" transform="translate(301.230469 0.015625)"/>
     <use xlink:href="#DejaVuSans-77" transform="translate(340.244141 0.015625)"/>
     <use xlink:href="#DejaVuSans-74" transform="translate(422.03125 0.015625)"/>
     <use xlink:href="#DejaVuSans-2e" transform="translate(461.240234 0.015625)"/>
     <use xlink:href="#DejaVuSans-20" transform="translate(493.027344 0.015625)"/>
     <use xlink:href="#DejaVuSans-25" transform="translate(524.814453 0.015625)"/>
     <use xlink:href="#DejaVuSans-29" transform="translate(619.833984 0.015625)"/>
    </g>
   </g>
   <g id="text_35">
    <!-- MgO (wt. %) -->
    <g transform="translate(193.040023 87.703479) rotate(-298.314347) scale(0.12 -0.12)">
     <defs>
      <path id="DejaVuSans-4d" d="M 628 4666 
L 1569 4666 
L 2759 1491 
L 3956 4666 
L 4897 4666 
L 4897 0 
L 4281 0 
L 4281 4097 
L 3078 897 
L 2444 897 
L 1241 4097 
L 1241 0 
L 628 0 
L 628 4666 
z
" transform="scale(0.015625)"/>
      <path id="DejaVuSans-67" d="M 2906 1791 
Q 2906 2416 2648 2759 
Q 2391 3103 1925 3103 
Q 1463 3103 1205 2759 
Q 947 2416 947 1791 
Q 947 1169 1205 825 
Q 1463 481 1925 481 
Q 2391 481 2648 825 
Q 2906 1169 2906 1791 
z
M 3481 434 
Q 3481 -459 3084 -895 
Q 2688 -1331 1869 -1331 
Q 1566 -1331 1297 -1286 
Q 1028 -1241 775 -1147 
L 775 -588 
Q 1028 -725 1275 -790 
Q 1522 -856 1778 -856 
Q 2344 -856 2625 -561 
Q 2906 -266 2906 331 
L 2906 616 
Q 2728 306 2450 153 
Q 2172 0 1784 0 
Q 1141 0 747 490 
Q 353 981 353 1791 
Q 353 2603 747 3093 
Q 1141 3584 1784 3584 
Q 2172 3584 2450 3431 
Q 2728 3278 2906 2969 
L 2906 3500 
L 3481 3500 
L 3481 434 
z
" transform="scale(0.015625)"/>
      <path id="DejaVuSans-4f" d="M 2522 4238 
Q 1834 4238 1429 3725 
Q 1025 3213 1025 2328 
Q 1025 1447 1429 934 
Q 1834 422 2522 422 
Q 3209 422 3611 934 
Q 4013 1447 4013 2328 
Q 4013 3213 3611 3725 
Q 3209 4238 2522 4238 
z
M 2522 4750 
Q 3503 4750 4090 4092 
Q 4678 3434 4678 2328 
Q 4678 1225 4090 567 
Q 3503 -91 2522 -91 
Q 1538 -91 948 565 
Q 359 1222 359 2328 
Q 359 3434 948 4092 
Q 1538 4750 2522 4750 
z
" transform="scale(0.015625)"/>
     </defs>
     <use xlink:href="#DejaVuSans-4d"/>
     <use xlink:href="#DejaVuSans-67" x="86.279297"/>
     <use xlink:href="#DejaVuSans-4f" x="149.755859"/>
     <use xlink:href="#DejaVuSans-20" x="228.466797"/>
     <use xlink:href="#DejaVuSans-28" x="260.253906"/>
     <use xlink:href="#DejaVuSans-77" x="299.267578"/>
     <use xlink:href="#DejaVuSans-74" x="381.054688"/>
     <use xlink:href="#DejaVuSans-2e" x="420.263672"/>
     <use xlink:href="#DejaVuSans-20" x="452.050781"/>
     <use xlink:href="#DejaVuSans-25" x="483.837891"/>
     <use xlink:href="#DejaVuSans-29" x="578.857422"/>
    </g>
   </g>
   <g id="text_36">
    <!-- $SiO_2 + P_2O_5$ (wt. %) -->
    <g transform="translate(57.983386 250.272657) scale(0.12 -0.12)">
     <defs>
      <path id="DejaVuSans-Oblique-53" d="M 3859 4513 
L 3738 3897 
Q 3422 4066 3111 4152 
Q 2800 4238 2509 4238 
Q 1944 4238 1609 3991 
Q 1275 3744 1275 3334 
Q 1275 3109 1398 2989 
Q 1522 2869 2034 2731 
L 2413 2638 
Q 3053 2472 3303 2217 
Q 3553 1963 3553 1503 
Q 3553 797 2998 353 
Q 2444 -91 1538 -91 
Q 1166 -91 791 -17 
Q 416 56 38 206 
L 166 856 
Q 513 641 861 531 
Q 1209 422 1556 422 
Q 2147 422 2503 684 
Q 2859 947 2859 1369 
Q 2859 1650 2717 1795 
Q 2575 1941 2106 2059 
L 1728 2156 
Q 1081 2325 845 2545 
Q 609 2766 609 3163 
Q 609 3859 1145 4304 
Q 1681 4750 2541 4750 
Q 2875 4750 3203 4690 
Q 3531 4631 3859 4513 
z
" transform="scale(0.015625)"/>
      <path id="DejaVuSans-Oblique-69" d="M 1172 4863 
L 1747 4863 
L 1606 4134 
L 1031 4134 
L 1172 4863 
z
M 909 3500 
L 1484 3500 
L 800 0 
L 225 0 
L 909 3500 
z
" transform="scale(0.015625)"/>
      <path id="DejaVuSans-2b" d="M 2944 4013 
L 2944 2272 
L 4684 2272 
L 4684 1741 
L 2944 1741 
L 2944 0 
L 2419 0 
L 2419 1741 
L 678 1741 
L 678 2272 
L 2419 2272 
L 2419 4013 
L 2944 4013 
z
" transform="scale(0.015625)"/>
      <path id="DejaVuSans-Oblique-50" d="M 1081 4666 
L 2541 4666 
Q 3178 4666 3512 4369 
Q 3847 4072 3847 3500 
Q 3847 2731 3353 2303 
Q 2859 1875 1966 1875 
L 1172 1875 
L 806 0 
L 172 0 
L 1081 4666 
z
M 1613 4147 
L 1275 2394 
L 2069 2394 
Q 2606 2394 2893 2669 
Q 3181 2944 3181 3456 
Q 3181 3784 2986 3965 
Q 2791 4147 2438 4147 
L 1613 4147 
z
" transform="scale(0.015625)"/>
     </defs>
     <use xlink:href="#DejaVuSans-Oblique-53" transform="translate(0 0.015625)"/>
     <use xlink:href="#DejaVuSans-Oblique-69" transform="translate(63.476562 0.015625)"/>
     <use xlink:href="#DejaVuSans-Oblique-4f" transform="translate(91.259766 0.015625)"/>
     <use xlink:href="#DejaVuSans-32" transform="translate(169.970703 -16.390625) scale(0.7)"/>
     <use xlink:href="#DejaVuSans-2b" transform="translate(236.723633 0.015625)"/>
     <use xlink:href="#DejaVuSans-Oblique-50" transform="translate(339.995117 0.015625)"/>
     <use xlink:href="#DejaVuSans-32" transform="translate(400.297852 -16.390625) scale(0.7)"/>
     <use xlink:href="#DejaVuSans-Oblique-4f" transform="translate(447.568359 0.015625)"/>
     <use xlink:href="#DejaVuSans-35" transform="translate(526.279297 -16.390625) scale(0.7)"/>
     <use xlink:href="#DejaVuSans-20" transform="translate(573.549805 0.015625)"/>
     <use xlink:href="#DejaVuSans-28" transform="translate(605.336914 0.015625)"/>
     <use xlink:href="#DejaVuSans-77" transform="translate(644.350586 0.015625)"/>
     <use xlink:href="#DejaVuSans-74" transform="translate(726.137695 0.015625)"/>
     <use xlink:href="#DejaVuSans-2e" transform="translate(765.34668 0.015625)"/>
     <use xlink:href="#DejaVuSans-20" transform="translate(797.133789 0.015625)"/>
     <use xlink:href="#DejaVuSans-25" transform="translate(828.920898 0.015625)"/>
     <use xlink:href="#DejaVuSans-29" transform="translate(923.94043 0.015625)"/>
    </g>
   </g>
  </g>
 </g>
 <defs>
  <clipPath id="p2957f5b05c">
   <rect x="14.207386" y="15.884887" width="223.2" height="217.44"/>
  </clipPath>
 </defs>
</svg>
