<?xml version="1.0" encoding="utf-8" standalone="no"?>
<!DOCTYPE svg PUBLIC "-//W3C//DTD SVG 1.1//EN"
  "http://www.w3.org/Graphics/SVG/1.1/DTD/svg11.dtd">
<svg xmlns:xlink="http://www.w3.org/1999/xlink" width="226.356812pt" height="229.430255pt" viewBox="0 0 226.356812 229.430255" xmlns="http://www.w3.org/2000/svg" version="1.1">
 <metadata>
  <rdf:RDF xmlns:dc="http://purl.org/dc/elements/1.1/" xmlns:cc="http://creativecommons.org/ns#" xmlns:rdf="http://www.w3.org/1999/02/22-rdf-syntax-ns#">
   <cc:Work>
    <dc:type rdf:resource="http://purl.org/dc/dcmitype/StillImage"/>
    <dc:date>2023-08-15T09:58:49.132243</dc:date>
    <dc:format>image/svg+xml</dc:format>
    <dc:creator>
     <cc:Agent>
      <dc:title>Matplotlib v3.7.1, https://matplotlib.org/</dc:title>
     </cc:Agent>
    </dc:creator>
   </cc:Work>
  </rdf:RDF>
 </metadata>
 <defs>
  <style type="text/css">*{stroke-linejoin: round; stroke-linecap: butt}</style>
 </defs>
 <g id="figure_1">
  <g id="patch_1">
   <path d="M 0 229.430255 
L 226.356812 229.430255 
L 226.356812 0 
L 0 0 
z
" style="fill: #ffffff"/>
  </g>
  <g id="axes_1">
   <g id="patch_2">
    <path d="M 201.431676 185.463393 
L 112.658949 20.6934 
L 23.886221 185.463393 
z
" clip-path="url(#p77999870b8)" style="fill: #ffffff; opacity: 0.7; stroke: #ffffff; stroke-linejoin: miter"/>
   </g>
   <g id="PathCollection_1">
    <defs>
     <path id="m9cf4ad4c07" d="M 0 2.5 
C 0.663008 2.5 1.29895 2.236584 1.767767 1.767767 
C 2.236584 1.29895 2.5 0.663008 2.5 0 
C 2.5 -0.663008 2.236584 -1.29895 1.767767 -1.767767 
C 1.29895 -2.236584 0.663008 -2.5 0 -2.5 
C -0.663008 -2.5 -1.29895 -2.236584 -1.767767 -1.767767 
C -2.236584 -1.29895 -2.5 -0.663008 -2.5 0 
C -2.5 0.663008 -2.236584 1.29895 -1.767767 1.767767 
C -1.29895 2.236584 -0.663008 2.5 0 2.5 
z
" style="stroke: #0e0e77"/>
    </defs>
    <g clip-path="url(#p77999870b8)">
     <use xlink:href="#m9cf4ad4c07" x="91.353494" y="168.986394" style="fill: #0e0e77; stroke: #0e0e77"/>
     <use xlink:href="#m9cf4ad4c07" x="118.873039" y="160.747894" style="fill: #0e0e77; stroke: #0e0e77"/>
    </g>
   </g>
   <g id="PathCollection_2">
    <defs>
     <path id="m93a0f3f52b" d="M 0 2.5 
C 0.663008 2.5 1.29895 2.236584 1.767767 1.767767 
C 2.236584 1.29895 2.5 0.663008 2.5 0 
C 2.5 -0.663008 2.236584 -1.29895 1.767767 -1.767767 
C 1.29895 -2.236584 0.663008 -2.5 0 -2.5 
C -0.663008 -2.5 -1.29895 -2.236584 -1.767767 -1.767767 
C -2.236584 -1.29895 -2.5 -0.663008 -2.5 0 
C -2.5 0.663008 -2.236584 1.29895 -1.767767 1.767767 
C -1.29895 2.236584 -0.663008 2.5 0 2.5 
z
" style="stroke: #0e7723"/>
    </defs>
    <g clip-path="url(#p77999870b8)">
     <use xlink:href="#m93a0f3f52b" x="132.188949" y="109.669196" style="fill: #0e7723; stroke: #0e7723"/>
     <use xlink:href="#m93a0f3f52b" x="141.953949" y="137.680095" style="fill: #0e7723; stroke: #0e7723"/>
    </g>
   </g>
   <g id="PathCollection_3">
    <defs>
     <path id="m759309a588" d="M 0 2.5 
C 0.663008 2.5 1.29895 2.236584 1.767767 1.767767 
C 2.236584 1.29895 2.5 0.663008 2.5 0 
C 2.5 -0.663008 2.236584 -1.29895 1.767767 -1.767767 
C 1.29895 -2.236584 0.663008 -2.5 0 -2.5 
C -0.663008 -2.5 -1.29895 -2.236584 -1.767767 -1.767767 
C -2.236584 -1.29895 -2.5 -0.663008 -2.5 0 
C -2.5 0.663008 -2.236584 1.29895 -1.767767 1.767767 
C -1.29895 2.236584 -0.663008 2.5 0 2.5 
z
" style="stroke: #a15d11"/>
    </defs>
    <g clip-path="url(#p77999870b8)">
     <use xlink:href="#m759309a588" x="125.974858" y="147.566295" style="fill: #a15d11; stroke: #a15d11"/>
    </g>
   </g>
   <g id="PathCollection_4">
    <defs>
     <path id="m94e6aa35d5" d="M 0 2.5 
C 0.663008 2.5 1.29895 2.236584 1.767767 1.767767 
C 2.236584 1.29895 2.5 0.663008 2.5 0 
C 2.5 -0.663008 2.236584 -1.29895 1.767767 -1.767767 
C 1.29895 -2.236584 0.663008 -2.5 0 -2.5 
C -0.663008 -2.5 -1.29895 -2.236584 -1.767767 -1.767767 
C -2.236584 -1.29895 -2.5 -0.663008 -2.5 0 
C -2.5 0.663008 -2.236584 1.29895 -1.767767 1.767767 
C -1.29895 2.236584 -0.663008 2.5 0 2.5 
z
" style="stroke: #626161"/>
    </defs>
    <g clip-path="url(#p77999870b8)">
     <use xlink:href="#m94e6aa35d5" x="145.504858" y="157.452494" style="fill: #626161; stroke: #626161"/>
     <use xlink:href="#m94e6aa35d5" x="134.85213" y="150.861694" style="fill: #626161; stroke: #626161"/>
    </g>
   </g>
   <g id="line2d_1">
    <path d="M 23.886221 185.463393 
L 201.431676 185.463393 
" clip-path="url(#p77999870b8)" style="fill: none; stroke: #000000; stroke-linecap: square"/>
   </g>
   <g id="line2d_2">
    <path d="M 112.658949 20.6934 
L 23.886221 185.463393 
" clip-path="url(#p77999870b8)" style="fill: none; stroke: #000000; stroke-linecap: square"/>
   </g>
   <g id="line2d_3">
    <path d="M 112.658949 20.6934 
L 201.431676 185.463393 
" clip-path="url(#p77999870b8)" style="fill: none; stroke: #000000; stroke-linecap: square"/>
   </g>
   <g id="line2d_4">
    <path d="M 23.886221 185.463393 
L 201.431676 185.463393 
" clip-path="url(#p77999870b8)" style="fill: none; stroke-dasharray: 0.5,0.825; stroke-dashoffset: 0; stroke: #0000ff; stroke-width: 0.5"/>
   </g>
   <g id="line2d_5">
    <path d="M 32.763494 168.986394 
L 192.554403 168.986394 
" clip-path="url(#p77999870b8)" style="fill: none; stroke-dasharray: 0.5,0.825; stroke-dashoffset: 0; stroke: #0000ff; stroke-width: 0.5"/>
   </g>
   <g id="line2d_6">
    <path d="M 41.640767 152.509394 
L 183.67713 152.509394 
" clip-path="url(#p77999870b8)" style="fill: none; stroke-dasharray: 0.5,0.825; stroke-dashoffset: 0; stroke: #0000ff; stroke-width: 0.5"/>
   </g>
   <g id="line2d_7">
    <path d="M 50.518039 136.032395 
L 174.799858 136.032395 
" clip-path="url(#p77999870b8)" style="fill: none; stroke-dasharray: 0.5,0.825; stroke-dashoffset: 0; stroke: #0000ff; stroke-width: 0.5"/>
   </g>
   <g id="line2d_8">
    <path d="M 59.395312 119.555396 
L 165.922585 119.555396 
" clip-path="url(#p77999870b8)" style="fill: none; stroke-dasharray: 0.5,0.825; stroke-dashoffset: 0; stroke: #0000ff; stroke-width: 0.5"/>
   </g>
   <g id="line2d_9">
    <path d="M 68.272585 103.078396 
L 157.045312 103.078396 
" clip-path="url(#p77999870b8)" style="fill: none; stroke-dasharray: 0.5,0.825; stroke-dashoffset: 0; stroke: #0000ff; stroke-width: 0.5"/>
   </g>
   <g id="line2d_10">
    <path d="M 77.149858 86.601397 
L 148.168039 86.601397 
" clip-path="url(#p77999870b8)" style="fill: none; stroke-dasharray: 0.5,0.825; stroke-dashoffset: 0; stroke: #0000ff; stroke-width: 0.5"/>
   </g>
   <g id="line2d_11">
    <path d="M 86.02713 70.124398 
L 139.290767 70.124398 
" clip-path="url(#p77999870b8)" style="fill: none; stroke-dasharray: 0.5,0.825; stroke-dashoffset: 0; stroke: #0000ff; stroke-width: 0.5"/>
   </g>
   <g id="line2d_12">
    <path d="M 94.904403 53.647398 
L 130.413494 53.647398 
" clip-path="url(#p77999870b8)" style="fill: none; stroke-dasharray: 0.5,0.825; stroke-dashoffset: 0; stroke: #0000ff; stroke-width: 0.5"/>
   </g>
   <g id="line2d_13">
    <path d="M 103.781676 37.170399 
L 121.536221 37.170399 
" clip-path="url(#p77999870b8)" style="fill: none; stroke-dasharray: 0.5,0.825; stroke-dashoffset: 0; stroke: #0000ff; stroke-width: 0.5"/>
   </g>
   <g id="line2d_14">
    <path d="M 112.658949 20.6934 
L 23.886221 185.463393 
" clip-path="url(#p77999870b8)" style="fill: none; stroke-dasharray: 0.5,0.825; stroke-dashoffset: 0; stroke: #0000ff; stroke-width: 0.5"/>
   </g>
   <g id="line2d_15">
    <path d="M 112.658949 20.6934 
L 201.431676 185.463393 
" clip-path="url(#p77999870b8)" style="fill: none; stroke-dasharray: 0.5,0.825; stroke-dashoffset: 0; stroke: #0000ff; stroke-width: 0.5"/>
   </g>
   <g id="line2d_16">
    <path d="M 121.536221 37.170399 
L 41.640767 185.463393 
" clip-path="url(#p77999870b8)" style="fill: none; stroke-dasharray: 0.5,0.825; stroke-dashoffset: 0; stroke: #0000ff; stroke-width: 0.5"/>
   </g>
   <g id="line2d_17">
    <path d="M 103.781676 37.170399 
L 183.67713 185.463393 
" clip-path="url(#p77999870b8)" style="fill: none; stroke-dasharray: 0.5,0.825; stroke-dashoffset: 0; stroke: #0000ff; stroke-width: 0.5"/>
   </g>
   <g id="line2d_18">
    <path d="M 130.413494 53.647398 
L 59.395312 185.463393 
" clip-path="url(#p77999870b8)" style="fill: none; stroke-dasharray: 0.5,0.825; stroke-dashoffset: 0; stroke: #0000ff; stroke-width: 0.5"/>
   </g>
   <g id="line2d_19">
    <path d="M 94.904403 53.647398 
L 165.922585 185.463393 
" clip-path="url(#p77999870b8)" style="fill: none; stroke-dasharray: 0.5,0.825; stroke-dashoffset: 0; stroke: #0000ff; stroke-width: 0.5"/>
   </g>
   <g id="line2d_20">
    <path d="M 139.290767 70.124398 
L 77.149858 185.463393 
" clip-path="url(#p77999870b8)" style="fill: none; stroke-dasharray: 0.5,0.825; stroke-dashoffset: 0; stroke: #0000ff; stroke-width: 0.5"/>
   </g>
   <g id="line2d_21">
    <path d="M 86.02713 70.124398 
L 148.168039 185.463393 
" clip-path="url(#p77999870b8)" style="fill: none; stroke-dasharray: 0.5,0.825; stroke-dashoffset: 0; stroke: #0000ff; stroke-width: 0.5"/>
   </g>
   <g id="line2d_22">
    <path d="M 148.168039 86.601397 
L 94.904403 185.463393 
" clip-path="url(#p77999870b8)" style="fill: none; stroke-dasharray: 0.5,0.825; stroke-dashoffset: 0; stroke: #0000ff; stroke-width: 0.5"/>
   </g>
   <g id="line2d_23">
    <path d="M 77.149858 86.601397 
L 130.413494 185.463393 
" clip-path="url(#p77999870b8)" style="fill: none; stroke-dasharray: 0.5,0.825; stroke-dashoffset: 0; stroke: #0000ff; stroke-width: 0.5"/>
   </g>
   <g id="line2d_24">
    <path d="M 157.045312 103.078396 
L 112.658949 185.463393 
" clip-path="url(#p77999870b8)" style="fill: none; stroke-dasharray: 0.5,0.825; stroke-dashoffset: 0; stroke: #0000ff; stroke-width: 0.5"/>
   </g>
   <g id="line2d_25">
    <path d="M 68.272585 103.078396 
L 112.658949 185.463393 
" clip-path="url(#p77999870b8)" style="fill: none; stroke-dasharray: 0.5,0.825; stroke-dashoffset: 0; stroke: #0000ff; stroke-width: 0.5"/>
   </g>
   <g id="line2d_26">
    <path d="M 165.922585 119.555396 
L 130.413494 185.463393 
" clip-path="url(#p77999870b8)" style="fill: none; stroke-dasharray: 0.5,0.825; stroke-dashoffset: 0; stroke: #0000ff; stroke-width: 0.5"/>
   </g>
   <g id="line2d_27">
    <path d="M 59.395312 119.555396 
L 94.904403 185.463393 
" clip-path="url(#p77999870b8)" style="fill: none; stroke-dasharray: 0.5,0.825; stroke-dashoffset: 0; stroke: #0000ff; stroke-width: 0.5"/>
   </g>
   <g id="line2d_28">
    <path d="M 174.799858 136.032395 
L 148.168039 185.463393 
" clip-path="url(#p77999870b8)" style="fill: none; stroke-dasharray: 0.5,0.825; stroke-dashoffset: 0; stroke: #0000ff; stroke-width: 0.5"/>
   </g>
   <g id="line2d_29">
    <path d="M 50.518039 136.032395 
L 77.149858 185.463393 
" clip-path="url(#p77999870b8)" style="fill: none; stroke-dasharray: 0.5,0.825; stroke-dashoffset: 0; stroke: #0000ff; stroke-width: 0.5"/>
   </g>
   <g id="line2d_30">
    <path d="M 183.67713 152.509394 
L 165.922585 185.463393 
" clip-path="url(#p77999870b8)" style="fill: none; stroke-dasharray: 0.5,0.825; stroke-dashoffset: 0; stroke: #0000ff; stroke-width: 0.5"/>
   </g>
   <g id="line2d_31">
    <path d="M 41.640767 152.509394 
L 59.395312 185.463393 
" clip-path="url(#p77999870b8)" style="fill: none; stroke-dasharray: 0.5,0.825; stroke-dashoffset: 0; stroke: #0000ff; stroke-width: 0.5"/>
   </g>
   <g id="line2d_32">
    <path d="M 192.554403 168.986394 
L 183.67713 185.463393 
" clip-path="url(#p77999870b8)" style="fill: none; stroke-dasharray: 0.5,0.825; stroke-dashoffset: 0; stroke: #0000ff; stroke-width: 0.5"/>
   </g>
   <g id="line2d_33">
    <path d="M 32.763494 168.986394 
L 41.640767 185.463393 
" clip-path="url(#p77999870b8)" style="fill: none; stroke-dasharray: 0.5,0.825; stroke-dashoffset: 0; stroke: #0000ff; stroke-width: 0.5"/>
   </g>
   <g id="line2d_34">
    <path d="M 201.431676 185.463393 
L 201.431676 185.463393 
" clip-path="url(#p77999870b8)" style="fill: none; stroke-dasharray: 0.5,0.825; stroke-dashoffset: 0; stroke: #0000ff; stroke-width: 0.5"/>
   </g>
   <g id="line2d_35">
    <path d="M 23.886221 185.463393 
L 23.886221 185.463393 
" clip-path="url(#p77999870b8)" style="fill: none; stroke-dasharray: 0.5,0.825; stroke-dashoffset: 0; stroke: #0000ff; stroke-width: 0.5"/>
   </g>
   <g id="line2d_36">
    <path d="M 201.431676 185.463393 
L 206.758039 185.463393 
" clip-path="url(#p77999870b8)" style="fill: none; stroke: #000000; stroke-linecap: square"/>
   </g>
   <g id="line2d_37">
    <path d="M 192.554403 168.986394 
L 197.880767 168.986394 
" clip-path="url(#p77999870b8)" style="fill: none; stroke: #000000; stroke-linecap: square"/>
   </g>
   <g id="line2d_38">
    <path d="M 183.67713 152.509394 
L 189.003494 152.509394 
" clip-path="url(#p77999870b8)" style="fill: none; stroke: #000000; stroke-linecap: square"/>
   </g>
   <g id="line2d_39">
    <path d="M 174.799858 136.032395 
L 180.126221 136.032395 
" clip-path="url(#p77999870b8)" style="fill: none; stroke: #000000; stroke-linecap: square"/>
   </g>
   <g id="line2d_40">
    <path d="M 165.922585 119.555396 
L 171.248949 119.555396 
" clip-path="url(#p77999870b8)" style="fill: none; stroke: #000000; stroke-linecap: square"/>
   </g>
   <g id="line2d_41">
    <path d="M 157.045312 103.078396 
L 162.371676 103.078396 
" clip-path="url(#p77999870b8)" style="fill: none; stroke: #000000; stroke-linecap: square"/>
   </g>
   <g id="line2d_42">
    <path d="M 148.168039 86.601397 
L 153.494403 86.601397 
" clip-path="url(#p77999870b8)" style="fill: none; stroke: #000000; stroke-linecap: square"/>
   </g>
   <g id="line2d_43">
    <path d="M 139.290767 70.124398 
L 144.61713 70.124398 
" clip-path="url(#p77999870b8)" style="fill: none; stroke: #000000; stroke-linecap: square"/>
   </g>
   <g id="line2d_44">
    <path d="M 130.413494 53.647398 
L 135.739858 53.647398 
" clip-path="url(#p77999870b8)" style="fill: none; stroke: #000000; stroke-linecap: square"/>
   </g>
   <g id="line2d_45">
    <path d="M 121.536221 37.170399 
L 126.862585 37.170399 
" clip-path="url(#p77999870b8)" style="fill: none; stroke: #000000; stroke-linecap: square"/>
   </g>
   <g id="line2d_46">
    <path d="M 112.658949 20.6934 
L 117.985312 20.6934 
" clip-path="url(#p77999870b8)" style="fill: none; stroke: #000000; stroke-linecap: square"/>
   </g>
   <g id="line2d_47">
    <path d="M 23.886221 185.463393 
L 21.223039 180.520293 
" clip-path="url(#p77999870b8)" style="fill: none; stroke: #000000; stroke-linecap: square"/>
   </g>
   <g id="line2d_48">
    <path d="M 32.763494 168.986394 
L 30.100312 164.043294 
" clip-path="url(#p77999870b8)" style="fill: none; stroke: #000000; stroke-linecap: square"/>
   </g>
   <g id="line2d_49">
    <path d="M 41.640767 152.509394 
L 38.977585 147.566295 
" clip-path="url(#p77999870b8)" style="fill: none; stroke: #000000; stroke-linecap: square"/>
   </g>
   <g id="line2d_50">
    <path d="M 50.518039 136.032395 
L 47.854858 131.089295 
" clip-path="url(#p77999870b8)" style="fill: none; stroke: #000000; stroke-linecap: square"/>
   </g>
   <g id="line2d_51">
    <path d="M 59.395312 119.555396 
L 56.73213 114.612296 
" clip-path="url(#p77999870b8)" style="fill: none; stroke: #000000; stroke-linecap: square"/>
   </g>
   <g id="line2d_52">
    <path d="M 68.272585 103.078396 
L 65.609403 98.135297 
" clip-path="url(#p77999870b8)" style="fill: none; stroke: #000000; stroke-linecap: square"/>
   </g>
   <g id="line2d_53">
    <path d="M 77.149858 86.601397 
L 74.486676 81.658297 
" clip-path="url(#p77999870b8)" style="fill: none; stroke: #000000; stroke-linecap: square"/>
   </g>
   <g id="line2d_54">
    <path d="M 86.02713 70.124398 
L 83.363949 65.181298 
" clip-path="url(#p77999870b8)" style="fill: none; stroke: #000000; stroke-linecap: square"/>
   </g>
   <g id="line2d_55">
    <path d="M 94.904403 53.647398 
L 92.241221 48.704299 
" clip-path="url(#p77999870b8)" style="fill: none; stroke: #000000; stroke-linecap: square"/>
   </g>
   <g id="line2d_56">
    <path d="M 103.781676 37.170399 
L 101.118494 32.227299 
" clip-path="url(#p77999870b8)" style="fill: none; stroke: #000000; stroke-linecap: square"/>
   </g>
   <g id="line2d_57">
    <path d="M 112.658949 20.6934 
L 109.995767 15.7503 
" clip-path="url(#p77999870b8)" style="fill: none; stroke: #000000; stroke-linecap: square"/>
   </g>
   <g id="line2d_58">
    <path d="M 23.886221 185.463393 
L 21.223039 190.406493 
" clip-path="url(#p77999870b8)" style="fill: none; stroke: #000000; stroke-linecap: square"/>
   </g>
   <g id="line2d_59">
    <path d="M 41.640767 185.463393 
L 38.977585 190.406493 
" clip-path="url(#p77999870b8)" style="fill: none; stroke: #000000; stroke-linecap: square"/>
   </g>
   <g id="line2d_60">
    <path d="M 59.395312 185.463393 
L 56.73213 190.406493 
" clip-path="url(#p77999870b8)" style="fill: none; stroke: #000000; stroke-linecap: square"/>
   </g>
   <g id="line2d_61">
    <path d="M 77.149858 185.463393 
L 74.486676 190.406493 
" clip-path="url(#p77999870b8)" style="fill: none; stroke: #000000; stroke-linecap: square"/>
   </g>
   <g id="line2d_62">
    <path d="M 94.904403 185.463393 
L 92.241221 190.406493 
" clip-path="url(#p77999870b8)" style="fill: none; stroke: #000000; stroke-linecap: square"/>
   </g>
   <g id="line2d_63">
    <path d="M 112.658949 185.463393 
L 109.995767 190.406493 
" clip-path="url(#p77999870b8)" style="fill: none; stroke: #000000; stroke-linecap: square"/>
   </g>
   <g id="line2d_64">
    <path d="M 130.413494 185.463393 
L 127.750312 190.406493 
" clip-path="url(#p77999870b8)" style="fill: none; stroke: #000000; stroke-linecap: square"/>
   </g>
   <g id="line2d_65">
    <path d="M 148.168039 185.463393 
L 145.504858 190.406493 
" clip-path="url(#p77999870b8)" style="fill: none; stroke: #000000; stroke-linecap: square"/>
   </g>
   <g id="line2d_66">
    <path d="M 165.922585 185.463393 
L 163.259403 190.406493 
" clip-path="url(#p77999870b8)" style="fill: none; stroke: #000000; stroke-linecap: square"/>
   </g>
   <g id="line2d_67">
    <path d="M 183.67713 185.463393 
L 181.013949 190.406493 
" clip-path="url(#p77999870b8)" style="fill: none; stroke: #000000; stroke-linecap: square"/>
   </g>
   <g id="line2d_68">
    <path d="M 201.431676 185.463393 
L 198.768494 190.406493 
" clip-path="url(#p77999870b8)" style="fill: none; stroke: #000000; stroke-linecap: square"/>
   </g>
   <g id="text_1">
    <!-- 0 -->
    <g transform="translate(214.066812 187.934943) scale(0.08 -0.08)">
     <defs>
      <path id="DejaVuSans-30" d="M 2034 4250 
Q 1547 4250 1301 3770 
Q 1056 3291 1056 2328 
Q 1056 1369 1301 889 
Q 1547 409 2034 409 
Q 2525 409 2770 889 
Q 3016 1369 3016 2328 
Q 3016 3291 2770 3770 
Q 2525 4250 2034 4250 
z
M 2034 4750 
Q 2819 4750 3233 4129 
Q 3647 3509 3647 2328 
Q 3647 1150 3233 529 
Q 2819 -91 2034 -91 
Q 1250 -91 836 529 
Q 422 1150 422 2328 
Q 422 3509 836 4129 
Q 1250 4750 2034 4750 
z
" transform="scale(0.015625)"/>
     </defs>
     <use xlink:href="#DejaVuSans-30"/>
    </g>
   </g>
   <g id="text_2">
    <!-- 10 -->
    <g transform="translate(202.644539 171.457944) scale(0.08 -0.08)">
     <defs>
      <path id="DejaVuSans-31" d="M 794 531 
L 1825 531 
L 1825 4091 
L 703 3866 
L 703 4441 
L 1819 4666 
L 2450 4666 
L 2450 531 
L 3481 531 
L 3481 0 
L 794 0 
L 794 531 
z
" transform="scale(0.015625)"/>
     </defs>
     <use xlink:href="#DejaVuSans-31"/>
     <use xlink:href="#DejaVuSans-30" x="63.623047"/>
    </g>
   </g>
   <g id="text_3">
    <!-- 20 -->
    <g transform="translate(193.767267 154.980944) scale(0.08 -0.08)">
     <defs>
      <path id="DejaVuSans-32" d="M 1228 531 
L 3431 531 
L 3431 0 
L 469 0 
L 469 531 
Q 828 903 1448 1529 
Q 2069 2156 2228 2338 
Q 2531 2678 2651 2914 
Q 2772 3150 2772 3378 
Q 2772 3750 2511 3984 
Q 2250 4219 1831 4219 
Q 1534 4219 1204 4116 
Q 875 4013 500 3803 
L 500 4441 
Q 881 4594 1212 4672 
Q 1544 4750 1819 4750 
Q 2544 4750 2975 4387 
Q 3406 4025 3406 3419 
Q 3406 3131 3298 2873 
Q 3191 2616 2906 2266 
Q 2828 2175 2409 1742 
Q 1991 1309 1228 531 
z
" transform="scale(0.015625)"/>
     </defs>
     <use xlink:href="#DejaVuSans-32"/>
     <use xlink:href="#DejaVuSans-30" x="63.623047"/>
    </g>
   </g>
   <g id="text_4">
    <!-- 30 -->
    <g transform="translate(184.889994 138.503945) scale(0.08 -0.08)">
     <defs>
      <path id="DejaVuSans-33" d="M 2597 2516 
Q 3050 2419 3304 2112 
Q 3559 1806 3559 1356 
Q 3559 666 3084 287 
Q 2609 -91 1734 -91 
Q 1441 -91 1130 -33 
Q 819 25 488 141 
L 488 750 
Q 750 597 1062 519 
Q 1375 441 1716 441 
Q 2309 441 2620 675 
Q 2931 909 2931 1356 
Q 2931 1769 2642 2001 
Q 2353 2234 1838 2234 
L 1294 2234 
L 1294 2753 
L 1863 2753 
Q 2328 2753 2575 2939 
Q 2822 3125 2822 3475 
Q 2822 3834 2567 4026 
Q 2313 4219 1838 4219 
Q 1578 4219 1281 4162 
Q 984 4106 628 3988 
L 628 4550 
Q 988 4650 1302 4700 
Q 1616 4750 1894 4750 
Q 2613 4750 3031 4423 
Q 3450 4097 3450 3541 
Q 3450 3153 3228 2886 
Q 3006 2619 2597 2516 
z
" transform="scale(0.015625)"/>
     </defs>
     <use xlink:href="#DejaVuSans-33"/>
     <use xlink:href="#DejaVuSans-30" x="63.623047"/>
    </g>
   </g>
   <g id="text_5">
    <!-- 40 -->
    <g transform="translate(176.012721 122.026946) scale(0.08 -0.08)">
     <defs>
      <path id="DejaVuSans-34" d="M 2419 4116 
L 825 1625 
L 2419 1625 
L 2419 4116 
z
M 2253 4666 
L 3047 4666 
L 3047 1625 
L 3713 1625 
L 3713 1100 
L 3047 1100 
L 3047 0 
L 2419 0 
L 2419 1100 
L 313 1100 
L 313 1709 
L 2253 4666 
z
" transform="scale(0.015625)"/>
     </defs>
     <use xlink:href="#DejaVuSans-34"/>
     <use xlink:href="#DejaVuSans-30" x="63.623047"/>
    </g>
   </g>
   <g id="text_6">
    <!-- 50 -->
    <g transform="translate(167.135449 105.549946) scale(0.08 -0.08)">
     <defs>
      <path id="DejaVuSans-35" d="M 691 4666 
L 3169 4666 
L 3169 4134 
L 1269 4134 
L 1269 2991 
Q 1406 3038 1543 3061 
Q 1681 3084 1819 3084 
Q 2600 3084 3056 2656 
Q 3513 2228 3513 1497 
Q 3513 744 3044 326 
Q 2575 -91 1722 -91 
Q 1428 -91 1123 -41 
Q 819 9 494 109 
L 494 744 
Q 775 591 1075 516 
Q 1375 441 1709 441 
Q 2250 441 2565 725 
Q 2881 1009 2881 1497 
Q 2881 1984 2565 2268 
Q 2250 2553 1709 2553 
Q 1456 2553 1204 2497 
Q 953 2441 691 2322 
L 691 4666 
z
" transform="scale(0.015625)"/>
     </defs>
     <use xlink:href="#DejaVuSans-35"/>
     <use xlink:href="#DejaVuSans-30" x="63.623047"/>
    </g>
   </g>
   <g id="text_7">
    <!-- 60 -->
    <g transform="translate(158.258176 89.072947) scale(0.08 -0.08)">
     <defs>
      <path id="DejaVuSans-36" d="M 2113 2584 
Q 1688 2584 1439 2293 
Q 1191 2003 1191 1497 
Q 1191 994 1439 701 
Q 1688 409 2113 409 
Q 2538 409 2786 701 
Q 3034 994 3034 1497 
Q 3034 2003 2786 2293 
Q 2538 2584 2113 2584 
z
M 3366 4563 
L 3366 3988 
Q 3128 4100 2886 4159 
Q 2644 4219 2406 4219 
Q 1781 4219 1451 3797 
Q 1122 3375 1075 2522 
Q 1259 2794 1537 2939 
Q 1816 3084 2150 3084 
Q 2853 3084 3261 2657 
Q 3669 2231 3669 1497 
Q 3669 778 3244 343 
Q 2819 -91 2113 -91 
Q 1303 -91 875 529 
Q 447 1150 447 2328 
Q 447 3434 972 4092 
Q 1497 4750 2381 4750 
Q 2619 4750 2861 4703 
Q 3103 4656 3366 4563 
z
" transform="scale(0.015625)"/>
     </defs>
     <use xlink:href="#DejaVuSans-36"/>
     <use xlink:href="#DejaVuSans-30" x="63.623047"/>
    </g>
   </g>
   <g id="text_8">
    <!-- 70 -->
    <g transform="translate(149.380903 72.595948) scale(0.08 -0.08)">
     <defs>
      <path id="DejaVuSans-37" d="M 525 4666 
L 3525 4666 
L 3525 4397 
L 1831 0 
L 1172 0 
L 2766 4134 
L 525 4134 
L 525 4666 
z
" transform="scale(0.015625)"/>
     </defs>
     <use xlink:href="#DejaVuSans-37"/>
     <use xlink:href="#DejaVuSans-30" x="63.623047"/>
    </g>
   </g>
   <g id="text_9">
    <!-- 80 -->
    <g transform="translate(140.50363 56.118948) scale(0.08 -0.08)">
     <defs>
      <path id="DejaVuSans-38" d="M 2034 2216 
Q 1584 2216 1326 1975 
Q 1069 1734 1069 1313 
Q 1069 891 1326 650 
Q 1584 409 2034 409 
Q 2484 409 2743 651 
Q 3003 894 3003 1313 
Q 3003 1734 2745 1975 
Q 2488 2216 2034 2216 
z
M 1403 2484 
Q 997 2584 770 2862 
Q 544 3141 544 3541 
Q 544 4100 942 4425 
Q 1341 4750 2034 4750 
Q 2731 4750 3128 4425 
Q 3525 4100 3525 3541 
Q 3525 3141 3298 2862 
Q 3072 2584 2669 2484 
Q 3125 2378 3379 2068 
Q 3634 1759 3634 1313 
Q 3634 634 3220 271 
Q 2806 -91 2034 -91 
Q 1263 -91 848 271 
Q 434 634 434 1313 
Q 434 1759 690 2068 
Q 947 2378 1403 2484 
z
M 1172 3481 
Q 1172 3119 1398 2916 
Q 1625 2713 2034 2713 
Q 2441 2713 2670 2916 
Q 2900 3119 2900 3481 
Q 2900 3844 2670 4047 
Q 2441 4250 2034 4250 
Q 1625 4250 1398 4047 
Q 1172 3844 1172 3481 
z
" transform="scale(0.015625)"/>
     </defs>
     <use xlink:href="#DejaVuSans-38"/>
     <use xlink:href="#DejaVuSans-30" x="63.623047"/>
    </g>
   </g>
   <g id="text_10">
    <!-- 90 -->
    <g transform="translate(131.626358 39.641949) scale(0.08 -0.08)">
     <defs>
      <path id="DejaVuSans-39" d="M 703 97 
L 703 672 
Q 941 559 1184 500 
Q 1428 441 1663 441 
Q 2288 441 2617 861 
Q 2947 1281 2994 2138 
Q 2813 1869 2534 1725 
Q 2256 1581 1919 1581 
Q 1219 1581 811 2004 
Q 403 2428 403 3163 
Q 403 3881 828 4315 
Q 1253 4750 1959 4750 
Q 2769 4750 3195 4129 
Q 3622 3509 3622 2328 
Q 3622 1225 3098 567 
Q 2575 -91 1691 -91 
Q 1453 -91 1209 -44 
Q 966 3 703 97 
z
M 1959 2075 
Q 2384 2075 2632 2365 
Q 2881 2656 2881 3163 
Q 2881 3666 2632 3958 
Q 2384 4250 1959 4250 
Q 1534 4250 1286 3958 
Q 1038 3666 1038 3163 
Q 1038 2656 1286 2365 
Q 1534 2075 1959 2075 
z
" transform="scale(0.015625)"/>
     </defs>
     <use xlink:href="#DejaVuSans-39"/>
     <use xlink:href="#DejaVuSans-30" x="63.623047"/>
    </g>
   </g>
   <g id="text_11">
    <!-- 100 -->
    <g transform="translate(120.204085 23.16495) scale(0.08 -0.08)">
     <use xlink:href="#DejaVuSans-31"/>
     <use xlink:href="#DejaVuSans-30" x="63.623047"/>
     <use xlink:href="#DejaVuSans-30" x="127.246094"/>
    </g>
   </g>
   <g id="text_12">
    <!-- 100 -->
    <g transform="translate(9.593267 178.048743) scale(0.08 -0.08)">
     <use xlink:href="#DejaVuSans-31"/>
     <use xlink:href="#DejaVuSans-30" x="63.623047"/>
     <use xlink:href="#DejaVuSans-30" x="127.246094"/>
    </g>
   </g>
   <g id="text_13">
    <!-- 90 -->
    <g transform="translate(21.015539 161.571744) scale(0.08 -0.08)">
     <use xlink:href="#DejaVuSans-39"/>
     <use xlink:href="#DejaVuSans-30" x="63.623047"/>
    </g>
   </g>
   <g id="text_14">
    <!-- 80 -->
    <g transform="translate(29.892812 145.094745) scale(0.08 -0.08)">
     <use xlink:href="#DejaVuSans-38"/>
     <use xlink:href="#DejaVuSans-30" x="63.623047"/>
    </g>
   </g>
   <g id="text_15">
    <!-- 70 -->
    <g transform="translate(38.770085 128.617745) scale(0.08 -0.08)">
     <use xlink:href="#DejaVuSans-37"/>
     <use xlink:href="#DejaVuSans-30" x="63.623047"/>
    </g>
   </g>
   <g id="text_16">
    <!-- 60 -->
    <g transform="translate(47.647358 112.140746) scale(0.08 -0.08)">
     <use xlink:href="#DejaVuSans-36"/>
     <use xlink:href="#DejaVuSans-30" x="63.623047"/>
    </g>
   </g>
   <g id="text_17">
    <!-- 50 -->
    <g transform="translate(56.52463 95.663747) scale(0.08 -0.08)">
     <use xlink:href="#DejaVuSans-35"/>
     <use xlink:href="#DejaVuSans-30" x="63.623047"/>
    </g>
   </g>
   <g id="text_18">
    <!-- 40 -->
    <g transform="translate(65.401903 79.186747) scale(0.08 -0.08)">
     <use xlink:href="#DejaVuSans-34"/>
     <use xlink:href="#DejaVuSans-30" x="63.623047"/>
    </g>
   </g>
   <g id="text_19">
    <!-- 30 -->
    <g transform="translate(74.279176 62.709748) scale(0.08 -0.08)">
     <use xlink:href="#DejaVuSans-33"/>
     <use xlink:href="#DejaVuSans-30" x="63.623047"/>
    </g>
   </g>
   <g id="text_20">
    <!-- 20 -->
    <g transform="translate(83.156449 46.232749) scale(0.08 -0.08)">
     <use xlink:href="#DejaVuSans-32"/>
     <use xlink:href="#DejaVuSans-30" x="63.623047"/>
    </g>
   </g>
   <g id="text_21">
    <!-- 10 -->
    <g transform="translate(92.033721 29.755749) scale(0.08 -0.08)">
     <use xlink:href="#DejaVuSans-31"/>
     <use xlink:href="#DejaVuSans-30" x="63.623047"/>
    </g>
   </g>
   <g id="text_22">
    <!-- 0 -->
    <g transform="translate(103.455994 13.27875) scale(0.08 -0.08)">
     <use xlink:href="#DejaVuSans-30"/>
    </g>
   </g>
   <g id="text_23">
    <!-- 0 -->
    <g transform="translate(14.683267 202.764242) scale(0.08 -0.08)">
     <use xlink:href="#DejaVuSans-30"/>
    </g>
   </g>
   <g id="text_24">
    <!-- 10 -->
    <g transform="translate(29.892812 202.764242) scale(0.08 -0.08)">
     <use xlink:href="#DejaVuSans-31"/>
     <use xlink:href="#DejaVuSans-30" x="63.623047"/>
    </g>
   </g>
   <g id="text_25">
    <!-- 20 -->
    <g transform="translate(47.647358 202.764242) scale(0.08 -0.08)">
     <use xlink:href="#DejaVuSans-32"/>
     <use xlink:href="#DejaVuSans-30" x="63.623047"/>
    </g>
   </g>
   <g id="text_26">
    <!-- 30 -->
    <g transform="translate(65.401903 202.764242) scale(0.08 -0.08)">
     <use xlink:href="#DejaVuSans-33"/>
     <use xlink:href="#DejaVuSans-30" x="63.623047"/>
    </g>
   </g>
   <g id="text_27">
    <!-- 40 -->
    <g transform="translate(83.156449 202.764242) scale(0.08 -0.08)">
     <use xlink:href="#DejaVuSans-34"/>
     <use xlink:href="#DejaVuSans-30" x="63.623047"/>
    </g>
   </g>
   <g id="text_28">
    <!-- 50 -->
    <g transform="translate(100.910994 202.764242) scale(0.08 -0.08)">
     <use xlink:href="#DejaVuSans-35"/>
     <use xlink:href="#DejaVuSans-30" x="63.623047"/>
    </g>
   </g>
   <g id="text_29">
    <!-- 60 -->
    <g transform="translate(118.665539 202.764242) scale(0.08 -0.08)">
     <use xlink:href="#DejaVuSans-36"/>
     <use xlink:href="#DejaVuSans-30" x="63.623047"/>
    </g>
   </g>
   <g id="text_30">
    <!-- 70 -->
    <g transform="translate(136.420085 202.764242) scale(0.08 -0.08)">
     <use xlink:href="#DejaVuSans-37"/>
     <use xlink:href="#DejaVuSans-30" x="63.623047"/>
    </g>
   </g>
   <g id="text_31">
    <!-- 80 -->
    <g transform="translate(154.17463 202.764242) scale(0.08 -0.08)">
     <use xlink:href="#DejaVuSans-38"/>
     <use xlink:href="#DejaVuSans-30" x="63.623047"/>
    </g>
   </g>
   <g id="text_32">
    <!-- 90 -->
    <g transform="translate(171.929176 202.764242) scale(0.08 -0.08)">
     <use xlink:href="#DejaVuSans-39"/>
     <use xlink:href="#DejaVuSans-30" x="63.623047"/>
    </g>
   </g>
   <g id="text_33">
    <!-- 100 -->
    <g transform="translate(187.138721 202.764242) scale(0.08 -0.08)">
     <use xlink:href="#DejaVuSans-31"/>
     <use xlink:href="#DejaVuSans-30" x="63.623047"/>
     <use xlink:href="#DejaVuSans-30" x="127.246094"/>
    </g>
   </g>
   <g id="text_34">
    <!-- $Al_2O_3$ (wt. %) -->
    <g transform="translate(16.56509 146.23834) rotate(-61.685653) scale(0.14 -0.14)">
     <defs>
      <path id="DejaVuSans-Oblique-41" d="M 2356 4666 
L 3072 4666 
L 3938 0 
L 3278 0 
L 3084 1197 
L 984 1197 
L 325 0 
L -341 0 
L 2356 4666 
z
M 2584 4044 
L 1275 1722 
L 2988 1722 
L 2584 4044 
z
" transform="scale(0.015625)"/>
      <path id="DejaVuSans-Oblique-6c" d="M 1172 4863 
L 1747 4863 
L 800 0 
L 225 0 
L 1172 4863 
z
" transform="scale(0.015625)"/>
      <path id="DejaVuSans-Oblique-4f" d="M 2919 4238 
Q 2400 4238 2003 3986 
Q 1606 3734 1313 3219 
Q 1125 2891 1026 2522 
Q 928 2153 928 1778 
Q 928 1128 1239 775 
Q 1550 422 2119 422 
Q 2631 422 3032 676 
Q 3434 931 3719 1434 
Q 3909 1772 4009 2142 
Q 4109 2513 4109 2881 
Q 4109 3528 3796 3883 
Q 3484 4238 2919 4238 
z
M 2100 -91 
Q 1241 -91 748 418 
Q 256 928 256 1813 
Q 256 2319 448 2847 
Q 641 3375 978 3788 
Q 1375 4272 1862 4511 
Q 2350 4750 2938 4750 
Q 3794 4750 4287 4245 
Q 4781 3741 4781 2869 
Q 4781 2331 4593 1812 
Q 4406 1294 4056 872 
Q 3656 384 3173 146 
Q 2691 -91 2100 -91 
z
" transform="scale(0.015625)"/>
      <path id="DejaVuSans-20" transform="scale(0.015625)"/>
      <path id="DejaVuSans-28" d="M 1984 4856 
Q 1566 4138 1362 3434 
Q 1159 2731 1159 2009 
Q 1159 1288 1364 580 
Q 1569 -128 1984 -844 
L 1484 -844 
Q 1016 -109 783 600 
Q 550 1309 550 2009 
Q 550 2706 781 3412 
Q 1013 4119 1484 4856 
L 1984 4856 
z
" transform="scale(0.015625)"/>
      <path id="DejaVuSans-77" d="M 269 3500 
L 844 3500 
L 1563 769 
L 2278 3500 
L 2956 3500 
L 3675 769 
L 4391 3500 
L 4966 3500 
L 4050 0 
L 3372 0 
L 2619 2869 
L 1863 0 
L 1184 0 
L 269 3500 
z
" transform="scale(0.015625)"/>
      <path id="DejaVuSans-74" d="M 1172 4494 
L 1172 3500 
L 2356 3500 
L 2356 3053 
L 1172 3053 
L 1172 1153 
Q 1172 725 1289 603 
Q 1406 481 1766 481 
L 2356 481 
L 2356 0 
L 1766 0 
Q 1100 0 847 248 
Q 594 497 594 1153 
L 594 3053 
L 172 3053 
L 172 3500 
L 594 3500 
L 594 4494 
L 1172 4494 
z
" transform="scale(0.015625)"/>
      <path id="DejaVuSans-2e" d="M 684 794 
L 1344 794 
L 1344 0 
L 684 0 
L 684 794 
z
" transform="scale(0.015625)"/>
      <path id="DejaVuSans-25" d="M 4653 2053 
Q 4381 2053 4226 1822 
Q 4072 1591 4072 1178 
Q 4072 772 4226 539 
Q 4381 306 4653 306 
Q 4919 306 5073 539 
Q 5228 772 5228 1178 
Q 5228 1588 5073 1820 
Q 4919 2053 4653 2053 
z
M 4653 2450 
Q 5147 2450 5437 2106 
Q 5728 1763 5728 1178 
Q 5728 594 5436 251 
Q 5144 -91 4653 -91 
Q 4153 -91 3862 251 
Q 3572 594 3572 1178 
Q 3572 1766 3864 2108 
Q 4156 2450 4653 2450 
z
M 1428 4353 
Q 1159 4353 1004 4120 
Q 850 3888 850 3481 
Q 850 3069 1003 2837 
Q 1156 2606 1428 2606 
Q 1700 2606 1854 2837 
Q 2009 3069 2009 3481 
Q 2009 3884 1853 4118 
Q 1697 4353 1428 4353 
z
M 4250 4750 
L 4750 4750 
L 1831 -91 
L 1331 -91 
L 4250 4750 
z
M 1428 4750 
Q 1922 4750 2215 4408 
Q 2509 4066 2509 3481 
Q 2509 2891 2217 2550 
Q 1925 2209 1428 2209 
Q 931 2209 642 2551 
Q 353 2894 353 3481 
Q 353 4063 643 4406 
Q 934 4750 1428 4750 
z
" transform="scale(0.015625)"/>
      <path id="DejaVuSans-29" d="M 513 4856 
L 1013 4856 
Q 1481 4119 1714 3412 
Q 1947 2706 1947 2009 
Q 1947 1309 1714 600 
Q 1481 -109 1013 -844 
L 513 -844 
Q 928 -128 1133 580 
Q 1338 1288 1338 2009 
Q 1338 2731 1133 3434 
Q 928 4138 513 4856 
z
" transform="scale(0.015625)"/>
     </defs>
     <use xlink:href="#DejaVuSans-Oblique-41" transform="translate(0 0.015625)"/>
     <use xlink:href="#DejaVuSans-Oblique-6c" transform="translate(68.408203 0.015625)"/>
     <use xlink:href="#DejaVuSans-32" transform="translate(96.191406 -16.390625) scale(0.7)"/>
     <use xlink:href="#DejaVuSans-Oblique-4f" transform="translate(143.461914 0.015625)"/>
     <use xlink:href="#DejaVuSans-33" transform="translate(222.172852 -16.390625) scale(0.7)"/>
     <use xlink:href="#DejaVuSans-20" transform="translate(269.443359 0.015625)"/>
     <use xlink:href="#DejaVuSans-28" transform="translate(301.230469 0.015625)"/>
     <use xlink:href="#DejaVuSans-77" transform="translate(340.244141 0.015625)"/>
     <use xlink:href="#DejaVuSans-74" transform="translate(422.03125 0.015625)"/>
     <use xlink:href="#DejaVuSans-2e" transform="translate(461.240234 0.015625)"/>
     <use xlink:href="#DejaVuSans-20" transform="translate(493.027344 0.015625)"/>
     <use xlink:href="#DejaVuSans-25" transform="translate(524.814453 0.015625)"/>
     <use xlink:href="#DejaVuSans-29" transform="translate(619.833984 0.015625)"/>
    </g>
   </g>
   <g id="text_35">
    <!-- MgO (wt. %) -->
    <g transform="translate(166.359025 67.551749) rotate(-298.314347) scale(0.14 -0.14)">
     <defs>
      <path id="DejaVuSans-4d" d="M 628 4666 
L 1569 4666 
L 2759 1491 
L 3956 4666 
L 4897 4666 
L 4897 0 
L 4281 0 
L 4281 4097 
L 3078 897 
L 2444 897 
L 1241 4097 
L 1241 0 
L 628 0 
L 628 4666 
z
" transform="scale(0.015625)"/>
      <path id="DejaVuSans-67" d="M 2906 1791 
Q 2906 2416 2648 2759 
Q 2391 3103 1925 3103 
Q 1463 3103 1205 2759 
Q 947 2416 947 1791 
Q 947 1169 1205 825 
Q 1463 481 1925 481 
Q 2391 481 2648 825 
Q 2906 1169 2906 1791 
z
M 3481 434 
Q 3481 -459 3084 -895 
Q 2688 -1331 1869 -1331 
Q 1566 -1331 1297 -1286 
Q 1028 -1241 775 -1147 
L 775 -588 
Q 1028 -725 1275 -790 
Q 1522 -856 1778 -856 
Q 2344 -856 2625 -561 
Q 2906 -266 2906 331 
L 2906 616 
Q 2728 306 2450 153 
Q 2172 0 1784 0 
Q 1141 0 747 490 
Q 353 981 353 1791 
Q 353 2603 747 3093 
Q 1141 3584 1784 3584 
Q 2172 3584 2450 3431 
Q 2728 3278 2906 2969 
L 2906 3500 
L 3481 3500 
L 3481 434 
z
" transform="scale(0.015625)"/>
      <path id="DejaVuSans-4f" d="M 2522 4238 
Q 1834 4238 1429 3725 
Q 1025 3213 1025 2328 
Q 1025 1447 1429 934 
Q 1834 422 2522 422 
Q 3209 422 3611 934 
Q 4013 1447 4013 2328 
Q 4013 3213 3611 3725 
Q 3209 4238 2522 4238 
z
M 2522 4750 
Q 3503 4750 4090 4092 
Q 4678 3434 4678 2328 
Q 4678 1225 4090 567 
Q 3503 -91 2522 -91 
Q 1538 -91 948 565 
Q 359 1222 359 2328 
Q 359 3434 948 4092 
Q 1538 4750 2522 4750 
z
" transform="scale(0.015625)"/>
     </defs>
     <use xlink:href="#DejaVuSans-4d"/>
     <use xlink:href="#DejaVuSans-67" x="86.279297"/>
     <use xlink:href="#DejaVuSans-4f" x="149.755859"/>
     <use xlink:href="#DejaVuSans-20" x="228.466797"/>
     <use xlink:href="#DejaVuSans-28" x="260.253906"/>
     <use xlink:href="#DejaVuSans-77" x="299.267578"/>
     <use xlink:href="#DejaVuSans-74" x="381.054688"/>
     <use xlink:href="#DejaVuSans-2e" x="420.263672"/>
     <use xlink:href="#DejaVuSans-20" x="452.050781"/>
     <use xlink:href="#DejaVuSans-25" x="483.837891"/>
     <use xlink:href="#DejaVuSans-29" x="578.857422"/>
    </g>
   </g>
   <g id="text_36">
    <!-- $SiO_2 + P_2O_5$ (wt. %) -->
    <g transform="translate(36.460449 219.318692) scale(0.14 -0.14)">
     <defs>
      <path id="DejaVuSans-Oblique-53" d="M 3859 4513 
L 3738 3897 
Q 3422 4066 3111 4152 
Q 2800 4238 2509 4238 
Q 1944 4238 1609 3991 
Q 1275 3744 1275 3334 
Q 1275 3109 1398 2989 
Q 1522 2869 2034 2731 
L 2413 2638 
Q 3053 2472 3303 2217 
Q 3553 1963 3553 1503 
Q 3553 797 2998 353 
Q 2444 -91 1538 -91 
Q 1166 -91 791 -17 
Q 416 56 38 206 
L 166 856 
Q 513 641 861 531 
Q 1209 422 1556 422 
Q 2147 422 2503 684 
Q 2859 947 2859 1369 
Q 2859 1650 2717 1795 
Q 2575 1941 2106 2059 
L 1728 2156 
Q 1081 2325 845 2545 
Q 609 2766 609 3163 
Q 609 3859 1145 4304 
Q 1681 4750 2541 4750 
Q 2875 4750 3203 4690 
Q 3531 4631 3859 4513 
z
" transform="scale(0.015625)"/>
      <path id="DejaVuSans-Oblique-69" d="M 1172 4863 
L 1747 4863 
L 1606 4134 
L 1031 4134 
L 1172 4863 
z
M 909 3500 
L 1484 3500 
L 800 0 
L 225 0 
L 909 3500 
z
" transform="scale(0.015625)"/>
      <path id="DejaVuSans-2b" d="M 2944 4013 
L 2944 2272 
L 4684 2272 
L 4684 1741 
L 2944 1741 
L 2944 0 
L 2419 0 
L 2419 1741 
L 678 1741 
L 678 2272 
L 2419 2272 
L 2419 4013 
L 2944 4013 
z
" transform="scale(0.015625)"/>
      <path id="DejaVuSans-Oblique-50" d="M 1081 4666 
L 2541 4666 
Q 3178 4666 3512 4369 
Q 3847 4072 3847 3500 
Q 3847 2731 3353 2303 
Q 2859 1875 1966 1875 
L 1172 1875 
L 806 0 
L 172 0 
L 1081 4666 
z
M 1613 4147 
L 1275 2394 
L 2069 2394 
Q 2606 2394 2893 2669 
Q 3181 2944 3181 3456 
Q 3181 3784 2986 3965 
Q 2791 4147 2438 4147 
L 1613 4147 
z
" transform="scale(0.015625)"/>
     </defs>
     <use xlink:href="#DejaVuSans-Oblique-53" transform="translate(0 0.015625)"/>
     <use xlink:href="#DejaVuSans-Oblique-69" transform="translate(63.476562 0.015625)"/>
     <use xlink:href="#DejaVuSans-Oblique-4f" transform="translate(91.259766 0.015625)"/>
     <use xlink:href="#DejaVuSans-32" transform="translate(169.970703 -16.390625) scale(0.7)"/>
     <use xlink:href="#DejaVuSans-2b" transform="translate(236.723633 0.015625)"/>
     <use xlink:href="#DejaVuSans-Oblique-50" transform="translate(339.995117 0.015625)"/>
     <use xlink:href="#DejaVuSans-32" transform="translate(400.297852 -16.390625) scale(0.7)"/>
     <use xlink:href="#DejaVuSans-Oblique-4f" transform="translate(447.568359 0.015625)"/>
     <use xlink:href="#DejaVuSans-35" transform="translate(526.279297 -16.390625) scale(0.7)"/>
     <use xlink:href="#DejaVuSans-20" transform="translate(573.549805 0.015625)"/>
     <use xlink:href="#DejaVuSans-28" transform="translate(605.336914 0.015625)"/>
     <use xlink:href="#DejaVuSans-77" transform="translate(644.350586 0.015625)"/>
     <use xlink:href="#DejaVuSans-74" transform="translate(726.137695 0.015625)"/>
     <use xlink:href="#DejaVuSans-2e" transform="translate(765.34668 0.015625)"/>
     <use xlink:href="#DejaVuSans-20" transform="translate(797.133789 0.015625)"/>
     <use xlink:href="#DejaVuSans-25" transform="translate(828.920898 0.015625)"/>
     <use xlink:href="#DejaVuSans-29" transform="translate(923.94043 0.015625)"/>
    </g>
   </g>
  </g>
 </g>
 <defs>
  <clipPath id="p77999870b8">
   <rect x="15.008949" y="14.229393" width="195.3" height="190.26"/>
  </clipPath>
 </defs>
</svg>
