<svg xmlns="http://www.w3.org/2000/svg" xmlns:xlink="http://www.w3.org/1999/xlink" width="3.13in" height="3.19in" viewBox="0 0 225.16 229.46"><defs><style>.cls-1,.cls-10,.cls-11,.cls-12,.cls-16,.cls-18{fill:none;}.cls-2,.cls-4{fill:#fff;}.cls-3{clip-path:url(#clip-path);}.cls-4{stroke:#fff;isolation:isolate;opacity:0.7;}.cls-14,.cls-5{fill:#0e0e77;}.cls-5{stroke:#0e0e77;}.cls-10,.cls-11,.cls-12,.cls-16,.cls-18,.cls-5,.cls-6,.cls-7,.cls-8,.cls-9{stroke-linejoin:round;}.cls-13,.cls-6{fill:#0e7723;}.cls-18,.cls-6{stroke:#0e7723;}.cls-15,.cls-7{fill:#a15d11;}.cls-16,.cls-7{stroke:#a15d11;}.cls-10,.cls-12,.cls-8{stroke:#000;}.cls-17,.cls-9{fill:#626161;}.cls-9{stroke:#626161;}.cls-10,.cls-12{stroke-linecap:square;}.cls-10{stroke-width:1.5px;}.cls-11{stroke:blue;stroke-width:0.5px;stroke-dasharray:0.5 0.82;}</style><clipPath id="clip-path" transform="translate(0 0)"><rect class="cls-1" x="13.81" y="14.23" width="195.3" height="190.26"/></clipPath></defs><g id="Layer_1" data-name="Layer 1"><g id="patch_1" data-name="patch 1"><path class="cls-2" d="M0,229.46H225.16V0H0Z" transform="translate(0 0)"/></g><g class="cls-3"><path class="cls-4" d="M200.24,185.46,111.46,20.69,22.69,185.46Z" transform="translate(0 0)"/></g><g class="cls-3"><path id="me66c48fd98" class="cls-5" d="M155.85,158.3a2.49,2.49,0,1,0-1.77-.73A2.51,2.51,0,0,0,155.85,158.3Z" transform="translate(0 0)"/><path id="me66c48fd98-2" data-name="me66c48fd98" class="cls-5" d="M139,150.07a2.5,2.5,0,0,0,1.77-.74,2.5,2.5,0,0,0-3.53-3.53,2.51,2.51,0,0,0,1.76,4.27Z" transform="translate(0 0)"/></g><g class="cls-3"><path id="mbbf8be7f3f" class="cls-6" d="M149.64,153.36a2.48,2.48,0,0,0,1.76-.73,2.5,2.5,0,1,0-3.53,0A2.49,2.49,0,0,0,149.64,153.36Z" transform="translate(0 0)"/><path id="mbbf8be7f3f-2" data-name="mbbf8be7f3f" class="cls-6" d="M132.77,141.83a2.55,2.55,0,0,0,1.77-.73,2.5,2.5,0,1,0-3.54,0A2.55,2.55,0,0,0,132.77,141.83Z" transform="translate(0 0)"/></g><g class="cls-3"><path id="m3e934ba35f" class="cls-7" d="M159.4,112.17a2.49,2.49,0,1,0-1.77-.73A2.51,2.51,0,0,0,159.4,112.17Z" transform="translate(0 0)"/></g><g class="cls-3"><path id="m6545274d21" class="cls-8" d="M119.45,136.88a2.51,2.51,0,1,0-1.76-.73A2.49,2.49,0,0,0,119.45,136.88Z" transform="translate(0 0)"/><path id="m6545274d21-2" data-name="m6545274d21" class="cls-9" d="M143.42,122.06a2.52,2.52,0,0,0,1.77-.74,2.5,2.5,0,0,0-3.54-3.53,2.51,2.51,0,0,0,1.77,4.27Z" transform="translate(0 0)"/></g><g class="cls-3"><path class="cls-10" d="M22.69,185.46H200.24" transform="translate(0 0)"/></g><g class="cls-3"><path class="cls-10" d="M111.46,20.69,22.69,185.46" transform="translate(0 0)"/></g><g class="cls-3"><path class="cls-10" d="M111.46,20.69l88.78,164.77" transform="translate(0 0)"/></g><g class="cls-3"><path class="cls-11" d="M22.69,185.46H200.24" transform="translate(0 0)"/></g><g class="cls-3"><path class="cls-11" d="M31.57,169H191.36" transform="translate(0 0)"/></g><g class="cls-3"><path class="cls-11" d="M40.45,152.51h142" transform="translate(0 0)"/></g><g class="cls-3"><path class="cls-11" d="M49.32,136H173.6" transform="translate(0 0)"/></g><g class="cls-3"><path class="cls-11" d="M58.2,119.56H164.73" transform="translate(0 0)"/></g><g class="cls-3"><path class="cls-11" d="M67.08,103.08h88.77" transform="translate(0 0)"/></g><g class="cls-3"><path class="cls-11" d="M76,86.6h71" transform="translate(0 0)"/></g><g class="cls-3"><path class="cls-11" d="M84.83,70.12H138.1" transform="translate(0 0)"/></g><g class="cls-3"><path class="cls-11" d="M93.71,53.65h35.51" transform="translate(0 0)"/></g><g class="cls-3"><path class="cls-11" d="M102.59,37.17h17.75" transform="translate(0 0)"/></g><g class="cls-3"><path class="cls-11" d="M111.46,20.69,22.69,185.46" transform="translate(0 0)"/></g><g class="cls-3"><path class="cls-11" d="M111.46,20.69l88.78,164.77" transform="translate(0 0)"/></g><g class="cls-3"><path class="cls-11" d="M120.34,37.17,40.45,185.46" transform="translate(0 0)"/></g><g class="cls-3"><path class="cls-11" d="M102.59,37.17l79.89,148.29" transform="translate(0 0)"/></g><g class="cls-3"><path class="cls-11" d="M129.22,53.65l-71,131.81" transform="translate(0 0)"/></g><g class="cls-3"><path class="cls-11" d="M93.71,53.65l71,131.81" transform="translate(0 0)"/></g><g class="cls-3"><path class="cls-11" d="M138.1,70.12,76,185.46" transform="translate(0 0)"/></g><g class="cls-3"><path class="cls-11" d="M84.83,70.12,147,185.46" transform="translate(0 0)"/></g><g class="cls-3"><path class="cls-11" d="M147,86.6,93.71,185.46" transform="translate(0 0)"/></g><g class="cls-3"><path class="cls-11" d="M76,86.6l53.27,98.86" transform="translate(0 0)"/></g><g class="cls-3"><path class="cls-11" d="M155.85,103.08l-44.39,82.38" transform="translate(0 0)"/></g><g class="cls-3"><path class="cls-11" d="M67.08,103.08l44.38,82.38" transform="translate(0 0)"/></g><g class="cls-3"><path class="cls-11" d="M164.73,119.56l-35.51,65.9" transform="translate(0 0)"/></g><g class="cls-3"><path class="cls-11" d="M58.2,119.56l35.51,65.9" transform="translate(0 0)"/></g><g class="cls-3"><path class="cls-11" d="M173.6,136,147,185.46" transform="translate(0 0)"/></g><g class="cls-3"><path class="cls-11" d="M49.32,136,76,185.46" transform="translate(0 0)"/></g><g class="cls-3"><path class="cls-11" d="M182.48,152.51l-17.75,33" transform="translate(0 0)"/></g><g class="cls-3"><path class="cls-11" d="M40.45,152.51l17.75,33" transform="translate(0 0)"/></g><g class="cls-3"><path class="cls-11" d="M191.36,169l-8.88,16.47" transform="translate(0 0)"/></g><g class="cls-3"><path class="cls-11" d="M31.57,169l8.88,16.47" transform="translate(0 0)"/></g><g class="cls-3"><path class="cls-11" d="M200.24,185.46h0" transform="translate(0 0)"/></g><g class="cls-3"><path class="cls-11" d="M22.69,185.46h0" transform="translate(0 0)"/></g><g class="cls-3"><path class="cls-12" d="M200.24,185.46h5.32" transform="translate(0 0)"/></g><g class="cls-3"><path class="cls-12" d="M191.36,169h5.33" transform="translate(0 0)"/></g><g class="cls-3"><path class="cls-12" d="M182.48,152.51h5.33" transform="translate(0 0)"/></g><g class="cls-3"><path class="cls-12" d="M173.6,136h5.33" transform="translate(0 0)"/></g><g class="cls-3"><path class="cls-12" d="M164.73,119.56h5.32" transform="translate(0 0)"/></g><g class="cls-3"><path class="cls-12" d="M155.85,103.08h5.33" transform="translate(0 0)"/></g><g class="cls-3"><path class="cls-12" d="M147,86.6h5.33" transform="translate(0 0)"/></g><g class="cls-3"><path class="cls-12" d="M138.1,70.12h5.32" transform="translate(0 0)"/></g><g class="cls-3"><path class="cls-12" d="M129.22,53.65h5.32" transform="translate(0 0)"/></g><g class="cls-3"><path class="cls-12" d="M120.34,37.17h5.33" transform="translate(0 0)"/></g><g class="cls-3"><path class="cls-12" d="M111.46,20.69h5.33" transform="translate(0 0)"/></g><g class="cls-3"><path class="cls-12" d="M22.69,185.46,20,180.52" transform="translate(0 0)"/></g><g class="cls-3"><path class="cls-12" d="M31.57,169l-2.66-5" transform="translate(0 0)"/></g><g class="cls-3"><path class="cls-12" d="M40.45,152.51l-2.67-4.94" transform="translate(0 0)"/></g><g class="cls-3"><path class="cls-12" d="M49.32,136l-2.66-4.94" transform="translate(0 0)"/></g><g class="cls-3"><path class="cls-12" d="M58.2,119.56l-2.66-5" transform="translate(0 0)"/></g><g class="cls-3"><path class="cls-12" d="M67.08,103.08l-2.67-4.94" transform="translate(0 0)"/></g><g class="cls-3"><path class="cls-12" d="M76,86.6l-2.66-4.94" transform="translate(0 0)"/></g><g class="cls-3"><path class="cls-12" d="M84.83,70.12l-2.66-4.94" transform="translate(0 0)"/></g><g class="cls-3"><path class="cls-12" d="M93.71,53.65,91.05,48.7" transform="translate(0 0)"/></g><g class="cls-3"><path class="cls-12" d="M102.59,37.17l-2.67-4.94" transform="translate(0 0)"/></g><g class="cls-3"><path class="cls-12" d="M111.46,20.69l-2.66-4.94" transform="translate(0 0)"/></g><g class="cls-3"><path class="cls-12" d="M22.69,185.46,20,190.41" transform="translate(0 0)"/></g><g class="cls-3"><path class="cls-12" d="M40.45,185.46l-2.67,4.95" transform="translate(0 0)"/></g><g class="cls-3"><path class="cls-12" d="M58.2,185.46l-2.66,4.95" transform="translate(0 0)"/></g><g class="cls-3"><path class="cls-12" d="M76,185.46l-2.66,4.95" transform="translate(0 0)"/></g><g class="cls-3"><path class="cls-12" d="M93.71,185.46l-2.66,4.95" transform="translate(0 0)"/></g><g class="cls-3"><path class="cls-12" d="M111.46,185.46l-2.66,4.95" transform="translate(0 0)"/></g><g class="cls-3"><path class="cls-12" d="M129.22,185.46l-2.66,4.95" transform="translate(0 0)"/></g><g class="cls-3"><path class="cls-12" d="M147,185.46l-2.66,4.95" transform="translate(0 0)"/></g><g class="cls-3"><path class="cls-12" d="M164.73,185.46l-2.67,4.95" transform="translate(0 0)"/></g><g class="cls-3"><path class="cls-12" d="M182.48,185.46l-2.66,4.95" transform="translate(0 0)"/></g><g class="cls-3"><path class="cls-12" d="M200.24,185.46l-2.67,4.95" transform="translate(0 0)"/></g><path id="DejaVuSans-30" d="M215.41,182.62a1,1,0,0,0-.91.6,5.38,5.38,0,0,0,0,3.6,1,1,0,0,0,1.83,0,5.38,5.38,0,0,0,0-3.6A1,1,0,0,0,215.41,182.62Zm0-.62a1.69,1.69,0,0,1,1.5.77,4,4,0,0,1,.52,2.25,4,4,0,0,1-.52,2.25,1.82,1.82,0,0,1-3,0,4,4,0,0,1-.52-2.25,4,4,0,0,1,.52-2.25A1.69,1.69,0,0,1,215.41,182Z" transform="translate(0 0)"/><path id="DejaVuSans-31" d="M202.44,170.79h1.29v-4.45l-1.4.29v-.72l1.39-.28h.79v5.16h1.29v.67h-3.36Z" transform="translate(0 0)"/><path id="DejaVuSans-30-2" data-name="DejaVuSans-30" d="M209.08,166.15a1,1,0,0,0-.91.6,5.38,5.38,0,0,0,0,3.6,1,1,0,0,0,1.83,0,5.38,5.38,0,0,0,0-3.6A1,1,0,0,0,209.08,166.15Zm0-.63a1.68,1.68,0,0,1,1.5.78,4,4,0,0,1,.52,2.25,4,4,0,0,1-.52,2.25,1.69,1.69,0,0,1-1.5.77,1.71,1.71,0,0,1-1.5-.77,4.12,4.12,0,0,1-.51-2.25,4.07,4.07,0,0,1,.51-2.25A1.7,1.7,0,0,1,209.08,165.52Z" transform="translate(0 0)"/><path id="DejaVuSans-32" d="M194.11,154.32h2.75V155h-3.7v-.66l1.22-1.25c.52-.52.84-.86,1-1a3.59,3.59,0,0,0,.53-.72,1.28,1.28,0,0,0,.15-.58,1,1,0,0,0-.33-.76,1.25,1.25,0,0,0-.85-.29,2.45,2.45,0,0,0-.78.13,3.9,3.9,0,0,0-.88.39v-.8a6.12,6.12,0,0,1,.89-.29,3.61,3.61,0,0,1,.76-.1,2.13,2.13,0,0,1,1.44.46,1.49,1.49,0,0,1,.54,1.21,1.76,1.76,0,0,1-.14.68,3,3,0,0,1-.49.76l-.62.65Z" transform="translate(0 0)"/><path id="DejaVuSans-30-3" data-name="DejaVuSans-30" d="M200.2,149.67a1,1,0,0,0-.91.6,5.38,5.38,0,0,0,0,3.6,1,1,0,0,0,1.83,0,5.38,5.38,0,0,0,0-3.6A1,1,0,0,0,200.2,149.67Zm0-.63a1.68,1.68,0,0,1,1.5.78,5.13,5.13,0,0,1,0,4.5,1.84,1.84,0,0,1-3,0,5.13,5.13,0,0,1,0-4.5A1.67,1.67,0,0,1,200.2,149Z" transform="translate(0 0)"/><path id="DejaVuSans-33" d="M186.94,135.36a1.51,1.51,0,0,1,.88.5,1.4,1.4,0,0,1,.32.95,1.62,1.62,0,0,1-.59,1.34,2.7,2.7,0,0,1-1.69.47,5,5,0,0,1-.75-.07,7,7,0,0,1-.81-.22v-.76a3.29,3.29,0,0,0,.72.29,3.68,3.68,0,0,0,.82.09,1.83,1.83,0,0,0,1.13-.29,1.11,1.11,0,0,0,0-1.66,1.6,1.6,0,0,0-1-.29h-.68v-.65H186a1.41,1.41,0,0,0,.89-.23.77.77,0,0,0,.31-.67.79.79,0,0,0-.32-.69,1.47,1.47,0,0,0-.91-.24,3.44,3.44,0,0,0-.69.07,6.79,6.79,0,0,0-.82.22v-.7a6.19,6.19,0,0,1,.84-.19,4.91,4.91,0,0,1,.74-.06,2.18,2.18,0,0,1,1.42.41,1.31,1.31,0,0,1,.53,1.1,1.29,1.29,0,0,1-.28.82A1.51,1.51,0,0,1,186.94,135.36Z" transform="translate(0 0)"/><path id="DejaVuSans-30-4" data-name="DejaVuSans-30" d="M191.33,133.19a1,1,0,0,0-.92.6,5.38,5.38,0,0,0,0,3.6,1,1,0,0,0,1.84,0,5.55,5.55,0,0,0,0-3.6A1,1,0,0,0,191.33,133.19Zm0-.62a1.71,1.71,0,0,1,1.5.77,4.12,4.12,0,0,1,.51,2.25,4.07,4.07,0,0,1-.51,2.25,1.7,1.7,0,0,1-1.5.78,1.68,1.68,0,0,1-1.5-.78,4,4,0,0,1-.52-2.25,4,4,0,0,1,.52-2.25A1.69,1.69,0,0,1,191.33,132.57Z" transform="translate(0 0)"/><path id="DejaVuSans-34" d="M177.84,116.88l-2,3.12h2Zm-.21-.69h1V120h.83v.65h-.83V122h-.79v-1.38h-2.63v-.76Z" transform="translate(0 0)"/><path id="DejaVuSans-30-5" data-name="DejaVuSans-30" d="M182.45,116.71a1,1,0,0,0-.92.6,5.58,5.58,0,0,0,0,3.61,1,1,0,0,0,1.84,0,5.41,5.41,0,0,0,0-3.61A1,1,0,0,0,182.45,116.71Zm0-.62a1.7,1.7,0,0,1,1.5.78,4.07,4.07,0,0,1,.52,2.25,4.11,4.11,0,0,1-.52,2.25,1.85,1.85,0,0,1-3,0,4.11,4.11,0,0,1-.52-2.25,4.07,4.07,0,0,1,.52-2.25A1.7,1.7,0,0,1,182.45,116.09Z" transform="translate(0 0)"/><path id="DejaVuSans-35" d="M166.8,99.72h3.1v.66h-2.37v1.43a1.89,1.89,0,0,1,.34-.09,2,2,0,0,1,.34,0,2.17,2.17,0,0,1,1.55.54,1.9,1.9,0,0,1,.57,1.45,1.85,1.85,0,0,1-.58,1.46,2.43,2.43,0,0,1-1.66.52,4.89,4.89,0,0,1-1.53-.25v-.79a2.76,2.76,0,0,0,.72.28,3,3,0,0,0,.8.1,1.54,1.54,0,0,0,1.07-.36,1.21,1.21,0,0,0,.39-1,1.25,1.25,0,0,0-.39-1,1.58,1.58,0,0,0-1.07-.35,2.7,2.7,0,0,0-.63.07,3.56,3.56,0,0,0-.65.22Z" transform="translate(0 0)"/><path id="DejaVuSans-30-6" data-name="DejaVuSans-30" d="M173.57,100.24a1,1,0,0,0-.91.6,5.38,5.38,0,0,0,0,3.6,1,1,0,0,0,1.83,0,5.38,5.38,0,0,0,0-3.6A1,1,0,0,0,173.57,100.24Zm0-.63a1.68,1.68,0,0,1,1.5.78,5.13,5.13,0,0,1,0,4.5,1.84,1.84,0,0,1-3,0,5.13,5.13,0,0,1,0-4.5A1.67,1.67,0,0,1,173.57,99.61Z" transform="translate(0 0)"/><path id="DejaVuSans-36" d="M159.7,85.84a1,1,0,0,0-.84.37,1.5,1.5,0,0,0-.31,1,1.55,1.55,0,0,0,.31,1,1.17,1.17,0,0,0,1.69,0,1.55,1.55,0,0,0,.31-1,1.5,1.5,0,0,0-.31-1A1,1,0,0,0,159.7,85.84Zm1.57-2.47v.72a2.91,2.91,0,0,0-.6-.22,2.46,2.46,0,0,0-.6-.07,1.42,1.42,0,0,0-1.19.53,2.78,2.78,0,0,0-.47,1.59,1.49,1.49,0,0,1,.57-.52,1.68,1.68,0,0,1,.77-.18,1.85,1.85,0,0,1,1.39.53,2,2,0,0,1,.51,1.45,2,2,0,0,1-.53,1.44,1.88,1.88,0,0,1-1.42.55,1.75,1.75,0,0,1-1.54-.78,3.94,3.94,0,0,1-.54-2.25,3.41,3.41,0,0,1,.66-2.2,2.13,2.13,0,0,1,1.76-.82,4,4,0,0,1,.6,0A4.34,4.34,0,0,1,161.27,83.37Z" transform="translate(0 0)"/><path id="DejaVuSans-30-7" data-name="DejaVuSans-30" d="M164.7,83.76a1,1,0,0,0-.92.6,5.38,5.38,0,0,0,0,3.6,1,1,0,0,0,.92.6,1,1,0,0,0,.92-.6,5.55,5.55,0,0,0,0-3.6A1,1,0,0,0,164.7,83.76Zm0-.62a1.66,1.66,0,0,1,1.49.77,5.13,5.13,0,0,1,0,4.5,1.82,1.82,0,0,1-3,0,5.13,5.13,0,0,1,0-4.5A1.67,1.67,0,0,1,164.7,83.14Z" transform="translate(0 0)"/><path id="DejaVuSans-37" d="M148.84,66.76h3.75v.34l-2.12,5.5h-.82l2-5.17h-2.8Z" transform="translate(0 0)"/><path id="DejaVuSans-30-8" data-name="DejaVuSans-30" d="M155.82,67.28a1,1,0,0,0-.92.6,4.2,4.2,0,0,0-.3,1.81,4.13,4.13,0,0,0,.3,1.79,1,1,0,0,0,1.84,0,4.11,4.11,0,0,0,.31-1.79,4.18,4.18,0,0,0-.31-1.81A1,1,0,0,0,155.82,67.28Zm0-.62a1.71,1.71,0,0,1,1.5.77,4.13,4.13,0,0,1,.51,2.26,4.06,4.06,0,0,1-.51,2.24,1.83,1.83,0,0,1-3,0,4.05,4.05,0,0,1-.52-2.24,4.13,4.13,0,0,1,.52-2.26A1.7,1.7,0,0,1,155.82,66.66Z" transform="translate(0 0)"/><path id="DejaVuSans-38" d="M141.85,53.35a1.24,1.24,0,0,0-.88.3,1.21,1.21,0,0,0,0,1.66,1.24,1.24,0,0,0,.88.3,1.26,1.26,0,0,0,.89-.3,1.11,1.11,0,0,0,.32-.83,1.1,1.1,0,0,0-.32-.83A1.24,1.24,0,0,0,141.85,53.35Zm-.79-.34a1.41,1.41,0,0,1-.79-.47,1.28,1.28,0,0,1-.28-.85,1.33,1.33,0,0,1,.5-1.1,2.08,2.08,0,0,1,1.36-.41,2.11,2.11,0,0,1,1.37.41,1.35,1.35,0,0,1,.49,1.1,1.28,1.28,0,0,1-.28.85,1.41,1.41,0,0,1-.79.47,1.62,1.62,0,0,1,.89.52,1.47,1.47,0,0,1,.32.95,1.62,1.62,0,0,1-.52,1.3,2.66,2.66,0,0,1-3,0,1.62,1.62,0,0,1-.52-1.3,1.47,1.47,0,0,1,.32-.95A1.66,1.66,0,0,1,141.06,53Zm-.29-1.24a.89.89,0,0,0,.29.7,1.14,1.14,0,0,0,.79.26,1.17,1.17,0,0,0,.8-.26.88.88,0,0,0,.28-.7.91.91,0,0,0-.28-.71,1.16,1.16,0,0,0-.8-.25,1.14,1.14,0,0,0-.79.25A.91.91,0,0,0,140.77,51.77Z" transform="translate(0 0)"/><path id="DejaVuSans-30-9" data-name="DejaVuSans-30" d="M146.94,50.81a1,1,0,0,0-.92.6,5.55,5.55,0,0,0,0,3.6,1,1,0,0,0,1.84,0,5.38,5.38,0,0,0,0-3.6A1,1,0,0,0,146.94,50.81Zm0-.63a1.7,1.7,0,0,1,1.5.78,4.07,4.07,0,0,1,.52,2.25,4.11,4.11,0,0,1-.52,2.25,1.85,1.85,0,0,1-3,0,4.12,4.12,0,0,1-.51-2.25,4.07,4.07,0,0,1,.51-2.25A1.7,1.7,0,0,1,146.94,50.18Z" transform="translate(0 0)"/><path id="DejaVuSans-39" d="M131.31,39.52V38.8a2.91,2.91,0,0,0,.6.22,2.46,2.46,0,0,0,.6.07,1.41,1.41,0,0,0,1.19-.52,2.81,2.81,0,0,0,.47-1.6,1.58,1.58,0,0,1-.57.52,1.65,1.65,0,0,1-.77.18,1.86,1.86,0,0,1-1.39-.53,2,2,0,0,1-.51-1.45,2,2,0,0,1,.54-1.44,1.88,1.88,0,0,1,1.41-.55,1.75,1.75,0,0,1,1.54.78,3.94,3.94,0,0,1,.54,2.25,3.41,3.41,0,0,1-.66,2.2,2.12,2.12,0,0,1-1.76.83,3.21,3.21,0,0,1-.6-.06A4.34,4.34,0,0,1,131.31,39.52Zm1.57-2.47a1.06,1.06,0,0,0,.84-.36,1.77,1.77,0,0,0,0-2,1.16,1.16,0,0,0-1.68,0,1.77,1.77,0,0,0,0,2A1.06,1.06,0,0,0,132.88,37.05Z" transform="translate(0 0)"/><path id="DejaVuSans-30-10" data-name="DejaVuSans-30" d="M138.06,34.33a1,1,0,0,0-.91.6,4,4,0,0,0-.31,1.8,4,4,0,0,0,.31,1.8,1,1,0,0,0,1.83,0,4,4,0,0,0,.31-1.8,4,4,0,0,0-.31-1.8A1,1,0,0,0,138.06,34.33Zm0-.63a1.68,1.68,0,0,1,1.5.78,4,4,0,0,1,.52,2.25,4,4,0,0,1-.52,2.25,1.82,1.82,0,0,1-3,0,4,4,0,0,1-.52-2.25,4,4,0,0,1,.52-2.25A1.67,1.67,0,0,1,138.06,33.7Z" transform="translate(0 0)"/><path id="DejaVuSans-31-2" data-name="DejaVuSans-31" d="M120,22.5h1.29V18.05l-1.4.28v-.72l1.39-.28h.79V22.5h1.29v.66H120Z" transform="translate(0 0)"/><path id="DejaVuSans-30-11" data-name="DejaVuSans-30" d="M126.64,17.85a1,1,0,0,0-.92.6,4.18,4.18,0,0,0-.3,1.8,4.18,4.18,0,0,0,.3,1.8,1,1,0,0,0,.92.6,1,1,0,0,0,.92-.6,4,4,0,0,0,.31-1.8,4,4,0,0,0-.31-1.8A1,1,0,0,0,126.64,17.85Zm0-.62a1.7,1.7,0,0,1,1.5.77,4.11,4.11,0,0,1,.52,2.25,4.07,4.07,0,0,1-.52,2.25,1.83,1.83,0,0,1-3,0,4.07,4.07,0,0,1-.51-2.25,4.12,4.12,0,0,1,.51-2.25A1.71,1.71,0,0,1,126.64,17.23Z" transform="translate(0 0)"/><path id="DejaVuSans-30-12" data-name="DejaVuSans-30" d="M131.73,17.85a1,1,0,0,0-.92.6,4.18,4.18,0,0,0-.3,1.8,4.18,4.18,0,0,0,.3,1.8,1,1,0,0,0,.92.6,1,1,0,0,0,.92-.6,4,4,0,0,0,.31-1.8,4,4,0,0,0-.31-1.8A1,1,0,0,0,131.73,17.85Zm0-.62a1.7,1.7,0,0,1,1.5.77,4.11,4.11,0,0,1,.52,2.25,4.07,4.07,0,0,1-.52,2.25,1.83,1.83,0,0,1-3,0,4.07,4.07,0,0,1-.51-2.25,4.12,4.12,0,0,1,.51-2.25A1.71,1.71,0,0,1,131.73,17.23Z" transform="translate(0 0)"/><path id="DejaVuSans-31-3" data-name="DejaVuSans-31" d="M9.39,177.38h1.29v-4.45l-1.4.29v-.72l1.39-.28h.79v5.16h1.29v.67H9.39Z" transform="translate(0 0)"/><path id="DejaVuSans-30-13" data-name="DejaVuSans-30" d="M16,172.74a1,1,0,0,0-.92.6,5.55,5.55,0,0,0,0,3.6,1,1,0,0,0,1.84,0,5.38,5.38,0,0,0,0-3.6A1,1,0,0,0,16,172.74Zm0-.63a1.7,1.7,0,0,1,1.5.78,4.07,4.07,0,0,1,.52,2.25,4.11,4.11,0,0,1-.52,2.25,1.85,1.85,0,0,1-3,0,4.12,4.12,0,0,1-.51-2.25,4.07,4.07,0,0,1,.51-2.25A1.7,1.7,0,0,1,16,172.11Z" transform="translate(0 0)"/><path id="DejaVuSans-30-14" data-name="DejaVuSans-30" d="M21.12,172.74a1,1,0,0,0-.92.6,5.55,5.55,0,0,0,0,3.6,1,1,0,0,0,1.84,0,5.38,5.38,0,0,0,0-3.6A1,1,0,0,0,21.12,172.74Zm0-.63a1.7,1.7,0,0,1,1.5.78,4.07,4.07,0,0,1,.52,2.25,4.11,4.11,0,0,1-.52,2.25,1.85,1.85,0,0,1-3,0,4.12,4.12,0,0,1-.51-2.25,4.07,4.07,0,0,1,.51-2.25A1.7,1.7,0,0,1,21.12,172.11Z" transform="translate(0 0)"/><path id="DejaVuSans-39-2" data-name="DejaVuSans-39" d="M20.7,161.45v-.72a2.91,2.91,0,0,0,.6.22,2.46,2.46,0,0,0,.6.07,1.41,1.41,0,0,0,1.19-.52,2.81,2.81,0,0,0,.47-1.6,1.58,1.58,0,0,1-.57.52,1.65,1.65,0,0,1-.77.18,1.86,1.86,0,0,1-1.39-.53,2,2,0,0,1-.51-1.45,2,2,0,0,1,.54-1.44,1.88,1.88,0,0,1,1.41-.55,1.75,1.75,0,0,1,1.54.78,3.94,3.94,0,0,1,.54,2.25,3.41,3.41,0,0,1-.66,2.2,2.12,2.12,0,0,1-1.76.83,3.13,3.13,0,0,1-.6-.06A4.34,4.34,0,0,1,20.7,161.45ZM22.27,159a1.06,1.06,0,0,0,.84-.36,1.77,1.77,0,0,0,0-2,1.06,1.06,0,0,0-.84-.36,1,1,0,0,0-.84.36,1.77,1.77,0,0,0,0,2A1,1,0,0,0,22.27,159Z" transform="translate(0 0)"/><path id="DejaVuSans-30-15" data-name="DejaVuSans-30" d="M27.45,156.26a1,1,0,0,0-.91.6,5.38,5.38,0,0,0,0,3.6,1,1,0,0,0,1.83,0,5.38,5.38,0,0,0,0-3.6A1,1,0,0,0,27.45,156.26Zm0-.63a1.68,1.68,0,0,1,1.5.78,5.13,5.13,0,0,1,0,4.5,1.82,1.82,0,0,1-3,0,5.13,5.13,0,0,1,0-4.5A1.67,1.67,0,0,1,27.45,155.63Z" transform="translate(0 0)"/><path id="DejaVuSans-38-2" data-name="DejaVuSans-38" d="M31.24,142.32a1.24,1.24,0,0,0-.88.31,1.2,1.2,0,0,0,0,1.65,1.24,1.24,0,0,0,.88.3,1.26,1.26,0,0,0,.89-.3,1.1,1.1,0,0,0,.32-.83,1.08,1.08,0,0,0-.32-.82A1.27,1.27,0,0,0,31.24,142.32Zm-.79-.33a1.41,1.41,0,0,1-.79-.47,1.32,1.32,0,0,1-.28-.85,1.33,1.33,0,0,1,.5-1.11,2.08,2.08,0,0,1,1.36-.4,2.11,2.11,0,0,1,1.37.4,1.35,1.35,0,0,1,.49,1.11,1.32,1.32,0,0,1-.28.85A1.41,1.41,0,0,1,32,142a1.56,1.56,0,0,1,.89.52,1.45,1.45,0,0,1,.32.94,1.65,1.65,0,0,1-.52,1.31,2.66,2.66,0,0,1-3,0,1.65,1.65,0,0,1-.52-1.31,1.45,1.45,0,0,1,.32-.94A1.56,1.56,0,0,1,30.45,142Zm-.29-1.25a.9.9,0,0,0,.29.71,1.12,1.12,0,0,0,.79.25,1.18,1.18,0,0,0,.8-.25A1,1,0,0,0,32,140a1.18,1.18,0,0,0-.8-.26,1.12,1.12,0,0,0-.79.26A.89.89,0,0,0,30.16,140.74Z" transform="translate(0 0)"/><path id="DejaVuSans-30-16" data-name="DejaVuSans-30" d="M36.33,139.78a1,1,0,0,0-.92.6,5.55,5.55,0,0,0,0,3.6,1,1,0,0,0,1.84,0,5.38,5.38,0,0,0,0-3.6A1,1,0,0,0,36.33,139.78Zm0-.62a1.71,1.71,0,0,1,1.5.77,4.11,4.11,0,0,1,.52,2.25,4.07,4.07,0,0,1-.52,2.25,1.83,1.83,0,0,1-3,0,4.07,4.07,0,0,1-.52-2.25,4.11,4.11,0,0,1,.52-2.25A1.71,1.71,0,0,1,36.33,139.16Z" transform="translate(0 0)"/><path id="DejaVuSans-37-2" data-name="DejaVuSans-37" d="M38.23,122.79H42v.33l-2.12,5.5H39l2-5.17h-2.8Z" transform="translate(0 0)"/><path id="DejaVuSans-30-17" data-name="DejaVuSans-30" d="M45.21,123.31a1,1,0,0,0-.92.6,5.38,5.38,0,0,0,0,3.6,1,1,0,0,0,1.84,0,5.55,5.55,0,0,0,0-3.6A1,1,0,0,0,45.21,123.31Zm0-.63a1.7,1.7,0,0,1,1.5.78,4.07,4.07,0,0,1,.51,2.25,4.12,4.12,0,0,1-.51,2.25,1.71,1.71,0,0,1-1.5.77,1.69,1.69,0,0,1-1.5-.77,4,4,0,0,1-.52-2.25,4,4,0,0,1,.52-2.25A1.68,1.68,0,0,1,45.21,122.68Z" transform="translate(0 0)"/><path id="DejaVuSans-36-2" data-name="DejaVuSans-36" d="M49.09,108.91a1.06,1.06,0,0,0-.84.36,1.5,1.5,0,0,0-.31,1,1.45,1.45,0,0,0,.31,1,1,1,0,0,0,.84.37,1,1,0,0,0,.84-.37,1.45,1.45,0,0,0,.31-1,1.5,1.5,0,0,0-.31-1A1,1,0,0,0,49.09,108.91Zm1.57-2.47v.72a2.91,2.91,0,0,0-.6-.22,2.46,2.46,0,0,0-.6-.07,1.41,1.41,0,0,0-1.19.52,2.84,2.84,0,0,0-.47,1.6,1.49,1.49,0,0,1,.57-.52,1.68,1.68,0,0,1,.77-.18,1.81,1.81,0,0,1,1.39.53,2,2,0,0,1,.51,1.45,2,2,0,0,1-.53,1.44,1.91,1.91,0,0,1-1.42.54,1.74,1.74,0,0,1-1.54-.77,3.94,3.94,0,0,1-.54-2.25,3.39,3.39,0,0,1,.66-2.2,2.12,2.12,0,0,1,1.76-.83,3.05,3.05,0,0,1,.6.06A4.34,4.34,0,0,1,50.66,106.44Z" transform="translate(0 0)"/><path id="DejaVuSans-30-18" data-name="DejaVuSans-30" d="M54.08,106.83a1,1,0,0,0-.91.6,5.38,5.38,0,0,0,0,3.6A1,1,0,0,0,55,111a5.38,5.38,0,0,0,0-3.6A1,1,0,0,0,54.08,106.83Zm0-.63a1.68,1.68,0,0,1,1.5.78,5.13,5.13,0,0,1,0,4.5,1.84,1.84,0,0,1-3,0,5.13,5.13,0,0,1,0-4.5A1.67,1.67,0,0,1,54.08,106.2Z" transform="translate(0 0)"/><path id="DejaVuSans-35-2" data-name="DejaVuSans-35" d="M56.19,89.83h3.1v.67H56.92v1.43a1.89,1.89,0,0,1,.34-.09,2,2,0,0,1,.34,0,2.21,2.21,0,0,1,1.55.53,1.9,1.9,0,0,1,.57,1.45,1.84,1.84,0,0,1-.59,1.47,2.43,2.43,0,0,1-1.65.52,4.93,4.93,0,0,1-.75-.06c-.25,0-.51-.11-.78-.19v-.8a2.79,2.79,0,0,0,.72.29,3.44,3.44,0,0,0,.8.09,1.58,1.58,0,0,0,1.07-.35,1.39,1.39,0,0,0,0-1.93,1.54,1.54,0,0,0-1.07-.36,3.39,3.39,0,0,0-.64.07,3.75,3.75,0,0,0-.64.22Z" transform="translate(0 0)"/><path id="DejaVuSans-30-19" data-name="DejaVuSans-30" d="M63,90.35a1,1,0,0,0-.91.6,5.38,5.38,0,0,0,0,3.6,1,1,0,0,0,1.83,0,5.38,5.38,0,0,0,0-3.6A1,1,0,0,0,63,90.35Zm0-.62a1.69,1.69,0,0,1,1.5.77A4,4,0,0,1,65,92.75,4,4,0,0,1,64.46,95a1.68,1.68,0,0,1-1.5.78,1.7,1.7,0,0,1-1.5-.78A4.07,4.07,0,0,1,61,92.75a4.12,4.12,0,0,1,.51-2.25A1.71,1.71,0,0,1,63,89.73Z" transform="translate(0 0)"/><path id="DejaVuSans-34-2" data-name="DejaVuSans-34" d="M67.23,74l-2,3.12h2ZM67,73.35h1v3.81h.83v.65H68v1.38h-.79V77.81H64.6v-.76Z" transform="translate(0 0)"/><path id="DejaVuSans-30-20" data-name="DejaVuSans-30" d="M71.84,73.87a1,1,0,0,0-.92.6,5.58,5.58,0,0,0,0,3.61,1,1,0,0,0,1.84,0,5.41,5.41,0,0,0,0-3.61A1,1,0,0,0,71.84,73.87Zm0-.62a1.7,1.7,0,0,1,1.5.78,4.07,4.07,0,0,1,.52,2.25,4.11,4.11,0,0,1-.52,2.25,1.85,1.85,0,0,1-3,0,4.11,4.11,0,0,1-.52-2.25A4.07,4.07,0,0,1,70.34,74,1.7,1.7,0,0,1,71.84,73.25Z" transform="translate(0 0)"/><path id="DejaVuSans-33-2" data-name="DejaVuSans-33" d="M76.33,59.56a1.52,1.52,0,0,1,.88.51,1.38,1.38,0,0,1,.32.94,1.62,1.62,0,0,1-.59,1.34,2.64,2.64,0,0,1-1.69.47,4,4,0,0,1-.75-.07,5.46,5.46,0,0,1-.81-.22v-.76a2.53,2.53,0,0,0,.72.29,3.12,3.12,0,0,0,.82.1,1.9,1.9,0,0,0,1.13-.29,1,1,0,0,0,.39-.86,1,1,0,0,0-.36-.8,1.54,1.54,0,0,0-1-.29H74.7v-.65h.71A1.48,1.48,0,0,0,76.3,59a.89.89,0,0,0,0-1.36,1.47,1.47,0,0,0-.91-.24,3.37,3.37,0,0,0-.69.07,6.62,6.62,0,0,0-.82.21V57c.3-.08.58-.14.84-.19a4.91,4.91,0,0,1,.74-.06,2.26,2.26,0,0,1,1.42.41,1.32,1.32,0,0,1,.53,1.1,1.25,1.25,0,0,1-.28.82A1.45,1.45,0,0,1,76.33,59.56Z" transform="translate(0 0)"/><path id="DejaVuSans-30-21" data-name="DejaVuSans-30" d="M80.72,57.4a1,1,0,0,0-.92.6,5.38,5.38,0,0,0,0,3.6,1,1,0,0,0,1.84,0,5.55,5.55,0,0,0,0-3.6A1,1,0,0,0,80.72,57.4Zm0-.63a1.7,1.7,0,0,1,1.5.78,5.22,5.22,0,0,1,0,4.5,1.69,1.69,0,0,1-1.5.77,1.67,1.67,0,0,1-1.5-.77,5.13,5.13,0,0,1,0-4.5A1.68,1.68,0,0,1,80.72,56.77Z" transform="translate(0 0)"/><path id="DejaVuSans-32-2" data-name="DejaVuSans-32" d="M83.5,45.57h2.75v.66h-3.7v-.66c.3-.31.7-.73,1.22-1.25s.84-.86,1-1a3.47,3.47,0,0,0,.52-.72,1.18,1.18,0,0,0,.16-.58,1,1,0,0,0-.33-.76,1.25,1.25,0,0,0-.85-.29,2.45,2.45,0,0,0-.78.13,3.9,3.9,0,0,0-.88.39v-.8a6.12,6.12,0,0,1,.89-.29,3.55,3.55,0,0,1,.75-.09,2.19,2.19,0,0,1,1.45.45A1.49,1.49,0,0,1,86.22,42a1.72,1.72,0,0,1-.14.68,3.07,3.07,0,0,1-.49.76c-.06.08-.27.29-.62.66Z" transform="translate(0 0)"/><path id="DejaVuSans-30-22" data-name="DejaVuSans-30" d="M89.59,40.92a1,1,0,0,0-.91.6,4,4,0,0,0-.31,1.8,4,4,0,0,0,.31,1.8,1,1,0,0,0,1.83,0,4,4,0,0,0,.31-1.8,4,4,0,0,0-.31-1.8A1,1,0,0,0,89.59,40.92Zm0-.62a1.67,1.67,0,0,1,1.5.77,4,4,0,0,1,.52,2.25,4,4,0,0,1-.52,2.25,1.82,1.82,0,0,1-3,0,4,4,0,0,1-.52-2.25,4,4,0,0,1,.52-2.25A1.66,1.66,0,0,1,89.59,40.3Z" transform="translate(0 0)"/><path id="DejaVuSans-31-4" data-name="DejaVuSans-31" d="M91.83,29.09h1.29V24.64l-1.4.28V24.2l1.39-.28h.79v5.17h1.29v.67H91.83Z" transform="translate(0 0)"/><path id="DejaVuSans-30-23" data-name="DejaVuSans-30" d="M98.47,24.44a1,1,0,0,0-.92.6,4.2,4.2,0,0,0-.3,1.81,4.16,4.16,0,0,0,.3,1.79,1,1,0,0,0,1.84,0,4,4,0,0,0,.31-1.79A4,4,0,0,0,99.39,25,1,1,0,0,0,98.47,24.44Zm0-.62a1.71,1.71,0,0,1,1.5.77,4.13,4.13,0,0,1,.52,2.26,4.05,4.05,0,0,1-.52,2.24,1.83,1.83,0,0,1-3,0,4.06,4.06,0,0,1-.51-2.24A4.13,4.13,0,0,1,97,24.59,1.71,1.71,0,0,1,98.47,23.82Z" transform="translate(0 0)"/><path id="DejaVuSans-30-24" data-name="DejaVuSans-30" d="M104.8,8a1,1,0,0,0-.91.6,4,4,0,0,0-.31,1.8,4,4,0,0,0,.31,1.8,1,1,0,0,0,1.83,0,4,4,0,0,0,.31-1.8,4,4,0,0,0-.31-1.8A1,1,0,0,0,104.8,8Zm0-.63a1.68,1.68,0,0,1,1.5.78,4,4,0,0,1,.52,2.25,4,4,0,0,1-.52,2.25,1.84,1.84,0,0,1-3,0,4,4,0,0,1-.52-2.25,4,4,0,0,1,.52-2.25A1.67,1.67,0,0,1,104.8,7.34Z" transform="translate(0 0)"/><path id="DejaVuSans-30-25" data-name="DejaVuSans-30" d="M16,197.45a1,1,0,0,0-.92.6,5.55,5.55,0,0,0,0,3.6,1,1,0,0,0,1.84,0,5.38,5.38,0,0,0,0-3.6A1,1,0,0,0,16,197.45Zm0-.62a1.71,1.71,0,0,1,1.5.77,4.11,4.11,0,0,1,.52,2.25,4.07,4.07,0,0,1-.52,2.25,1.83,1.83,0,0,1-3,0,4.07,4.07,0,0,1-.51-2.25,4.12,4.12,0,0,1,.51-2.25A1.71,1.71,0,0,1,16,196.83Z" transform="translate(0 0)"/><path id="DejaVuSans-31-5" data-name="DejaVuSans-31" d="M29.69,202.1H31v-4.45l-1.4.28v-.72l1.39-.28h.79v5.17h1.29v.66H29.69Z" transform="translate(0 0)"/><path id="DejaVuSans-30-26" data-name="DejaVuSans-30" d="M36.33,197.45a1,1,0,0,0-.92.6,5.55,5.55,0,0,0,0,3.6,1,1,0,0,0,1.84,0,5.38,5.38,0,0,0,0-3.6A1,1,0,0,0,36.33,197.45Zm0-.62a1.71,1.71,0,0,1,1.5.77,4.11,4.11,0,0,1,.52,2.25,4.07,4.07,0,0,1-.52,2.25,1.83,1.83,0,0,1-3,0,4.07,4.07,0,0,1-.52-2.25,4.11,4.11,0,0,1,.52-2.25A1.71,1.71,0,0,1,36.33,196.83Z" transform="translate(0 0)"/><path id="DejaVuSans-32-3" data-name="DejaVuSans-32" d="M48,202.1h2.75v.66H47v-.66l1.22-1.25c.52-.52.84-.86,1-1a3.59,3.59,0,0,0,.53-.72,1.25,1.25,0,0,0,.15-.58,1,1,0,0,0-.33-.76,1.25,1.25,0,0,0-.85-.29,2.45,2.45,0,0,0-.78.13,5.06,5.06,0,0,0-.88.39v-.8a7.63,7.63,0,0,1,.89-.29,3.56,3.56,0,0,1,.76-.09,2.18,2.18,0,0,1,1.44.45,1.5,1.5,0,0,1,.54,1.21,1.72,1.72,0,0,1-.14.68,2.8,2.8,0,0,1-.49.76c-.06.08-.27.3-.62.66S48.62,201.45,48,202.1Z" transform="translate(0 0)"/><path id="DejaVuSans-30-27" data-name="DejaVuSans-30" d="M54.08,197.45a1,1,0,0,0-.91.6,5.38,5.38,0,0,0,0,3.6,1,1,0,0,0,1.83,0,5.38,5.38,0,0,0,0-3.6A1,1,0,0,0,54.08,197.45Zm0-.62a1.69,1.69,0,0,1,1.5.77,4,4,0,0,1,.52,2.25,4,4,0,0,1-.52,2.25,1.82,1.82,0,0,1-3,0,4,4,0,0,1-.52-2.25,4,4,0,0,1,.52-2.25A1.69,1.69,0,0,1,54.08,196.83Z" transform="translate(0 0)"/><path id="DejaVuSans-33-3" data-name="DejaVuSans-33" d="M67.45,199.62a1.57,1.57,0,0,1,.89.5,1.45,1.45,0,0,1,.32.95,1.62,1.62,0,0,1-.6,1.34,2.68,2.68,0,0,1-1.69.47,5,5,0,0,1-.75-.07,6.39,6.39,0,0,1-.8-.22v-.76a3,3,0,0,0,.71.29,3.68,3.68,0,0,0,.82.09,1.81,1.81,0,0,0,1.13-.29,1.11,1.11,0,0,0,0-1.66,1.6,1.6,0,0,0-1-.29h-.68v-.65h.72a1.45,1.45,0,0,0,.89-.23.79.79,0,0,0,.3-.67.81.81,0,0,0-.31-.69,1.53,1.53,0,0,0-.92-.24,3.51,3.51,0,0,0-.69.07,6.79,6.79,0,0,0-.82.22v-.7a6.19,6.19,0,0,1,.84-.19,5,5,0,0,1,.74-.06,2.23,2.23,0,0,1,1.43.41,1.33,1.33,0,0,1,.52,1.1,1.24,1.24,0,0,1-.28.82A1.48,1.48,0,0,1,67.45,199.62Z" transform="translate(0 0)"/><path id="DejaVuSans-30-28" data-name="DejaVuSans-30" d="M71.84,197.45a1,1,0,0,0-.92.6,5.55,5.55,0,0,0,0,3.6,1,1,0,0,0,1.84,0,5.38,5.38,0,0,0,0-3.6A1,1,0,0,0,71.84,197.45Zm0-.62a1.71,1.71,0,0,1,1.5.77,4.11,4.11,0,0,1,.52,2.25,4.07,4.07,0,0,1-.52,2.25,1.83,1.83,0,0,1-3,0,4.07,4.07,0,0,1-.52-2.25,4.11,4.11,0,0,1,.52-2.25A1.71,1.71,0,0,1,71.84,196.83Z" transform="translate(0 0)"/><path id="DejaVuSans-34-3" data-name="DejaVuSans-34" d="M85,197.62l-2,3.11h2Zm-.2-.69h1v3.8h.83v.66h-.83v1.37H85v-1.37H82.35v-.76Z" transform="translate(0 0)"/><path id="DejaVuSans-30-29" data-name="DejaVuSans-30" d="M89.59,197.45a1,1,0,0,0-.91.6,5.38,5.38,0,0,0,0,3.6,1,1,0,0,0,1.83,0,5.38,5.38,0,0,0,0-3.6A1,1,0,0,0,89.59,197.45Zm0-.62a1.69,1.69,0,0,1,1.5.77,4,4,0,0,1,.52,2.25,4,4,0,0,1-.52,2.25,1.82,1.82,0,0,1-3,0,4,4,0,0,1-.52-2.25,4,4,0,0,1,.52-2.25A1.69,1.69,0,0,1,89.59,196.83Z" transform="translate(0 0)"/><path id="DejaVuSans-35-3" data-name="DejaVuSans-35" d="M100.58,196.93h3.1v.67H101.3V199l.34-.09a2.07,2.07,0,0,1,.35,0,2.21,2.21,0,0,1,1.55.53,1.9,1.9,0,0,1,.57,1.45,1.88,1.88,0,0,1-.59,1.47,2.43,2.43,0,0,1-1.65.52,4.74,4.74,0,0,1-.75-.06c-.25,0-.52-.11-.79-.19v-.8a3,3,0,0,0,.73.29,3.35,3.35,0,0,0,.79.09,1.57,1.57,0,0,0,1.07-.35,1.36,1.36,0,0,0,0-1.93,1.52,1.52,0,0,0-1.07-.36,3.38,3.38,0,0,0-.63.07,3.47,3.47,0,0,0-.64.22Z" transform="translate(0 0)"/><path id="DejaVuSans-30-30" data-name="DejaVuSans-30" d="M107.35,197.45a1,1,0,0,0-.92.6,5.55,5.55,0,0,0,0,3.6,1,1,0,0,0,1.84,0,5.38,5.38,0,0,0,0-3.6A1,1,0,0,0,107.35,197.45Zm0-.62a1.71,1.71,0,0,1,1.5.77,4.12,4.12,0,0,1,.51,2.25,4.07,4.07,0,0,1-.51,2.25,1.83,1.83,0,0,1-3,0,4.07,4.07,0,0,1-.52-2.25,4.11,4.11,0,0,1,.52-2.25A1.7,1.7,0,0,1,107.35,196.83Z" transform="translate(0 0)"/><path id="DejaVuSans-36-3" data-name="DejaVuSans-36" d="M120.11,199.53a1.07,1.07,0,0,0-.84.37,1.45,1.45,0,0,0-.31,1,1.5,1.5,0,0,0,.31,1,1.06,1.06,0,0,0,.84.36,1,1,0,0,0,.84-.36,1.5,1.5,0,0,0,.31-1,1.45,1.45,0,0,0-.31-1A1,1,0,0,0,120.11,199.53Zm1.57-2.47v.72a2.86,2.86,0,0,0-.6-.21,2.47,2.47,0,0,0-.6-.08,1.45,1.45,0,0,0-1.2.53,2.86,2.86,0,0,0-.47,1.59,1.69,1.69,0,0,1,.58-.52,1.65,1.65,0,0,1,.77-.18,1.86,1.86,0,0,1,1.39.53,2.28,2.28,0,0,1,0,2.9,1.91,1.91,0,0,1-1.42.54,1.77,1.77,0,0,1-1.55-.78,4,4,0,0,1-.53-2.25,3.41,3.41,0,0,1,.66-2.2,2.11,2.11,0,0,1,1.76-.82,3.21,3.21,0,0,1,.6.06A3.3,3.3,0,0,1,121.68,197.06Z" transform="translate(0 0)"/><path id="DejaVuSans-30-31" data-name="DejaVuSans-30" d="M125.1,197.45a1,1,0,0,0-.91.6,5.38,5.38,0,0,0,0,3.6,1,1,0,0,0,1.83,0,5.38,5.38,0,0,0,0-3.6A1,1,0,0,0,125.1,197.45Zm0-.62a1.69,1.69,0,0,1,1.5.77,4,4,0,0,1,.52,2.25,4,4,0,0,1-.52,2.25,1.82,1.82,0,0,1-3,0,4,4,0,0,1-.52-2.25,4,4,0,0,1,.52-2.25A1.69,1.69,0,0,1,125.1,196.83Z" transform="translate(0 0)"/><path id="DejaVuSans-37-3" data-name="DejaVuSans-37" d="M135.88,196.93h3.75v.34l-2.12,5.49h-.82l2-5.16h-2.8Z" transform="translate(0 0)"/><path id="DejaVuSans-30-32" data-name="DejaVuSans-30" d="M142.86,197.45a1,1,0,0,0-.92.6,5.38,5.38,0,0,0,0,3.6,1,1,0,0,0,1.84,0,5.55,5.55,0,0,0,0-3.6A1,1,0,0,0,142.86,197.45Zm0-.62a1.71,1.71,0,0,1,1.5.77,4.12,4.12,0,0,1,.51,2.25,4.07,4.07,0,0,1-.51,2.25,1.7,1.7,0,0,1-1.5.78,1.68,1.68,0,0,1-1.5-.78,4,4,0,0,1-.52-2.25,4,4,0,0,1,.52-2.25A1.69,1.69,0,0,1,142.86,196.83Z" transform="translate(0 0)"/><path id="DejaVuSans-38-3" data-name="DejaVuSans-38" d="M155.52,200a1.2,1.2,0,0,0-.88.31,1,1,0,0,0-.32.82,1.06,1.06,0,0,0,.32.83,1.24,1.24,0,0,0,.88.3,1.26,1.26,0,0,0,.89-.3,1.1,1.1,0,0,0,.32-.83,1,1,0,0,0-.32-.82A1.21,1.21,0,0,0,155.52,200Zm-.79-.33a1.41,1.41,0,0,1-.79-.47,1.32,1.32,0,0,1-.28-.85,1.36,1.36,0,0,1,.5-1.11,2.08,2.08,0,0,1,1.36-.4,2.11,2.11,0,0,1,1.37.4,1.36,1.36,0,0,1,.5,1.11,1.33,1.33,0,0,1-.29.85,1.41,1.41,0,0,1-.78.47,1.54,1.54,0,0,1,.88.52,1.39,1.39,0,0,1,.32.94,1.65,1.65,0,0,1-.52,1.31,2.16,2.16,0,0,1-1.48.45,2.2,2.2,0,0,1-1.48-.45,1.65,1.65,0,0,1-.52-1.31,1.45,1.45,0,0,1,.32-.94A1.6,1.6,0,0,1,154.73,199.66Zm-.29-1.25a.91.91,0,0,0,.29.71,1.14,1.14,0,0,0,.79.25,1.16,1.16,0,0,0,.8-.25.91.91,0,0,0,.28-.71.87.87,0,0,0-.28-.7,1.17,1.17,0,0,0-.8-.26,1.14,1.14,0,0,0-.79.26A.88.88,0,0,0,154.44,198.41Z" transform="translate(0 0)"/><path id="DejaVuSans-30-33" data-name="DejaVuSans-30" d="M160.61,197.45a1,1,0,0,0-.91.6,5.38,5.38,0,0,0,0,3.6,1,1,0,0,0,1.83,0,5.38,5.38,0,0,0,0-3.6A1,1,0,0,0,160.61,197.45Zm0-.62a1.69,1.69,0,0,1,1.5.77,4,4,0,0,1,.52,2.25,4,4,0,0,1-.52,2.25,1.68,1.68,0,0,1-1.5.78,1.7,1.7,0,0,1-1.5-.78,4.07,4.07,0,0,1-.51-2.25,4.12,4.12,0,0,1,.51-2.25A1.71,1.71,0,0,1,160.61,196.83Z" transform="translate(0 0)"/><path id="DejaVuSans-39-3" data-name="DejaVuSans-39" d="M171.61,202.64v-.72a2.91,2.91,0,0,0,.6.22,2.58,2.58,0,0,0,.6.07,1.44,1.44,0,0,0,1.2-.52,2.87,2.87,0,0,0,.47-1.6,1.52,1.52,0,0,1-.58.52,1.65,1.65,0,0,1-.77.18,1.84,1.84,0,0,1-1.38-.53,2,2,0,0,1-.51-1.45,1.94,1.94,0,0,1,.53-1.44,1.88,1.88,0,0,1,1.41-.54,1.78,1.78,0,0,1,1.55.77,4,4,0,0,1,.53,2.25,3.5,3.5,0,0,1-.65,2.21,2.17,2.17,0,0,1-1.76.82,3.05,3.05,0,0,1-.6-.06A4.12,4.12,0,0,1,171.61,202.64Zm1.57-2.47a1,1,0,0,0,.84-.36,1.48,1.48,0,0,0,.32-1,1.45,1.45,0,0,0-.32-1,1,1,0,0,0-.84-.37,1,1,0,0,0-.84.37,1.45,1.45,0,0,0-.31,1,1.48,1.48,0,0,0,.31,1A1.06,1.06,0,0,0,173.18,200.17Z" transform="translate(0 0)"/><path id="DejaVuSans-30-34" data-name="DejaVuSans-30" d="M178.37,197.45a1,1,0,0,0-.92.6,5.38,5.38,0,0,0,0,3.6,1,1,0,0,0,1.84,0,5.55,5.55,0,0,0,0-3.6A1,1,0,0,0,178.37,197.45Zm0-.62a1.71,1.71,0,0,1,1.5.77,4.12,4.12,0,0,1,.51,2.25,4.07,4.07,0,0,1-.51,2.25,1.7,1.7,0,0,1-1.5.78,1.68,1.68,0,0,1-1.5-.78,4,4,0,0,1-.52-2.25,4,4,0,0,1,.52-2.25A1.69,1.69,0,0,1,178.37,196.83Z" transform="translate(0 0)"/><path id="DejaVuSans-31-6" data-name="DejaVuSans-31" d="M186.94,202.1h1.28v-4.45l-1.4.28v-.72l1.4-.28H189v5.17h1.28v.66h-3.35Z" transform="translate(0 0)"/><path id="DejaVuSans-30-35" data-name="DejaVuSans-30" d="M193.58,197.45a1,1,0,0,0-.92.6,5.38,5.38,0,0,0,0,3.6,1,1,0,0,0,.92.6,1,1,0,0,0,.92-.6,5.55,5.55,0,0,0,0-3.6A1,1,0,0,0,193.58,197.45Zm0-.62a1.69,1.69,0,0,1,1.49.77,4,4,0,0,1,.52,2.25,4,4,0,0,1-.52,2.25,1.82,1.82,0,0,1-3,0,4,4,0,0,1-.52-2.25,4,4,0,0,1,.52-2.25A1.69,1.69,0,0,1,193.58,196.83Z" transform="translate(0 0)"/><path id="DejaVuSans-30-36" data-name="DejaVuSans-30" d="M198.67,197.45a1,1,0,0,0-.92.6,5.38,5.38,0,0,0,0,3.6,1,1,0,0,0,.92.6,1,1,0,0,0,.92-.6,5.55,5.55,0,0,0,0-3.6A1,1,0,0,0,198.67,197.45Zm0-.62a1.69,1.69,0,0,1,1.49.77,4,4,0,0,1,.52,2.25,4,4,0,0,1-.52,2.25,1.82,1.82,0,0,1-3,0,4,4,0,0,1-.52-2.25,4,4,0,0,1,.52-2.25A1.69,1.69,0,0,1,198.67,196.83Z" transform="translate(0 0)"/><path id="DejaVuSans-Oblique-50" d="M8.69,137.09l1.51-2.81a3.08,3.08,0,0,1,1.58-1.56,2.4,2.4,0,0,1,2,.25,3.24,3.24,0,0,1,1.79,2.19,4.47,4.47,0,0,1-.61,3.12l-.83,1.53,3.24,2.65-.66,1.22Zm1.55-.49,3,2.47.83-1.53a2.47,2.47,0,0,0,.32-1.87,2.24,2.24,0,0,0-1.22-1.37,1.41,1.41,0,0,0-1.18-.15,1.69,1.69,0,0,0-.92.86Z" transform="translate(0 0)"/><path id="DejaVuSans-32-4" data-name="DejaVuSans-32" d="M22.75,135.63l1.6-3,.72.38-2.15,4-.72-.39q-.24-.75-.63-2c-.27-.87-.44-1.41-.53-1.64a4.18,4.18,0,0,0-.47-1,1.57,1.57,0,0,0-.53-.5,1.2,1.2,0,0,0-1-.09,1.47,1.47,0,0,0-.81.75,3,3,0,0,0-.32.92,6.79,6.79,0,0,0-.09,1.17l-.86-.46a8.16,8.16,0,0,1,.21-1.13,4.16,4.16,0,0,1,.33-.87,2.69,2.69,0,0,1,1.33-1.3,1.86,1.86,0,0,1,1.62.12,2.07,2.07,0,0,1,.66.55,3.69,3.69,0,0,1,.53,1c.05.11.16.46.35,1Z" transform="translate(0 0)"/><path id="DejaVuSans-Oblique-4f" d="M18.56,120.73a3.76,3.76,0,0,0-.47,2,4.66,4.66,0,0,0,.77,2.12,6.41,6.41,0,0,0,1,1.28,6.51,6.51,0,0,0,1.33,1,3.2,3.2,0,0,0,2.26.44,2.4,2.4,0,0,0,1.59-1.33,3.66,3.66,0,0,0,.46-2,4.61,4.61,0,0,0-.75-2.11,6.94,6.94,0,0,0-1.06-1.29,6.73,6.73,0,0,0-1.32-1,3.24,3.24,0,0,0-2.26-.44A2.44,2.44,0,0,0,18.56,120.73Zm7.49,6.07a3.92,3.92,0,0,1-2.39,2.08,4.2,4.2,0,0,1-3.19-.5,6.53,6.53,0,0,1-1.79-1.44,7.12,7.12,0,0,1-1.27-2,6,6,0,0,1-.47-2.45,5.34,5.34,0,0,1,.65-2.32A4,4,0,0,1,20,118.09a4.16,4.16,0,0,1,3.16.48A6.78,6.78,0,0,1,25,120a7,7,0,0,1,1.25,2,5.84,5.84,0,0,1,.48,2.45A5.24,5.24,0,0,1,26.05,126.8Z" transform="translate(0 0)"/><path id="DejaVuSans-35-4" data-name="DejaVuSans-35" d="M25.15,117.82l1.8-3.34.72.39-1.38,2.56,1.54.83a2.58,2.58,0,0,1,.11-.42,1.71,1.71,0,0,1,.17-.39,2.68,2.68,0,0,1,1.47-1.36,2.32,2.32,0,0,1,1.9.23,2.28,2.28,0,0,1,1.23,1.48,2.92,2.92,0,0,1-.4,2.09,5,5,0,0,1-.5.77,7.32,7.32,0,0,1-.66.74l-.85-.46a4.35,4.35,0,0,0,.73-.62,4.23,4.23,0,0,0,.56-.8,1.91,1.91,0,0,0,.24-1.36,1.57,1.57,0,0,0-.81-1,1.48,1.48,0,0,0-1.27-.13,1.87,1.87,0,0,0-1,.94,3.74,3.74,0,0,0-.29.72,4.25,4.25,0,0,0-.14.82Z" transform="translate(0 0)"/><path id="DejaVuSans-20" d="M32.06,115.23" transform="translate(0 0)"/><path id="DejaVuSans-28" d="M26.88,102.45A14,14,0,0,0,29,105.12,11.2,11.2,0,0,0,31.5,107a11.37,11.37,0,0,0,3,1.09,13.66,13.66,0,0,0,3.38.28l-.52,1a14.24,14.24,0,0,1-3.5-.15,9.61,9.61,0,0,1-3-1,9.79,9.79,0,0,1-2.46-1.9,13.54,13.54,0,0,1-2.05-2.85Z" transform="translate(0 0)"/><path id="DejaVuSans-77" d="M30.3,102.35l.6-1.11,6,1.45-4.52-4.21.71-1.3,6,1.44-4.51-4.21.59-1.11L41,98.7l-.7,1.31L34,98.48l4.74,4.43-.7,1.31Z" transform="translate(0 0)"/><path id="DejaVuSans-74" d="M34.75,89.5l1.92,1,1.23-2.28.86.46L37.53,91l3.66,2a1.87,1.87,0,0,0,1.18.34c.23-.06.48-.33.73-.79l.61-1.14.93.5L44,93a2.84,2.84,0,0,1-1.43,1.51,2.77,2.77,0,0,1-2-.45l-3.66-2-.44.81-.86-.46.44-.82-1.92-1Z" transform="translate(0 0)"/><path id="DejaVuSans-2e" d="M44,89.45l.68-1.28,1.53.83-.69,1.27Z" transform="translate(0 0)"/><path id="DejaVuSans-20-2" data-name="DejaVuSans-20" d="M46.91,87.67" transform="translate(0 0)"/><path id="DejaVuSans-25" d="M49.89,72.66a1.06,1.06,0,0,0,0,1.06,2.54,2.54,0,0,0,1.08,1,2.48,2.48,0,0,0,1.39.36,1.1,1.1,0,0,0,.88-1.63,2.49,2.49,0,0,0-1.07-1,2.52,2.52,0,0,0-1.4-.37A1.06,1.06,0,0,0,49.89,72.66Zm-.76-.41A2.09,2.09,0,0,1,50.6,71.1,3.54,3.54,0,0,1,54.17,73a2.34,2.34,0,0,1-1.63,3A3.53,3.53,0,0,1,49,74.12,2.11,2.11,0,0,1,49.13,72.25Zm-7,4.23a1.08,1.08,0,0,0,0,1.06,2.49,2.49,0,0,0,1.07,1,2.58,2.58,0,0,0,1.4.38,1.11,1.11,0,0,0,.89-1.64,2.54,2.54,0,0,0-1.08-1A2.47,2.47,0,0,0,43,75.91,1.09,1.09,0,0,0,42.11,76.48Zm2.17-5.84.52-1,6.29,10.64-.52,1Zm-2.93,5.43a2.15,2.15,0,0,1,1.48-1.16,3,3,0,0,1,2.09.4,3.09,3.09,0,0,1,1.49,1.53,2.15,2.15,0,0,1-.17,1.87,2.13,2.13,0,0,1-1.47,1.16,3.05,3.05,0,0,1-2.09-.41,3,3,0,0,1-1.48-1.52A2.14,2.14,0,0,1,41.35,76.07Z" transform="translate(0 0)"/><path id="DejaVuSans-29" d="M46.51,66l.51-1a14.3,14.3,0,0,1,3.51.15A9.54,9.54,0,0,1,56,68.12,14.08,14.08,0,0,1,58,71l-.52,1a13.63,13.63,0,0,0-2.1-2.67,11,11,0,0,0-5.49-3A14.1,14.1,0,0,0,46.51,66Z" transform="translate(0 0)"/><path id="DejaVuSans-Oblique-53" d="M178.22,71l-1.31.41a6.92,6.92,0,0,0-.16-1.48,4.89,4.89,0,0,0-.46-1.25,3.25,3.25,0,0,0-1.41-1.47,1.67,1.67,0,0,0-1.61,0,1,1,0,0,0-.54.59,3.69,3.69,0,0,0,.17,1.49l.21.83a4.17,4.17,0,0,1,.11,2.15,2.1,2.1,0,0,1-1.11,1.22,3.09,3.09,0,0,1-2.79.13A4.94,4.94,0,0,1,167,71.28a8.88,8.88,0,0,1-.64-1.52,9.8,9.8,0,0,1-.35-1.68l1.39-.43a6.59,6.59,0,0,0,.09,1.68,5.1,5.1,0,0,0,.51,1.45,3.45,3.45,0,0,0,1.49,1.55,1.78,1.78,0,0,0,1.69,0,1.32,1.32,0,0,0,.67-.72,3,3,0,0,0-.12-1.45l-.21-.83a4.69,4.69,0,0,1-.17-2.1,1.78,1.78,0,0,1,.95-1.1A3.1,3.1,0,0,1,175,66a4.58,4.58,0,0,1,2.31,2.22,8.3,8.3,0,0,1,.57,1.34A8.51,8.51,0,0,1,178.22,71Z" transform="translate(0 0)"/><path id="DejaVuSans-Oblique-69" d="M180.32,73.25l.6,1.11-1.55.49-.6-1.11Zm-2.9.91.6,1.11-7.45,2.31-.6-1.1Z" transform="translate(0 0)"/><path id="DejaVuSans-Oblique-4f-2" data-name="DejaVuSans-Oblique-4f" d="M182.78,80.69a3.66,3.66,0,0,0-1.44-1.5,4.6,4.6,0,0,0-2.19-.53,6.06,6.06,0,0,0-1.64.17,6.35,6.35,0,0,0-1.54.58,3.26,3.26,0,0,0-1.61,1.64,2.44,2.44,0,0,0,.24,2.06,3.64,3.64,0,0,0,1.43,1.5,4.62,4.62,0,0,0,2.18.53,7.09,7.09,0,0,0,1.66-.17,6,6,0,0,0,1.53-.58,3.2,3.2,0,0,0,1.6-1.64A2.43,2.43,0,0,0,182.78,80.69Zm-9.19,2.92a3.93,3.93,0,0,1-.42-3.14,4.2,4.2,0,0,1,2.17-2.39,6.63,6.63,0,0,1,2.19-.7,7,7,0,0,1,2.37,0,6,6,0,0,1,2.31,1,5.2,5.2,0,0,1,1.57,1.83,3.93,3.93,0,0,1,.43,3.12,4.16,4.16,0,0,1-2.14,2.38,6.58,6.58,0,0,1-2.23.73,6.75,6.75,0,0,1-2.37-.06,5.86,5.86,0,0,1-2.31-.94A5.27,5.27,0,0,1,173.59,83.61Z" transform="translate(0 0)"/><path id="DejaVuSans-32-5" data-name="DejaVuSans-32" d="M176.4,91.53l1.6,3-.72.38-2.15-4,.72-.39,2.05.6c.87.25,1.42.41,1.66.46a4.75,4.75,0,0,0,1.08.16,1.63,1.63,0,0,0,.72-.18,1.21,1.21,0,0,0,.63-.79,1.55,1.55,0,0,0-.18-1.09,3.43,3.43,0,0,0-.6-.77,6.27,6.27,0,0,0-.93-.72l.86-.46a8,8,0,0,1,.83.79,4.38,4.38,0,0,1,.55.76,2.7,2.7,0,0,1,.35,1.82,1.85,1.85,0,0,1-1,1.29,2.18,2.18,0,0,1-.81.25,3.8,3.8,0,0,1-1.1-.09c-.12,0-.48-.12-1.07-.29Z" transform="translate(0 0)"/><path id="DejaVuSans-20-3" data-name="DejaVuSans-20" d="M180,95" transform="translate(0 0)"/><path id="DejaVuSans-28-2" data-name="DejaVuSans-28" d="M193.47,97.7a14.09,14.09,0,0,0-3.38.27,11.44,11.44,0,0,0-3,1.09,11.22,11.22,0,0,0-2.54,1.88,14,14,0,0,0-2.09,2.67l-.52-1A14.08,14.08,0,0,1,184,99.8a9.7,9.7,0,0,1,2.47-1.91,9.93,9.93,0,0,1,2.94-1,14.3,14.3,0,0,1,3.51-.15Z" transform="translate(0 0)"/><path id="DejaVuSans-77-2" data-name="DejaVuSans-77" d="M191.67,100.61l.6,1.11-4.51,4.21,6-1.45.7,1.3L190,110l6-1.45.6,1.1-7.69,1.87-.71-1.31,4.75-4.42-6.31,1.52-.71-1.31Z" transform="translate(0 0)"/><path id="DejaVuSans-74-2" data-name="DejaVuSans-74" d="M200,111.4l-1.91,1,1.23,2.28-.86.46-1.23-2.28-3.66,2c-.55.3-.86.56-.94.8a1.49,1.49,0,0,0,.26,1l.61,1.14-.92.5-.61-1.14a2.88,2.88,0,0,1-.48-2,2.76,2.76,0,0,1,1.48-1.43l3.66-2-.44-.81.86-.47.44.81,1.91-1Z" transform="translate(0 0)"/><path id="DejaVuSans-2e-2" data-name="DejaVuSans-2e" d="M194.93,119.13l.68,1.27-1.53.82L193.4,120Z" transform="translate(0 0)"/><path id="DejaVuSans-20-4" data-name="DejaVuSans-20" d="M194.8,122.55" transform="translate(0 0)"/><path id="DejaVuSans-25-2" data-name="DejaVuSans-25" d="M205.69,133.3a1.06,1.06,0,0,0-.89-.58,3.08,3.08,0,0,0-2.47,1.33,1.1,1.1,0,0,0,.88,1.63,2.47,2.47,0,0,0,1.39-.36,2.54,2.54,0,0,0,1.08-1A1.06,1.06,0,0,0,205.69,133.3Zm.77-.41a2.12,2.12,0,0,1,.15,1.86,3.55,3.55,0,0,1-3.58,1.93,2.36,2.36,0,0,1-1.63-3,3,3,0,0,1,1.48-1.52,3.09,3.09,0,0,1,2.1-.41A2.18,2.18,0,0,1,206.46,132.89Zm.31-8.19a1.06,1.06,0,0,0-.88-.57,2.52,2.52,0,0,0-1.4.36,2.67,2.67,0,0,0-1.08,1,1.06,1.06,0,0,0,0,1.06,1.08,1.08,0,0,0,.89.58,2.64,2.64,0,0,0,1.4-.37,2.52,2.52,0,0,0,1.06-1A1.05,1.05,0,0,0,206.77,124.7Zm3.7,5,.52,1-12.36-.6-.52-1Zm-2.93-5.44a2.18,2.18,0,0,1,.16,1.87,3.53,3.53,0,0,1-3.58,1.93,2.34,2.34,0,0,1-1.63-3,3.56,3.56,0,0,1,3.57-1.92A2.13,2.13,0,0,1,207.54,124.29Z" transform="translate(0 0)"/><path id="DejaVuSans-29-2" data-name="DejaVuSans-29" d="M213.1,134.13l.52,1a14.48,14.48,0,0,1-2.05,2.85,10.07,10.07,0,0,1-2.46,1.91,10,10,0,0,1-3,1,14.3,14.3,0,0,1-3.51.15l-.51-1a13.66,13.66,0,0,0,3.38-.28,11.37,11.37,0,0,0,3-1.09A11.2,11.2,0,0,0,211,136.8,14,14,0,0,0,213.1,134.13Z" transform="translate(0 0)"/><path id="DejaVuSans-Oblique-4d" d="M34.27,209.11h2.07L37.53,216l3.95-6.88h2.13l-2,10.21H40.28L42,210.37l-4,7H36.66l-1.3-7-1.73,9H32.28Z" transform="translate(0 0)"/><path id="DejaVuSans-Oblique-67" d="M52.33,211.66,51,218.37a5,5,0,0,1-1.44,2.9,4.12,4.12,0,0,1-2.86,1,6.85,6.85,0,0,1-1.24-.1,5.91,5.91,0,0,1-1.06-.3l.24-1.23a3.44,3.44,0,0,0,1,.44,4,4,0,0,0,1.11.15,2.89,2.89,0,0,0,2-.66,3.09,3.09,0,0,0,1-1.87l.11-.58a3.49,3.49,0,0,1-1.22.92,3.65,3.65,0,0,1-1.51.32,2.32,2.32,0,0,1-1.83-.77,3.15,3.15,0,0,1-.66-2.12,5.52,5.52,0,0,1,.4-2.07,5.78,5.78,0,0,1,1.14-1.81,3.42,3.42,0,0,1,2.48-1.07,2.46,2.46,0,0,1,1.34.36,2.14,2.14,0,0,1,.86,1l.22-1.19Zm-1.89,2.81A2.16,2.16,0,0,0,50,213a1.58,1.58,0,0,0-1.24-.5,2.34,2.34,0,0,0-.95.2,2.26,2.26,0,0,0-.78.55,4.49,4.49,0,0,0-.81,1.38,4.86,4.86,0,0,0-.29,1.65,2.17,2.17,0,0,0,.44,1.45,1.59,1.59,0,0,0,1.27.5,2.41,2.41,0,0,0,2-1.08A4.46,4.46,0,0,0,50.44,214.47Z" transform="translate(0 0)"/><path id="DejaVuSans-Oblique-4f-3" data-name="DejaVuSans-Oblique-4f" d="M59.26,210.05a3.65,3.65,0,0,0-2,.55,4.58,4.58,0,0,0-1.51,1.67,6.38,6.38,0,0,0-.62,1.53,6,6,0,0,0-.22,1.63,3.21,3.21,0,0,0,.68,2.19,2.42,2.42,0,0,0,1.93.77,3.63,3.63,0,0,0,2-.55A4.62,4.62,0,0,0,61,216.18a7.2,7.2,0,0,0,.63-1.55,6,6,0,0,0,.22-1.62,3.2,3.2,0,0,0-.69-2.19A2.39,2.39,0,0,0,59.26,210.05Zm-1.8,9.47a3.93,3.93,0,0,1-3-1.12,4.19,4.19,0,0,1-1.08-3.05,6.57,6.57,0,0,1,.42-2.26A7,7,0,0,1,55,211a5.81,5.81,0,0,1,1.93-1.58,5.3,5.3,0,0,1,2.36-.52,3.91,3.91,0,0,1,3,1.1,4.13,4.13,0,0,1,1.08,3,6.88,6.88,0,0,1-1.59,4.37A5.84,5.84,0,0,1,59.81,219,5.3,5.3,0,0,1,57.46,219.52Z" transform="translate(0 0)"/><path id="DejaVuSans-2b" d="M73.06,210.54v3.81h3.8v1.16h-3.8v3.81H71.91v-3.81H68.1v-1.16h3.81v-3.81Z" transform="translate(0 0)"/><path id="DejaVuSans-Oblique-41" d="M86.23,209.11H87.8l1.89,10.21H88.25l-.43-2.62H83.23l-1.44,2.62H80.33Zm.5,1.36-2.86,5.08h3.74Z" transform="translate(0 0)"/><path id="DejaVuSans-Oblique-6c" d="M93.22,208.68h1.25L92.4,219.32H91.15Z" transform="translate(0 0)"/><path id="DejaVuSans-32-6" data-name="DejaVuSans-32" d="M96.42,220.8H99.8v.81H95.26v-.81l1.5-1.53c.63-.64,1-1.05,1.19-1.24a4.21,4.21,0,0,0,.65-.88,1.48,1.48,0,0,0,.19-.71,1.22,1.22,0,0,0-.4-.93,1.51,1.51,0,0,0-1-.36,3.33,3.33,0,0,0-1,.16,6.2,6.2,0,0,0-1.08.48v-1a8.5,8.5,0,0,1,1.09-.35,4.09,4.09,0,0,1,.93-.12,2.66,2.66,0,0,1,1.77.56,1.83,1.83,0,0,1,.66,1.48,2.12,2.12,0,0,1-.17.83,3.76,3.76,0,0,1-.6.93c-.08.1-.33.36-.76.81Z" transform="translate(0 0)"/><path id="DejaVuSans-Oblique-4f-4" data-name="DejaVuSans-Oblique-4f" d="M107.55,210.05a3.65,3.65,0,0,0-2,.55,4.58,4.58,0,0,0-1.51,1.67,6.38,6.38,0,0,0-.62,1.53,6,6,0,0,0-.22,1.63,3.21,3.21,0,0,0,.68,2.19,2.42,2.42,0,0,0,1.93.77,3.63,3.63,0,0,0,2-.55,4.62,4.62,0,0,0,1.51-1.66,7.2,7.2,0,0,0,.63-1.55,6,6,0,0,0,.22-1.62,3.2,3.2,0,0,0-.69-2.19A2.39,2.39,0,0,0,107.55,210.05Zm-1.8,9.47a3.93,3.93,0,0,1-3-1.12,4.19,4.19,0,0,1-1.08-3.05,6.57,6.57,0,0,1,.42-2.26A7,7,0,0,1,103.3,211a5.81,5.81,0,0,1,1.93-1.58,5.3,5.3,0,0,1,2.36-.52,3.91,3.91,0,0,1,3,1.1,4.13,4.13,0,0,1,1.08,3,6.88,6.88,0,0,1-1.59,4.37A5.84,5.84,0,0,1,108.1,219,5.3,5.3,0,0,1,105.75,219.52Z" transform="translate(0 0)"/><path id="DejaVuSans-33-4" data-name="DejaVuSans-33" d="M116.16,217.76a1.88,1.88,0,0,1,1.08.62,1.75,1.75,0,0,1,.39,1.16,2,2,0,0,1-.73,1.63,3.2,3.2,0,0,1-2.06.58,5,5,0,0,1-.93-.09,6.49,6.49,0,0,1-1-.26v-.94a3.26,3.26,0,0,0,.88.36,4.09,4.09,0,0,0,1,.12,2.27,2.27,0,0,0,1.38-.36,1.35,1.35,0,0,0,0-2,1.93,1.93,0,0,0-1.24-.36h-.83v-.79H115a1.77,1.77,0,0,0,1.09-.29.94.94,0,0,0,.38-.82,1,1,0,0,0-.39-.84,1.8,1.8,0,0,0-1.12-.3,4.48,4.48,0,0,0-.85.09,9,9,0,0,0-1,.27v-.86a7.78,7.78,0,0,1,1-.23,6,6,0,0,1,.91-.08,2.79,2.79,0,0,1,1.74.5,1.61,1.61,0,0,1,.64,1.35,1.48,1.48,0,0,1-.34,1A1.69,1.69,0,0,1,116.16,217.76Z" transform="translate(0 0)"/><path id="DejaVuSans-20-5" data-name="DejaVuSans-20" d="M118.8,219.32" transform="translate(0 0)"/><path id="DejaVuSans-28-3" data-name="DejaVuSans-28" d="M127.59,208.69a14.15,14.15,0,0,0-1.36,3.11,11.08,11.08,0,0,0,0,6.25,13.76,13.76,0,0,0,1.36,3.11h-1.1A14.06,14.06,0,0,1,125,218a9.53,9.53,0,0,1,0-6.15,14.48,14.48,0,0,1,1.53-3.16Z" transform="translate(0 0)"/><path id="DejaVuSans-77-3" data-name="DejaVuSans-77" d="M129.3,211.66h1.26l1.57,6,1.56-6h1.49l1.57,6,1.57-6h1.25l-2,7.66h-1.48L134.44,213l-1.65,6.28H131.3Z" transform="translate(0 0)"/><path id="DejaVuSans-74-3" data-name="DejaVuSans-74" d="M142.72,209.49v2.17h2.59v1h-2.59v4.15A1.9,1.9,0,0,0,143,218a1.47,1.47,0,0,0,1,.26h1.29v1.06H144a2.83,2.83,0,0,1-2-.55,2.74,2.74,0,0,1-.55-2v-4.15h-.92v-1h.92v-2.17Z" transform="translate(0 0)"/><path id="DejaVuSans-2e-3" data-name="DejaVuSans-2e" d="M147.15,217.58h1.44v1.74h-1.44Z" transform="translate(0 0)"/><path id="DejaVuSans-20-6" data-name="DejaVuSans-20" d="M150.1,219.32" transform="translate(0 0)"/><path id="DejaVuSans-25-3" data-name="DejaVuSans-25" d="M164.73,214.83a1.07,1.07,0,0,0-.94.5,3.16,3.16,0,0,0,0,2.81,1.07,1.07,0,0,0,.94.51,1.05,1.05,0,0,0,.92-.51,2.56,2.56,0,0,0,.34-1.4,2.52,2.52,0,0,0-.34-1.4A1.05,1.05,0,0,0,164.73,214.83Zm0-.87a2.12,2.12,0,0,1,1.71.75,3.54,3.54,0,0,1,0,4.06,2.35,2.35,0,0,1-3.44,0,3.07,3.07,0,0,1-.64-2,3,3,0,0,1,.64-2A2.16,2.16,0,0,1,164.73,214Zm-7.06-4.17a1,1,0,0,0-.92.51,2.48,2.48,0,0,0-.34,1.4,2.58,2.58,0,0,0,.33,1.41,1.11,1.11,0,0,0,1.87,0,2.58,2.58,0,0,0,.33-1.41,2.44,2.44,0,0,0-.34-1.39A1.06,1.06,0,0,0,157.67,209.79Zm6.18-.86h1.09l-6.38,10.59h-1.1Zm-6.18,0a2.19,2.19,0,0,1,1.73.74,3.07,3.07,0,0,1,.64,2,3,3,0,0,1-.64,2,2.15,2.15,0,0,1-1.73.74,2.17,2.17,0,0,1-1.72-.74,3.07,3.07,0,0,1-.63-2,3,3,0,0,1,.64-2A2.12,2.12,0,0,1,157.67,208.93Z" transform="translate(0 0)"/><path id="DejaVuSans-29-3" data-name="DejaVuSans-29" d="M169,208.69h1.09a14.48,14.48,0,0,1,1.53,3.16,9.53,9.53,0,0,1,0,6.15,14.06,14.06,0,0,1-1.53,3.16H169a14.17,14.17,0,0,0,1.35-3.11,11.08,11.08,0,0,0,0-6.25A14.59,14.59,0,0,0,169,208.69Z" transform="translate(0 0)"/></g><g id="Layer_2" data-name="Layer 2"><g id="rectangles"><rect class="cls-2" x="115.69" y="111.95" width="24.15" height="13.15" rx="6.57"/><rect class="cls-2" x="91.39" y="126.64" width="24.15" height="13.15" rx="6.57"/><rect class="cls-2" x="107.85" y="142.84" width="27.77" height="13.15" rx="6.57"/><rect class="cls-2" x="138.23" y="130.05" width="31.57" height="13.42" rx="6.57"/><rect class="cls-2" x="124.05" y="89.42" width="24.15" height="13.15" rx="6.57"/><rect class="cls-2" x="105.87" y="161.22" width="36.32" height="13.15" rx="6.57"/><rect class="cls-2" x="156.71" y="155.5" width="27.27" height="13.15" rx="6.57"/></g><g id="Lables"><path class="cls-13" d="M112.26,170.72v-8.58h1.14v3.52h4.46v-3.52H119v8.58h-1.14v-4H113.4v4Z" transform="translate(0 0)"/><path class="cls-13" d="M120.35,168.15v-1.06h3.24v1.06Z" transform="translate(0 0)"/><path class="cls-13" d="M124.85,170.72v-8.58h1.72l2,6.08c.19.56.32,1,.41,1.27.1-.31.25-.77.46-1.38l2.05-6h1.53v8.58H132v-7.18l-2.5,7.18h-1L126,163.41v7.31Z" transform="translate(0 0)"/><path class="cls-13" d="M134.56,171.24l1,.15a1,1,0,0,0,.36.69,1.72,1.72,0,0,0,1.07.3,1.83,1.83,0,0,0,1.13-.3,1.36,1.36,0,0,0,.54-.82,6.44,6.44,0,0,0,.08-1.35,2.18,2.18,0,0,1-1.72.81,2.34,2.34,0,0,1-2-.92,3.57,3.57,0,0,1-.7-2.22,4.08,4.08,0,0,1,.32-1.65,2.63,2.63,0,0,1,.93-1.16,2.56,2.56,0,0,1,1.44-.41,2.24,2.24,0,0,1,1.82.89v-.75h1v5.38a5.24,5.24,0,0,1-.29,2.06,2.18,2.18,0,0,1-.94,1,3.32,3.32,0,0,1-1.58.35,3,3,0,0,1-1.8-.5A1.68,1.68,0,0,1,134.56,171.24Zm.87-3.74a2.68,2.68,0,0,0,.49,1.79,1.55,1.55,0,0,0,1.22.56,1.52,1.52,0,0,0,1.21-.56,3.25,3.25,0,0,0,0-3.48,1.6,1.6,0,0,0-1.22-.58,1.54,1.54,0,0,0-1.2.58A2.51,2.51,0,0,0,135.43,167.5Z" transform="translate(0 0)"/><path class="cls-13" d="M140.14,140.67v-8.59h1.71l2,6.09c.19.56.33,1,.41,1.27.1-.31.25-.77.46-1.38l2.06-6h1.53v8.59h-1.1v-7.19l-2.49,7.19h-1l-2.48-7.31v7.31Z" transform="translate(0 0)"/><path class="cls-13" d="M149.63,138.1V137h3.24v1.06Z" transform="translate(0 0)"/><path class="cls-13" d="M154.13,140.67v-8.59h1.71l2,6.09.41,1.27c.09-.31.25-.77.45-1.38l2.06-6h1.53v8.59h-1.1v-7.19l-2.49,7.19h-1l-2.48-7.31v7.31Z" transform="translate(0 0)"/><path class="cls-13" d="M163.83,141.19l1,.15a.93.93,0,0,0,.36.69,1.72,1.72,0,0,0,1.07.3,1.83,1.83,0,0,0,1.13-.3,1.39,1.39,0,0,0,.54-.82,7.26,7.26,0,0,0,.08-1.35,2.18,2.18,0,0,1-1.73.81,2.33,2.33,0,0,1-2-.92,3.57,3.57,0,0,1-.71-2.22,4.09,4.09,0,0,1,.33-1.65,2.51,2.51,0,0,1,.93-1.16,2.56,2.56,0,0,1,1.44-.41,2.26,2.26,0,0,1,1.82.89v-.75h1v5.38a5,5,0,0,1-.3,2.06,2.2,2.2,0,0,1-.93,1,3.32,3.32,0,0,1-1.58.35,3,3,0,0,1-1.8-.5A1.72,1.72,0,0,1,163.83,141.19Zm.88-3.74a2.74,2.74,0,0,0,.48,1.79,1.61,1.61,0,0,0,2.44,0,2.59,2.59,0,0,0,.49-1.75,2.55,2.55,0,0,0-.5-1.73,1.6,1.6,0,0,0-1.22-.58,1.51,1.51,0,0,0-1.2.58A2.51,2.51,0,0,0,164.71,137.45Z" transform="translate(0 0)"/><path class="cls-14" d="M159.54,166.25v-8.59h1.13v3.53h4.47v-3.53h1.13v8.59h-1.13v-4h-4.47v4Z" transform="translate(0 0)"/><path class="cls-14" d="M167.62,163.68v-1.06h3.24v1.06Z" transform="translate(0 0)"/><path class="cls-14" d="M171.22,166.25l3.3-8.59h1.22l3.52,8.59H178l-1-2.6h-3.59l-.94,2.6Zm2.48-3.52h2.91l-.9-2.38c-.27-.72-.47-1.32-.61-1.78a11.17,11.17,0,0,1-.46,1.64Z" transform="translate(0 0)"/><path class="cls-14" d="M180,166.25v-8.59h1.05v8.59Z" transform="translate(0 0)"/><path class="cls-14" d="M111,153.73v-8.59h1.71l2,6.08c.19.57.32,1,.41,1.27.1-.31.25-.77.46-1.37l2-6h1.53v8.59h-1.09v-7.19l-2.5,7.19h-1l-2.49-7.31v7.31Z" transform="translate(0 0)"/><path class="cls-14" d="M120.52,151.15v-1.06h3.24v1.06Z" transform="translate(0 0)"/><path class="cls-14" d="M124.12,153.73l3.3-8.59h1.22l3.52,8.59h-1.3l-1-2.6h-3.59l-.94,2.6Zm2.48-3.53h2.91l-.9-2.38c-.27-.72-.47-1.31-.61-1.78a10.84,10.84,0,0,1-.46,1.64Z" transform="translate(0 0)"/><path class="cls-14" d="M132.91,153.73v-8.59H134v8.59Z" transform="translate(0 0)"/><line class="cls-15" x1="144.91" y1="100.82" x2="154.98" y2="106.68"/><line class="cls-16" x1="144.91" y1="100.82" x2="151.15" y2="104.45"/><polygon class="cls-15" points="149.56 105.21 154.97 106.68 151.02 102.69 149.56 105.21"/><path class="cls-15" d="M128.38,101.3V92.71h1.16l4.52,6.74V92.71h1.09v8.59H134l-4.51-6.75v6.75Z" transform="translate(0 0)"/><path class="cls-15" d="M136.51,98.72V97.66h3.24v1.06Z" transform="translate(0 0)"/><path class="cls-15" d="M141.05,101.3V92.71h3.24a7.36,7.36,0,0,1,1.31.08,2.53,2.53,0,0,1,1.06.4,2.11,2.11,0,0,1,.69.83,2.8,2.8,0,0,1-.44,3,3.36,3.36,0,0,1-2.52.75h-2.2v3.5Zm1.14-4.51h2.22a2.35,2.35,0,0,0,1.56-.41,1.46,1.46,0,0,0,.47-1.15,1.59,1.59,0,0,0-.27-.93,1.34,1.34,0,0,0-.72-.5,4.86,4.86,0,0,0-1.06-.08h-2.2Z" transform="translate(0 0)"/><path d="M95.2,137.74v-8.59h1.13v3.52h4.47v-3.52h1.14v8.59H100.8v-4.05H96.33v4.05Z" transform="translate(0 0)"/><path d="M103.28,135.16V134.1h3.24v1.06Z" transform="translate(0 0)"/><path d="M107.82,137.74v-8.59h3.24a7.36,7.36,0,0,1,1.31.08,2.53,2.53,0,0,1,1.06.4,2,2,0,0,1,.69.83,2.68,2.68,0,0,1,.26,1.17,2.64,2.64,0,0,1-.7,1.86,3.36,3.36,0,0,1-2.52.75H109v3.5Zm1.14-4.51h2.22a2.38,2.38,0,0,0,1.57-.41,1.48,1.48,0,0,0,.46-1.15,1.59,1.59,0,0,0-.27-.93,1.3,1.3,0,0,0-.72-.5,4.86,4.86,0,0,0-1.06-.08H109Z" transform="translate(0 0)"/><path class="cls-17" d="M121.07,123.38v-8.59h1.14v7.58h4.23v1Z" transform="translate(0 0)"/><path class="cls-17" d="M127.25,120.81v-1.06h3.24v1.06Z" transform="translate(0 0)"/><path class="cls-17" d="M131.79,123.38v-8.59H135a7.18,7.18,0,0,1,1.31.09,2.58,2.58,0,0,1,1.06.4,2.09,2.09,0,0,1,.68.83,2.52,2.52,0,0,1,.27,1.17,2.64,2.64,0,0,1-.7,1.85,3.34,3.34,0,0,1-2.52.76h-2.2v3.49Zm1.14-4.5h2.22a2.37,2.37,0,0,0,1.56-.41,1.47,1.47,0,0,0,.46-1.16,1.56,1.56,0,0,0-.27-.92,1.34,1.34,0,0,0-.72-.51,5,5,0,0,0-1.06-.07h-2.19Z" transform="translate(0 0)"/><line class="cls-13" x1="141.41" y1="162.64" x2="146.43" y2="155.25"/><line class="cls-18" x1="141.41" y1="162.64" x2="143.94" y2="158.91"/><polygon class="cls-13" points="144.59 160.55 146.44 155.25 142.18 158.91 144.59 160.55"/></g></g></svg>